<?xml version="1.0" encoding="utf-8"?>
<!-- Generator: Adobe Illustrator 27.5.0, SVG Export Plug-In . SVG Version: 6.00 Build 0)  -->
<svg version="1.1" xmlns="http://www.w3.org/2000/svg" xmlns:xlink="http://www.w3.org/1999/xlink" x="0px" y="0px"
	 viewBox="0 0 750 500" style="enable-background:new 0 0 750 500;" xml:space="preserve">
<g id="BACKGROUND">
	<g>
		<rect style="fill:#FFFFFF;" width="750" height="500"/>
	</g>
</g>
<g id="OBJECTS">
	<g>
		<g>
			<path style="fill:#D0EFF4;" d="M650.447,392.432H99.553c-13.622,0-24.665-11.043-24.665-24.665V78.662
				c0-13.622,11.043-24.665,24.665-24.665h550.895c13.622,0,24.665,11.043,24.665,24.665v289.105
				C675.112,381.39,664.069,392.432,650.447,392.432z"/>
			<g>
				<rect x="88.504" y="83.655" style="fill:#98D3E5;" width="572.992" height="3.587"/>
				<rect x="88.504" y="174.473" style="fill:#98D3E5;" width="572.992" height="3.587"/>
				<rect x="88.504" y="265.292" style="fill:#98D3E5;" width="572.992" height="3.587"/>
				<rect x="88.504" y="356.11" style="fill:#98D3E5;" width="572.992" height="3.587"/>
			</g>
			<polyline style="fill:none;stroke:#E71C2E;stroke-miterlimit:10;" points="94.466,283.536 249.382,128.62 297.937,177.176 
				318.064,157.05 338.586,177.573 444.523,71.636 585.85,212.964 611.591,187.224 653.801,229.434 			"/>
			<polyline style="fill:none;stroke:#FFFFFF;stroke-miterlimit:10;" points="97.268,267.645 150.77,321.148 274.889,197.029 
				284.209,206.349 351.704,138.855 464.705,251.856 482.152,234.408 525.35,277.606 565.85,237.106 573.607,244.864 
				658.968,159.503 			"/>
			<g>
				<path style="fill:#98D3E5;" d="M640.64,374.557H477.411c-5.19,0-9.397-4.207-9.397-9.397v-94.344
					c0-5.19,4.207-9.397,9.397-9.397H640.64c5.19,0,9.397,4.207,9.397,9.397v94.344C650.037,370.35,645.83,374.557,640.64,374.557z"
					/>
				<path style="fill:#FFFFFF;" d="M644.338,370.86H481.109c-5.19,0-9.397-4.207-9.397-9.397v-94.344
					c0-5.19,4.207-9.397,9.397-9.397h163.229c5.19,0,9.397,4.207,9.397,9.397v94.344C653.735,366.653,649.527,370.86,644.338,370.86
					z"/>
				<g>
					<rect x="488.501" y="270.368" style="fill:#D0EFF4;" width="148.444" height="6.222"/>
					<rect x="488.501" y="286.649" style="fill:#D0EFF4;" width="148.444" height="6.222"/>
					<rect x="488.501" y="302.93" style="fill:#D0EFF4;" width="148.444" height="6.222"/>
					<rect x="488.501" y="319.211" style="fill:#D0EFF4;" width="148.444" height="6.222"/>
					<rect x="488.501" y="335.492" style="fill:#D0EFF4;" width="148.444" height="6.222"/>
					<rect x="488.501" y="351.773" style="fill:#D0EFF4;" width="148.444" height="6.222"/>
				</g>
			</g>
			<g>
				<rect x="488.501" y="270.368" style="fill:#1C77B5;" width="30.161" height="6.222"/>
				<rect x="488.501" y="286.649" style="fill:#ECB220;" width="46.828" height="6.222"/>
				<rect x="488.501" y="302.93" style="fill:#9DC11E;" width="115.716" height="6.222"/>
				<rect x="488.501" y="319.211" style="fill:#1C77B5;" width="69.05" height="6.222"/>
				<rect x="488.501" y="335.492" style="fill:#E71C2E;" width="143.716" height="6.222"/>
				<rect x="488.501" y="351.773" style="fill:#ECB220;" width="45.05" height="6.222"/>
			</g>
			<polygon style="fill:#0E5EA0;" points="650.695,70.405 589.745,89.758 606.654,106.668 512.129,201.193 434.344,123.409 
				289.599,268.154 234.003,212.558 100.223,346.338 108.002,354.115 234.003,228.114 289.599,283.711 434.344,138.965 
				512.129,216.75 614.432,114.446 631.342,131.356 			"/>
			<g>
				<circle style="fill:#FFFFFF;" cx="234.003" cy="220.336" r="12.251"/>
				<g>
					<path style="fill:#FFFFFF;" d="M234.003,239.952c-10.816,0-19.616-8.8-19.616-19.617c0-10.817,8.8-19.616,19.616-19.616
						c10.816,0,19.616,8.8,19.616,19.616C253.619,231.153,244.819,239.952,234.003,239.952z M234.003,203.719
						c-9.162,0-16.616,7.454-16.616,16.616c0,9.162,7.454,16.617,16.616,16.617s16.616-7.454,16.616-16.617
						C250.619,211.174,243.165,203.719,234.003,203.719z"/>
				</g>
			</g>
			<g>
				
					<ellipse transform="matrix(1 -0.0042 0.0042 1 -1.1405 1.2127)" style="fill:#FFFFFF;" cx="289.558" cy="273.479" rx="12.251" ry="12.251"/>
				<g>
					<path style="fill:#FFFFFF;" d="M289.558,293.095c-10.816,0-19.616-8.8-19.616-19.617c0-10.816,8.8-19.616,19.616-19.616
						c10.816,0,19.616,8.8,19.616,19.616C309.174,284.296,300.375,293.095,289.558,293.095z M289.558,256.862
						c-9.162,0-16.616,7.454-16.616,16.616c0,9.163,7.454,16.617,16.616,16.617c9.162,0,16.616-7.454,16.616-16.617
						C306.174,264.317,298.72,256.862,289.558,256.862z"/>
				</g>
			</g>
			<g>
				<circle style="fill:#FFFFFF;" cx="431.98" cy="131.057" r="12.251"/>
				<g>
					<path style="fill:#FFFFFF;" d="M431.98,150.673c-10.816,0-19.616-8.8-19.616-19.617c0-10.816,8.8-19.616,19.616-19.616
						s19.616,8.8,19.616,19.616C451.597,141.873,442.797,150.673,431.98,150.673z M431.98,114.44
						c-9.162,0-16.616,7.454-16.616,16.616c0,9.163,7.454,16.617,16.616,16.617s16.616-7.454,16.616-16.617
						C448.597,121.894,441.143,114.44,431.98,114.44z"/>
				</g>
			</g>
			<g>
				
					<ellipse transform="matrix(0.1602 -0.9871 0.9871 0.1602 222.1025 676.8682)" style="fill:#FFFFFF;" cx="508.833" cy="207.909" rx="12.251" ry="12.251"/>
				<g>
					<path style="fill:#FFFFFF;" d="M508.833,227.526c-10.816,0-19.616-8.8-19.616-19.617c0-10.816,8.8-19.616,19.616-19.616
						c10.816,0,19.616,8.8,19.616,19.616C528.449,218.726,519.649,227.526,508.833,227.526z M508.833,191.293
						c-9.162,0-16.616,7.454-16.616,16.616c0,9.163,7.454,16.617,16.616,16.617c9.162,0,16.616-7.454,16.616-16.617
						C525.449,198.747,517.995,191.293,508.833,191.293z"/>
				</g>
			</g>
		</g>
		<g>
			<g>
				<path style="fill:#709632;" d="M460.542,359.514c-35.89,11.005-56.063,49.021-45.058,84.911l0,0h0
					C451.374,433.42,471.547,395.404,460.542,359.514L460.542,359.514L460.542,359.514z"/>
			</g>
			<path style="fill:#9DC11E;" d="M493.146,409.717c-30.982-15.129-68.362-2.277-83.491,28.705l0,0l0,0
				C440.637,453.55,478.017,440.699,493.146,409.717L493.146,409.717L493.146,409.717z"/>
		</g>
		<g>
			<g>
				<rect x="97.268" y="80.64" style="fill:#98D3E5;" width="149.333" height="176.62"/>
				<rect x="101.286" y="76.622" style="fill:#FFFFFF;" width="149.333" height="176.62"/>
			</g>
			<g>
				<g>
					<text transform="matrix(1 0 0 1 110.8482 96.8574)" style="fill:#0E5EA0; font-family:'Lato-Medium'; font-size:9.6629px;">Lorem Ipsum</text>
					<rect x="193.274" y="86.775" style="fill:#9DC11E;" width="48.889" height="12.94"/>
					<text transform="matrix(1 0 0 1 206.804 96.8574)" style="fill:#FFFFFF; font-family:'Lato-Medium'; font-size:9.6629px;">0.456</text>
					<polygon style="fill:#9DC11E;" points="182.661,93.418 178.735,89.492 174.809,93.418 176.829,93.418 176.829,96.997 
						180.64,96.997 180.64,93.418 					"/>
				</g>
				<rect x="111.703" y="105.71" style="fill:#D0EFF4;" width="130.46" height="1.629"/>
			</g>
			<g>
				<g>
					<text transform="matrix(1 0 0 1 110.8482 126.1053)" style="fill:#0E5EA0; font-family:'Lato-Medium'; font-size:9.6629px;">Solos Melor</text>
					<rect x="193.274" y="116.023" style="fill:#E71C2E;" width="48.889" height="12.94"/>
					<text transform="matrix(1 0 0 1 206.804 126.1053)" style="fill:#FFFFFF; font-family:'Lato-Medium'; font-size:9.6629px;">0.589</text>
					<polygon style="fill:#E71C2E;" points="174.809,122.319 178.735,126.245 182.661,122.319 180.64,122.319 180.64,118.74 
						176.829,118.74 176.829,122.319 					"/>
				</g>
				<rect x="111.703" y="134.958" style="fill:#D0EFF4;" width="130.46" height="1.629"/>
			</g>
			<g>
				<g>
					<text transform="matrix(1 0 0 1 110.8482 155.3533)" style="fill:#0E5EA0; font-family:'Lato-Medium'; font-size:9.6629px;">Tactor Juls</text>
					<rect x="193.274" y="145.271" style="fill:#E71C2E;" width="48.889" height="12.94"/>
					<text transform="matrix(1 0 0 1 206.804 155.3533)" style="fill:#FFFFFF; font-family:'Lato-Medium'; font-size:9.6629px;">0.785</text>
					<polygon style="fill:#E71C2E;" points="174.809,151.567 178.735,155.493 182.661,151.567 180.64,151.567 180.64,147.988 
						176.829,147.988 176.829,151.567 					"/>
				</g>
				<rect x="111.703" y="164.205" style="fill:#D0EFF4;" width="130.46" height="1.629"/>
			</g>
			<g>
				<g>
					<text transform="matrix(1 0 0 1 110.8482 184.6012)" style="fill:#0E5EA0; font-family:'Lato-Medium'; font-size:9.6629px;">Maere Prec</text>
					<rect x="193.274" y="174.519" style="fill:#9DC11E;" width="48.889" height="12.94"/>
					<text transform="matrix(1 0 0 1 206.804 184.6012)" style="fill:#FFFFFF; font-family:'Lato-Medium'; font-size:9.6629px;">0.214</text>
					<polygon style="fill:#9DC11E;" points="182.661,181.162 178.735,177.236 174.809,181.162 176.829,181.162 176.829,184.741 
						180.64,184.741 180.64,181.162 					"/>
				</g>
				<rect x="111.703" y="193.453" style="fill:#D0EFF4;" width="130.46" height="1.629"/>
			</g>
			<g>
				<g>
					<text transform="matrix(1 0 0 1 110.8482 213.8492)" style="fill:#0E5EA0; font-family:'Lato-Medium'; font-size:9.6629px;">Erent Querc</text>
					<rect x="193.274" y="203.767" style="fill:#9DC11E;" width="48.889" height="12.94"/>
					<text transform="matrix(1 0 0 1 206.804 213.8492)" style="fill:#FFFFFF; font-family:'Lato-Medium'; font-size:9.6629px;">0.255</text>
					<polygon style="fill:#9DC11E;" points="182.661,210.41 178.735,206.484 174.809,210.41 176.829,210.41 176.829,213.989 
						180.64,213.989 180.64,210.41 					"/>
				</g>
				<rect x="111.703" y="222.701" style="fill:#D0EFF4;" width="130.46" height="1.629"/>
			</g>
			<g>
				<g>
					<text transform="matrix(1 0 0 1 110.8482 243.0971)" style="fill:#0E5EA0; font-family:'Lato-Medium'; font-size:9.6629px;">Kosto Loset</text>
					<rect x="193.274" y="233.015" style="fill:#E71C2E;" width="48.889" height="12.94"/>
					<text transform="matrix(1 0 0 1 206.804 243.0971)" style="fill:#FFFFFF; font-family:'Lato-Medium'; font-size:9.6629px;">0.369</text>
					<polygon style="fill:#E71C2E;" points="174.809,239.311 178.735,243.237 182.661,239.311 180.64,239.311 180.64,235.732 
						176.829,235.732 176.829,239.311 					"/>
				</g>
			</g>
		</g>
		<g>
			<circle style="fill:#841849;" cx="217.921" cy="335.379" r="40.131"/>
			<path style="fill:#709632;" d="M252.879,355.081l-7.233-5.402l-58.852,1.285l-3.935,3.935
				c6.859,12.292,19.986,20.61,35.062,20.61C232.923,375.51,245.993,367.273,252.879,355.081z"/>
			<circle style="fill:#E71C2E;" cx="221.857" cy="331.443" r="40.131"/>
			<path style="fill:#1C77B5;" d="M221.857,331.443h40.131c0,5.114-0.977,10.181-2.88,14.927c-1.902,4.747-4.694,9.086-8.225,12.785
				L221.857,331.443z"/>
			<path style="fill:#9DC11E;" d="M221.857,331.443l29.232,27.495c-7.581,8.06-18.167,12.636-29.232,12.636
				c-14.542,0-27.989-7.904-35.063-20.609L221.857,331.443z"/>
			<g>
				<g>
					<path style="fill:#FF8B0D;" d="M221.857,331.443l10.123-38.833c8.592,2.24,16.203,7.269,21.632,14.295
						s8.376,15.659,8.376,24.538H221.857z"/>
					<polygon style="fill:#FF8B0D;" points="261.988,331.443 265.712,327.719 235.704,288.886 231.98,292.61 					"/>
				</g>
				<path style="fill:#ECB220;" d="M225.581,327.719l10.123-38.833c8.592,2.24,16.203,7.269,21.632,14.295
					c5.429,7.026,8.376,15.659,8.376,24.538H225.581z"/>
			</g>
		</g>
		<g>
			<g>
				<path style="fill:none;stroke:#C6711C;stroke-width:4;stroke-miterlimit:10;" d="M334.16,399.585h-28.672
					c-4.952,0-8.967-4.014-8.967-8.967v-11.953c0-4.952,4.015-8.967,8.967-8.967h28.672c4.952,0,8.967,4.015,8.967,8.967v11.953
					C343.127,395.57,339.112,399.585,334.16,399.585z"/>
				<rect x="265.935" y="383.393" style="fill:#8E5B2D;" width="105.842" height="60.16"/>
				<rect x="277.962" y="383.393" style="fill:#C6711C;" width="93.815" height="60.16"/>
				<rect x="277.962" y="411.18" style="fill:#8E5B2D;" width="93.815" height="2.293"/>
				<path style="fill:#8E5B2D;" d="M332.581,373.109h-25.482c-1.064,0-1.926-0.862-1.926-1.926v-3.407
					c0-1.064,0.862-1.926,1.926-1.926h25.482c1.064,0,1.926,0.862,1.926,1.926v3.407
					C334.506,372.247,333.644,373.109,332.581,373.109z"/>
			</g>
			<g>
				<g>
					<rect x="301.022" y="406.143" style="fill:#ECB220;" width="8.889" height="14.519"/>
					<rect x="303.189" y="406.143" style="fill:#FFEEA4;" width="8.889" height="14.519"/>
				</g>
				<g>
					<rect x="334.059" y="406.143" style="fill:#ECB220;" width="8.889" height="14.519"/>
					<rect x="336.226" y="406.143" style="fill:#FFEEA4;" width="8.889" height="14.519"/>
				</g>
			</g>
		</g>
		<g>
			<g>
				<g>
					<g>
						<g>
							
								<line style="fill:none;stroke:#252538;stroke-width:15;stroke-miterlimit:10;" x1="386.213" y1="272.636" x2="386.213" y2="443.344"/>
							<g>
								<g>
									<path style="fill:#294459;" d="M375.75,424.246l0.097,3.643c0,0-13.79,0.195-17.205,15.662l37.904-0.033l-0.606-19.45
										L375.75,424.246z"/>
								</g>
							</g>
						</g>
						<path style="fill:#252538;" d="M391.251,243.822h14.316c10.56,0,19.199,8.64,19.199,19.199v0c0,10.56-8.64,19.2-19.199,19.2
							h-14.316c-10.56,0-19.2-8.64-19.2-19.2v0C372.051,252.462,380.691,243.822,391.251,243.822z"/>
						<g>
							
								<line style="fill:none;stroke:#252538;stroke-width:15;stroke-miterlimit:10;" x1="409.654" y1="272.636" x2="409.654" y2="443.344"/>
							<g>
								<g>
									<path style="fill:#3E5C70;" d="M399.191,424.158l0.097,3.732c0,0-13.79,0.195-17.205,15.662l37.904-0.033l-0.606-19.539
										L399.191,424.158z"/>
								</g>
							</g>
						</g>
					</g>
					<g>
						<g>
							<g>
								<path style="fill:#FFFFFF;" d="M422.868,259.688h-51.83v-61.237c0-14.184,11.498-25.682,25.682-25.682h0.465
									c14.184,0,25.682,11.498,25.682,25.682V259.688z"/>
							</g>
							<path style="fill:#E33E44;" d="M391.086,219.462c1.626,4.541,6.36,14.518,6.36,14.518s3.272-5.97,6.338-14.253l-6.529-30.374
								L391.086,219.462z"/>
							<g>
								<path style="fill:#3E5C70;" d="M434.262,181.946l-24.957-10.63c1.652,5.162,8.778,22.229-11.863,54.094l-0.006-0.043
									l-0.006,0.043c-19.919-29.263-13.516-48.932-11.863-54.094l-24.957,10.63c0,0-0.247,19.974,9.026,46.368l-0.11,38.397
									h20.509h2.882l3.983-4.421l4.778,4.421h3.159h20.509l-0.11-38.397C434.509,201.92,434.262,181.946,434.262,181.946z"/>
							</g>
							<g>
								<path style="fill:#365363;" d="M395.659,263.668c-1.53,1.096-3.124,2.117-4.791,3.044h2.049L395.659,263.668z"/>
								<path style="fill:#365363;" d="M401.677,266.712h3.159h20.509l-0.11-38.398c3.097-8.814,5.128-16.904,6.465-23.782
									l-3.038-3.813c0,0-5.86,42.013-31.492,61.822L401.677,266.712z"/>
							</g>
							<path style="fill:#E33E44;" d="M404.69,183.86c-4.007-4.007-10.503-4.007-14.51,0l0,0l7.255,7.255L404.69,183.86
								L404.69,183.86z"/>
							<path style="fill:#A56F62;" d="M409.111,174.836c0-26.836-5.24-12.89-11.704-12.89s-11.704-12.216-11.704,12.89
								c0,9.405,5.24,8.593,11.704,8.593S409.111,184.241,409.111,174.836z"/>
							<path style="fill:#8C5C53;" d="M385.947,166.996c1.102-14.366,5.814-5.05,11.46-5.05c6.259,0,11.37-13.075,11.688,10.457
								C399.094,175.673,391.335,171.878,385.947,166.996z"/>
							<path style="fill:#E8E8F9;" d="M412.946,177.469c-1.608-5.282-3.904-6.89-3.904-6.89s-3.056,6.873-11.606,9.102
								c-8.551-2.229-11.606-9.102-11.606-9.102s-2.297,1.608-3.904,6.89s2.603,11.866,2.603,11.866l12.908-5.893l12.908,5.893
								C410.343,189.335,414.553,182.751,412.946,177.469z"/>
						</g>
						<g>
							<g>
								<path style="fill:#252538;" d="M397.435,84.779c1.873,0,3.574,2.123,5.376,2.38c1.847,0.263,4.074-1.293,5.827-0.779
									c1.784,0.523,2.817,3.04,4.484,3.802c1.685,0.771,4.263-0.091,5.809,0.904c1.555,1.001,1.836,3.707,3.228,4.914
									c1.394,1.209,4.112,1.105,5.321,2.5c1.207,1.392,0.72,4.067,1.721,5.621c0.995,1.545,3.633,2.208,4.404,3.894
									c0.762,1.667-0.459,4.094,0.064,5.878c0.514,1.753,2.857,3.135,3.12,4.982c0.257,1.802-1.6,3.785-1.6,5.658
									c0,1.873,1.857,3.856,1.6,5.658c-0.263,1.847-2.606,3.229-3.12,4.982c-0.523,1.784,0.698,4.212-0.064,5.879
									c-0.771,1.685-3.409,2.348-4.404,3.894c-1.001,1.555-0.514,4.23-1.721,5.621c-1.209,1.394-3.927,1.29-5.321,2.499
									c-1.392,1.207-1.673,3.912-3.228,4.913c-1.545,0.995-4.123,0.133-5.809,0.904c-1.667,0.762-2.7,3.279-4.483,3.802
									c-1.753,0.514-3.98-1.042-5.827-0.779c-1.802,0.257-3.503,2.38-5.376,2.38c-1.873,0-3.574-2.123-5.376-2.38
									c-1.847-0.263-4.074,1.293-5.827,0.779c-1.784-0.523-2.817-3.04-4.484-3.803c-1.685-0.771-4.263,0.091-5.809-0.904
									c-1.555-1.001-1.836-3.707-3.228-4.913c-1.394-1.209-4.112-1.105-5.321-2.5c-1.207-1.391-0.72-4.066-1.721-5.621
									c-0.995-1.545-3.633-2.208-4.404-3.894c-0.762-1.667,0.459-4.094-0.064-5.878c-0.514-1.753-2.857-3.135-3.12-4.982
									c-0.257-1.802,1.6-3.785,1.6-5.658c0-1.873-1.857-3.856-1.6-5.658c0.263-1.847,2.606-3.229,3.12-4.982
									c0.523-1.784-0.698-4.212,0.064-5.879c0.771-1.685,3.409-2.349,4.405-3.894c1.001-1.555,0.514-4.23,1.721-5.621
									c1.209-1.394,3.927-1.29,5.321-2.499c1.391-1.207,1.673-3.912,3.228-4.913c1.545-0.995,4.123-0.133,5.809-0.904
									c1.667-0.762,2.7-3.279,4.483-3.802c1.753-0.514,3.98,1.042,5.827,0.779C393.861,86.902,395.562,84.779,397.435,84.779z"/>
							</g>
							<g>
								<path style="fill:#252538;" d="M374.077,135.404h45.232v-5.507c0-12.019-9.743-21.761-21.761-21.761h-1.71
									c-12.019,0-21.762,9.743-21.762,21.762V135.404z"/>
								<path style="fill:#8C5C53;" d="M373.405,140.495h46.677c2.042,0,3.697-1.655,3.697-3.698l0,0
									c0-2.042-1.655-3.698-3.697-3.698h-46.677c-2.042,0-3.698,1.656-3.698,3.698l0,0
									C369.708,138.839,371.363,140.495,373.405,140.495z"/>
								<path style="fill:#AA635F;" d="M421.844,136.797L421.844,136.797c0-0.973-0.789-1.762-1.762-1.762h-46.677
									c-0.973,0-1.762,0.789-1.762,1.762l0,0c0,0.973,0.789,1.762,1.762,1.762h46.677
									C421.055,138.559,421.844,137.77,421.844,136.797z"/>
								<path style="fill:#A56F62;" d="M396.744,168.466L396.744,168.466c11.399,0,20.64-9.241,20.64-20.64v-19.593
									c0-10.929-8.859-19.788-19.788-19.788h-1.704c-10.928,0-19.788,8.859-19.788,19.788v19.593
									C376.104,159.226,385.345,168.466,396.744,168.466z"/>
								<g>
									<path style="fill:#252538;" d="M391.437,147.889c2.215-0.451,5.301-1.234,8.189-2.497c1.899-0.831,3.694,1.549,2.768,3.707
										c-0.986,2.296-2.804,4.488-6.158,4.937c-2.749,0.368-4.543-0.279-5.714-1.251
										C388.865,151.41,389.463,148.291,391.437,147.889z"/>
									<path style="fill:#FF9292;" d="M396.236,154.036c3.354-0.449,5.172-2.641,6.158-4.937c0.139-0.324,0.21-0.651,0.235-0.973
										c-1.221-0.485-2.825-0.631-4.94-0.068c-3.268,0.87-4.777,3.271-5.446,5.67c-0.001,0.005-0.001,0.009-0.003,0.014
										C393.276,154.107,394.58,154.258,396.236,154.036z"/>
									<path style="fill:#FFABAB;" d="M394.502,151.359c0.357,0.553,1.626,0.403,2.834-0.335c1.209-0.739,1.899-1.786,1.542-2.339
										c-0.357-0.553-1.626-0.403-2.835,0.335C394.835,149.759,394.145,150.806,394.502,151.359z"/>
									<path style="fill:#FFFFFF;" d="M391.437,147.889c2.215-0.451,5.301-1.234,8.189-2.497c1.166-0.51,2.291,0.193,2.772,1.309
										c-1.656,1.618-4.234,2.983-7.285,3.68c-1.956,0.447-3.857,0.56-5.548,0.39
										C389.497,149.475,390.193,148.142,391.437,147.889z"/>
								</g>
								<path style="fill:#252538;" d="M394.034,107.806h5.319c11.022,0,19.957,8.935,19.957,19.957v1.511
									c0,0.159-0.006,0.316-0.019,0.471c-0.241,2.99-4.762,2.714-4.762-0.287v-0.728c0-5.3-4.296-9.596-9.596-9.596h-16.479
									c-5.3,0-9.596,4.296-9.596,9.596v0.728c0,3-4.521,3.277-4.762,0.287c-0.012-0.155-0.019-0.313-0.019-0.471v-1.511
									C374.077,116.741,383.012,107.806,394.034,107.806z"/>
								<g>
									<path style="fill:#8C5C53;" d="M402.342,132.389h4.56c1.038,0,1.879,0.841,1.879,1.88c0,1.038-0.841,1.879-1.879,1.879
										h-4.56c-1.038,0-1.88-0.841-1.88-1.879C400.462,133.23,401.304,132.389,402.342,132.389z"/>
									<path style="fill:#8C5C53;" d="M381.846,132.389h4.56c1.038,0,1.88,0.841,1.88,1.88c0,1.038-0.842,1.879-1.88,1.879h-4.56
										c-1.038,0-1.88-0.841-1.88-1.879C379.966,133.23,380.808,132.389,381.846,132.389z"/>
								</g>
								<g>
									<path style="fill:#252538;" d="M403.576,131.853c1.334,0,2.415,1.082,2.415,2.416c0,1.334-1.082,2.415-2.415,2.415
										c-1.334,0-2.416-1.081-2.416-2.415C401.16,132.934,402.242,131.853,403.576,131.853z"/>
									<path style="fill:#252538;" d="M385.273,131.853c1.334,0,2.416,1.082,2.416,2.416c0,1.334-1.082,2.415-2.416,2.415
										c-1.334,0-2.416-1.081-2.416-2.415C382.857,132.934,383.939,131.853,385.273,131.853z"/>
								</g>
								<g>
									<path style="fill:#252538;" d="M382.097,127.413l4.187-1.319c0.918-0.289,1.896,0.22,2.185,1.138
										c0.289,0.918-0.221,1.896-1.138,2.185l-4.187,1.319c-0.918,0.289-1.896-0.221-2.185-1.138
										C380.67,128.681,381.18,127.702,382.097,127.413z"/>
									<path style="fill:#252538;" d="M404.288,126.094l4.187,1.319c0.918,0.289,1.427,1.267,1.138,2.185
										c-0.289,0.918-1.267,1.427-2.185,1.138l-4.187-1.319c-0.918-0.289-1.427-1.267-1.138-2.185
										C402.392,126.315,403.37,125.805,404.288,126.094z"/>
								</g>
								<path style="fill:#8C5C53;" d="M392.235,158.71c0.335,1.042,2.624,1.239,5.115,0.44c2.49-0.799,4.237-2.292,3.903-3.335
									c-0.335-1.042-2.625-1.239-5.115-0.44C393.648,156.175,391.901,157.668,392.235,158.71z"/>
								<g>
									<path style="fill:#D88D87;" d="M394.009,144.302L394.009,144.302c1.899,0,3.438-1.539,3.438-3.438v-5.574
										c0-1.899-1.539-3.438-3.438-3.438l0,0c-1.898,0-3.438,1.539-3.438,3.438v5.574
										C390.572,142.763,392.111,144.302,394.009,144.302z"/>
									<path style="fill:#F79C97;" d="M392.184,142.351L392.184,142.351c0.502,0,0.908-0.407,0.908-0.908v-6.453
										c0-0.502-0.406-0.908-0.908-0.908l0,0c-0.501,0-0.908,0.407-0.908,0.908v6.453
										C391.275,141.944,391.682,142.351,392.184,142.351z"/>
								</g>
							</g>
						</g>
					</g>
				</g>
				<path style="fill:none;stroke:#3E5C70;stroke-width:15;stroke-miterlimit:10;" d="M367.849,185.967
					c-29.179,59.576-78.613,59.042-78.613,59.042"/>
				<g>
					<path style="fill:#A56F62;" d="M296.668,250.919c6.427-5.759-3.494-13.445-3.494-13.445l-2.122-8.504
						c0,0-7.492,2.219-3.992,9.225c0,0-9.819-5.082-14.329-3.456c-2.118,0.763-6.085,8.551-6.052,13.243
						c0.007,0.995,0.827,1.781,1.821,1.748c2.388-0.079,7.155,0.234,10.952,3.443C284.743,257.645,294.158,260.657,296.668,250.919z
						"/>
					<path style="fill:#8C5C53;" d="M287.06,238.195c0,0-3.312,5.501,1.923,10.839c0,0-3.785-5.501-1.481-10.605L287.06,238.195z"/>
					<path style="fill:#8C5C53;" d="M281.965,249.939c0,0,0.035-5.205,2.684-9.691C284.65,240.248,279.582,242.676,281.965,249.939z
						"/>
					<g>
						<path style="fill:#8C5C53;" d="M282.036,247.967l-0.04-0.422c0,0-8.32-2.949-15.263-0.602
							c-0.014,0.147-0.026,0.292-0.034,0.434C269.409,246.768,275.935,245.72,282.036,247.967z"/>
						<path style="fill:#8C5C53;" d="M283.098,242.194l0.418-0.543c0,0-7.068-5.293-13.559-3.757
							c-0.843,1.425-1.657,3.175-2.263,4.943c2.108-0.417,8.433-1.242,14.414,2.239l0.216-0.48c0,0-7.092-5.35-14.142-2.639
							l1.439-3.449C269.621,238.507,276.621,237.102,283.098,242.194z"/>
					</g>
				</g>
			</g>
			<g>
				<g>
					<path style="fill:#FFEEA4;" d="M283.689,234.809l38.97,30.702c1.06,0.836,2.612,0.653,3.448-0.407l5.962-7.558
						c0.836-1.06,0.653-2.612-0.407-3.448l-38.97-30.702c-1.06-0.836-2.612-0.653-3.448,0.407l-5.962,7.558
						C282.446,232.422,282.629,233.973,283.689,234.809z"/>
					<path style="fill:#ECB220;" d="M322.659,265.512l-38.97-30.702c-1.06-0.836-1.243-2.388-0.407-3.448l2.124-2.692
						c0.836-1.06,2.388-1.243,3.448-0.407l38.97,30.702c1.06,0.836,1.243,2.388,0.407,3.448l-2.124,2.692
						C325.27,266.165,323.719,266.348,322.659,265.512z"/>
					<path style="fill:#FF8B0D;" d="M293.326,227.024c0.836-1.06,2.388-1.243,3.448-0.407l6.882,5.422
						c-1.298,2.005-2.696,3.97-4.205,5.883c-1.528,1.937-3.134,3.777-4.805,5.525l-6.875-5.417c-1.06-0.836-1.243-2.388-0.407-3.448
						L293.326,227.024z"/>
					<path style="fill:#FF8B0D;" d="M333.964,245.16c-2.299-1.814-5.664-1.417-7.478,0.883l-12.931,16.391
						c-1.814,2.299-1.417,5.664,0.882,7.478l84.517,66.586c2.299,1.814,5.664,1.417,7.478-0.882l12.931-16.391
						c1.814-2.299,1.417-5.664-0.882-7.478"/>
					<path style="fill:#C6711C;" d="M313.556,262.433l4.202-5.326c-1.814,2.299-1.417,5.664,0.883,7.478l84.517,66.586
						c2.299,1.814,5.664,1.417,7.478-0.883l-4.202,5.327c-1.814,2.299-5.179,2.696-7.478,0.882l-84.517-66.586
						C312.139,268.097,311.742,264.732,313.556,262.433z"/>
					<path style="fill:#ECB220;" d="M283.329,122.195c-35.067-27.664-85.92-21.662-113.583,13.405s-21.662,85.92,13.404,113.583
						c35.067,27.664,85.92,21.662,113.583-13.404C324.397,200.712,318.396,149.859,283.329,122.195z M241.166,252.849
						c-37.091,4.377-70.708-22.143-75.086-59.234c-4.377-37.091,22.143-70.709,59.234-75.086
						c37.091-4.377,70.708,22.143,75.086,59.234S278.257,248.471,241.166,252.849z"/>
					<path style="fill:#FF8B0D;" d="M224.721,113.499c-39.869,4.705-68.375,40.84-63.67,80.709
						c4.705,39.869,40.84,68.375,80.709,63.67c39.869-4.705,68.375-40.84,63.67-80.709
						C300.724,137.3,264.59,108.794,224.721,113.499z M241.166,252.849c-37.091,4.377-70.708-22.143-75.086-59.234
						c-4.377-37.091,22.143-70.709,59.234-75.086c37.091-4.377,70.708,22.143,75.086,59.234S278.257,248.471,241.166,252.849z"/>
					<path style="fill:#ECB220;" d="M326.487,246.042c0.32-0.405,0.69-0.748,1.091-1.034l92.508,72.978
						c-0.181,0.434-0.418,0.851-0.722,1.237l-1.471,1.865l-92.834-73.235L326.487,246.042z"/>
				</g>
			</g>
			<g>
				<path style="fill:none;stroke:#3E5C70;stroke-width:15;stroke-miterlimit:10;" d="M358.682,284.71
					c80.209-10.418,84.254-72.825,67.764-98.725"/>
				<g>
					<g>
						<path style="fill:#A56F62;" d="M363.99,284.519c3.717-6.777-6.95-10.32-6.95-10.32l-4.322-6.554c0,0-5.67,4.103-0.63,8.981
							c0,0-6.987-0.035-11.179-3.154c-5.117-3.808-5.787,11.22-1.972,16.454c2.072,2.843,6.875,0.762,11.038,2.344
							C355.775,294.475,364.766,293.493,363.99,284.519z"/>
					</g>
					<g>
						<path style="fill:#8C5C53;" d="M349.939,284.416l-0.005,0.57c0,0-7.494,0.847-13.234-1.773
							c-0.043-0.343-0.082-0.686-0.11-1.031C338.794,283.449,343.104,285.111,349.939,284.416z"/>
						<path style="fill:#8C5C53;" d="M349.59,288.627c0,0-6.75,0.836-11.644-0.498c-0.136-0.32-0.261-0.656-0.379-1.002
							c2.074,0.611,6.362,1.528,12.043,0.89L349.59,288.627z"/>
						<path style="fill:#8C5C53;" d="M350.287,280.533c0,0-7.615,1.098-13.592-3.259c0.069-0.479,0.157-0.933,0.263-1.356
							c2.285,1.772,6.67,4.258,13.309,4.223L350.287,280.533z"/>
					</g>
				</g>
			</g>
		</g>
		<rect x="59.639" y="442.841" style="fill:#579BAA;" width="630.722" height="3.161"/>
	</g>
</g>
</svg>
