<?xml version="1.0" encoding="utf-8"?>
<!-- Generator: Adobe Illustrator 27.5.0, SVG Export Plug-In . SVG Version: 6.00 Build 0)  -->
<svg version="1.1" xmlns="http://www.w3.org/2000/svg" xmlns:xlink="http://www.w3.org/1999/xlink" x="0px" y="0px"
	 viewBox="0 0 750 500" style="enable-background:new 0 0 750 500;" xml:space="preserve">
<g id="BACKGROUND">
	<rect style="fill:#FFFFFF;" width="750" height="500"/>
</g>
<g id="OBJECTS">
	<g>
		<g>
			<path style="fill:#852424;" d="M176.077,227.123c2.425-0.348,4.849-0.695,7.274-1.042c-2.351-2.37-3.922-5.502-4.415-8.803
				c-0.231-1.549-0.238-3.154-0.792-4.619c-0.555-1.465-1.862-2.805-3.427-2.763c0.881-0.753,0.843-2.211,0.191-3.17
				c-0.652-0.959-1.749-1.511-2.835-1.916c-5.79-2.157-12.684-1.023-17.478,2.874c0.576-0.597,1.034-1.374,1.007-2.204
				c-0.027-0.829-0.679-1.665-1.508-1.674c-0.833-0.009-1.452,0.728-1.981,1.372c-2.264,2.761-5.175,4.988-8.432,6.452
				c-2.809,1.262-5.925,1.998-8.319,3.935c-2.031,1.644-3.302,4.611-2.46,6.935c-2.096,1.511-3.103,4.587-2.659,7.257
				c0.561,3.377,2.756,6.217,4.826,8.944c2.07,2.727,4.159,5.688,4.444,9.099c0.259,3.088-1.021,6.118-2.726,8.705
				c3.002,0.17,6.051-0.636,8.576-2.268c-0.231,2.161-0.952,4.268-2.092,6.118c4.844,0.154,10.342,0.048,13.616-3.525
				c0.592-0.647,1.128-1.418,1.951-1.722c0.675-0.25,1.428-0.136,2.138-0.258c2.648-0.456,3.58-3.658,4.64-6.128
				c1.415-3.298,3.889-6.005,5.903-8.975c2.013-2.971,3.627-6.535,2.958-10.06c-0.122-0.644-0.302-1.373,0.08-1.905
				C174.889,227.32,175.514,227.203,176.077,227.123z"/>
		</g>
		<g>
			<g>
				<path style="fill:#ADD481;" d="M398.799,331.415c-0.679-0.416-1.647-0.41-2.474-0.258c-1.082,0.198-2.257,0.524-3.232,0.017
					c0.962-1.771,3.004-2.895,5.015-2.761c0.263,0.018,0.537,0.053,0.784-0.04c0.393-0.149,0.595-0.572,0.76-0.959
					c0.037-0.545,0.04-1.092-0.007-1.64c-0.136-1.602-0.731-3.201-1.741-4.43c-2.019,0.285-3.175,3.493-5.389,3.715
					c-0.599-1.059,0.469-2.251,1.378-3.06c0.738-0.656,1.451-1.735,1.225-2.571c-1.562-0.504-3.24-0.345-4.9,0.179
					c-0.621,0.523-1.114,1.193-1.389,1.958c-0.814,2.271,0.005,5.293-1.87,6.811c-0.4,0.324-1.076,0.487-1.369,0.064
					c-0.141-0.203-0.133-0.471-0.115-0.718c0.112-1.479,0.433-2.943,0.951-4.333c0.134-0.359,0.283-0.742,0.196-1.115
					c-0.073-0.312-0.306-0.547-0.594-0.692c-0.405,0.244-0.802,0.494-1.185,0.746c-1.397,0.918-2.788,1.868-4.162,2.847
					c-0.656,1.351-0.764,2.959,0.06,4.183c0.447,0.663,1.11,1.147,1.641,1.746c0.53,0.599,0.94,1.416,0.712,2.183
					c-0.218,0.733-0.937,1.184-1.613,1.541c-0.608,0.321-1.407,0.606-1.932,0.16c-0.295-0.25-0.394-0.657-0.464-1.037
					c-0.232-1.262-0.315-2.552-0.247-3.833c0.037-0.695,0.112-1.426-0.181-2.057c-0.163-0.352-0.494-0.638-0.855-0.762
					c-1.702,1.308-3.354,2.678-4.927,4.118c-0.236,0.667-0.283,1.368,0.034,1.99c0.205,0.402,0.537,0.721,0.864,1.031
					c0.754,0.718,1.507,1.436,2.261,2.154c0.537,0.512,1.123,1.177,0.941,1.896c-0.076,0.301-0.279,0.55-0.476,0.79
					c-0.57,0.693-1.323,1.457-2.206,1.299c-0.716-0.128-1.176-0.821-1.481-1.481c-0.417-0.904-0.706-1.867-0.853-2.852
					c-0.132-0.878-0.199-1.869-0.864-2.458c-0.124-0.11-0.267-0.187-0.418-0.248c-1.275,1.294-2.477,2.646-3.591,4.061
					c-0.145,0.617-0.145,1.26,0.078,1.85c0.05,0.132,0.112,0.263,0.213,0.363c0.168,0.166,0.414,0.218,0.643,0.277
					c0.904,0.231,1.751,0.681,2.45,1.3c0.153,0.136,0.305,0.288,0.366,0.483c0.11,0.35-0.097,0.714-0.295,1.023
					c-0.243,0.379-0.494,0.765-0.848,1.042c-0.354,0.278-0.839,0.431-1.263,0.281c-0.465-0.164-0.74-0.634-0.957-1.077
					c-0.298-0.609-0.56-1.236-0.784-1.877c-0.177-0.507-0.406-1.097-0.925-1.235c-0.15-0.04-0.304-0.034-0.455-0.003
					c-0.983,1.452-1.864,2.971-2.635,4.559c-0.013,0.164-0.005,0.33,0.073,0.473c0.082,0.15,0.231,0.249,0.373,0.343
					c0.607,0.4,1.215,0.8,1.822,1.2c0.566,0.372,1.161,0.779,1.429,1.401c0.268,0.622,0.028,1.509-0.631,1.668
					c-0.519,0.125-1.023-0.234-1.406-0.605c-0.548-0.53-1.027-1.13-1.422-1.782c-0.186-0.307-0.378-0.647-0.709-0.785
					c-0.126-0.052-0.251-0.062-0.375-0.052c-0.521,1.258-0.969,2.54-1.348,3.845c0.431,0.369,1.053,0.556,1.583,0.812
					c0.859,0.415,1.577,1.117,2.012,1.966c0.104,0.203,0.194,0.422,0.194,0.651c0,0.752-0.981,1.161-1.697,0.931
					c-0.716-0.23-1.229-0.841-1.781-1.352c-0.272-0.251-0.589-0.488-0.927-0.641c-0.145,0.63-0.273,1.264-0.393,1.9
					c1.243,0.246,2.403,0.94,3.145,1.97c0.141,0.195,0.272,0.415,0.269,0.656c-0.005,0.405-0.405,0.718-0.808,0.763
					c-0.402,0.045-0.798-0.111-1.166-0.28c-0.622-0.285-1.22-0.622-1.794-0.996c-0.109,0.744-0.206,1.49-0.288,2.238
					c0.638,0.135,1.271,0.296,1.887,0.509c0.436,0.151,0.887,0.337,1.172,0.7c0.284,0.363,0.327,0.955-0.028,1.25
					c-0.208,0.172-0.494,0.207-0.764,0.219c-0.839,0.04-1.683-0.064-2.489-0.3c-0.038,0.495-0.071,0.991-0.101,1.486
					c0.465,0.125,0.93,0.249,1.395,0.374c0.36,0.096,0.739,0.204,0.997,0.473c0.454,0.475,0.324,1.32-0.165,1.759
					c-0.489,0.439-1.219,0.52-1.859,0.37c-0.171-0.04-0.337-0.096-0.5-0.161c-0.111,2.735-0.304,5.565-1.84,7.798l2.523,0.715
					c1.871-2.075,3.868-4.021,5.935-5.893c-0.361-0.527-0.569-1.145-0.164-1.579c0.451-0.484,1.162-0.227,1.77,0.149
					c0.437-0.382,0.876-0.761,1.318-1.138c-0.069-0.027-0.138-0.055-0.204-0.078c-0.736-0.26-1.549-1.142-0.976-1.673
					c0.306-0.284,0.794-0.185,1.19-0.052c0.492,0.165,0.973,0.359,1.447,0.572c0.605-0.506,1.213-1.009,1.822-1.51
					c-0.233-0.272-0.484-0.537-0.704-0.805c-0.634-0.774-0.871-2.207,0.066-2.56c0.718-0.271,1.439,0.396,1.829,1.056
					c0.173,0.293,0.343,0.61,0.542,0.893c0.816-0.664,1.633-1.328,2.449-1.992c-0.266-0.431-0.654-0.802-1.087-1.069
					c-0.542-0.335-1.212-0.612-1.42-1.215c-0.35-1.012,1.015-1.888,2.057-1.641c1.042,0.247,1.815,1.095,2.712,1.68
					c0.089,0.058,0.185,0.11,0.282,0.161c0.877-0.725,1.748-1.456,2.612-2.195c-0.169-0.268-0.382-0.51-0.631-0.69
					c-0.863-0.62-1.96-0.779-2.971-1.108c-0.271-0.088-0.558-0.206-0.703-0.452c-0.209-0.355-0.025-0.822,0.261-1.118
					c0.725-0.753,1.949-0.783,2.934-0.433c0.985,0.35,1.828,1.005,2.751,1.495c0.208,0.111,0.426,0.211,0.649,0.298
					c0.994-0.892,1.975-1.803,2.934-2.736c-0.327-0.211-0.722-0.335-1.107-0.428c-1.032-0.25-2.082-0.425-3.139-0.523
					c-0.24-0.022-0.489-0.044-0.696-0.167c-0.818-0.487-0.103-1.828,0.81-2.099c1.207-0.358,2.489,0.099,3.665,0.547
					c0.794,0.302,1.638,0.599,2.472,0.65c0.888-0.926,1.75-1.875,2.582-2.846c-0.042-0.074-0.089-0.145-0.147-0.213
					c-0.611-0.715-1.704-0.663-2.644-0.655c-0.94,0.008-2.097-0.259-2.337-1.169c-0.297-1.124,1.154-1.969,2.311-1.858
					c1.157,0.111,2.263,0.719,3.419,0.597c1.459-0.154,2.527-1.397,3.436-2.549c0.165-0.21,0.34-0.445,0.327-0.712
					c-0.021-0.428-0.491-0.672-0.9-0.799c-1.039-0.324-2.134-0.466-3.222-0.418c-0.44,0.019-0.987,0.014-1.188-0.378
					c-0.087-0.169-0.079-0.371-0.048-0.559c0.08-0.475,0.305-0.924,0.638-1.271c0.927-0.968,2.454-1.002,3.779-0.798
					c1.168,0.18,2.372,0.488,3.52,0.292c0.386-0.818,0.753-1.646,1.08-2.495C398.522,332.221,398.663,331.819,398.799,331.415z"/>
			</g>
			<g>
				<g>
					<path style="fill:#92B36C;" d="M319.061,326.746c0.75-0.267,1.696-0.061,2.474,0.258c1.018,0.417,2.1,0.979,3.159,0.684
						c-0.576-1.932-2.341-3.453-4.336-3.737c-0.261-0.037-0.537-0.059-0.759-0.201c-0.353-0.227-0.464-0.683-0.546-1.095
						c0.076-0.541,0.187-1.077,0.345-1.604c0.464-1.539,1.376-2.981,2.618-3.975c1.916,0.695,2.386,4.074,4.506,4.747
						c0.805-0.913,0.006-2.299-0.717-3.278c-0.587-0.795-1.061-1.997-0.668-2.768c1.632-0.171,3.241,0.332,4.758,1.187
						c0.499,0.639,0.844,1.397,0.954,2.202c0.328,2.39-1.098,5.178,0.424,7.05c0.324,0.399,0.953,0.699,1.326,0.346
						c0.18-0.17,0.228-0.434,0.26-0.679c0.196-1.471,0.184-2.969-0.036-4.436c-0.057-0.379-0.124-0.785,0.039-1.132
						c0.136-0.29,0.412-0.472,0.724-0.555c0.346,0.323,0.683,0.649,1.006,0.975c1.177,1.187,2.342,2.403,3.485,3.645
						c0.363,1.458,0.136,3.053-0.923,4.08c-0.574,0.557-1.323,0.893-1.966,1.369c-0.643,0.476-1.212,1.192-1.148,1.989
						c0.062,0.762,0.672,1.352,1.26,1.841c0.529,0.44,1.252,0.883,1.857,0.556c0.34-0.184,0.521-0.561,0.668-0.918
						c0.488-1.187,0.835-2.432,1.033-3.7c0.107-0.688,0.185-1.418,0.602-1.975c0.232-0.31,0.615-0.522,0.994-0.569
						c1.396,1.631,2.729,3.313,3.971,5.047c0.093,0.701-0.005,1.397-0.444,1.94c-0.283,0.35-0.674,0.594-1.058,0.831
						c-0.886,0.547-1.771,1.094-2.657,1.641c-0.631,0.39-1.342,0.92-1.312,1.661c0.012,0.31,0.159,0.596,0.302,0.871
						c0.415,0.795,0.993,1.699,1.89,1.727c0.727,0.022,1.321-0.561,1.755-1.144c0.595-0.798,1.076-1.681,1.424-2.614
						c0.311-0.832,0.581-1.787,1.353-2.227c0.143-0.082,0.3-0.127,0.46-0.157c0.98,1.53,1.878,3.1,2.676,4.715
						c0.014,0.634-0.119,1.262-0.458,1.794c-0.076,0.119-0.164,0.234-0.283,0.311c-0.199,0.128-0.45,0.128-0.687,0.138
						c-0.932,0.04-1.854,0.305-2.666,0.766c-0.178,0.101-0.358,0.219-0.458,0.397c-0.18,0.32-0.053,0.719,0.078,1.062
						c0.16,0.421,0.325,0.85,0.615,1.195c0.289,0.345,0.732,0.595,1.178,0.536c0.489-0.065,0.855-0.467,1.158-0.856
						c0.417-0.535,0.803-1.094,1.155-1.674c0.278-0.459,0.624-0.989,1.16-1.018c0.155-0.008,0.304,0.029,0.446,0.091
						c0.662,1.623,1.211,3.292,1.638,5.005c-0.022,0.163-0.063,0.324-0.169,0.447c-0.112,0.129-0.277,0.196-0.436,0.259
						c-0.677,0.266-1.353,0.532-2.03,0.798c-0.63,0.248-1.297,0.523-1.688,1.076c-0.391,0.553-0.339,1.471,0.273,1.762
						c0.482,0.229,1.049-0.018,1.501-0.302c0.645-0.405,1.238-0.894,1.759-1.45c0.246-0.262,0.503-0.555,0.856-0.621
						c0.134-0.025,0.259-0.008,0.378,0.027c0.25,1.338,0.424,2.686,0.525,4.04c-0.498,0.272-1.145,0.327-1.717,0.468
						c-0.927,0.229-1.774,0.767-2.375,1.508c-0.144,0.178-0.277,0.373-0.324,0.597c-0.155,0.736,0.72,1.339,1.468,1.262
						c0.748-0.077,1.376-0.569,2.022-0.955c0.318-0.19,0.677-0.356,1.039-0.436c0.012,0.646,0.007,1.293-0.008,1.94
						c-1.267-0.016-2.545,0.423-3.484,1.278c-0.178,0.162-0.352,0.35-0.399,0.586c-0.079,0.397,0.248,0.786,0.633,0.913
						c0.384,0.127,0.804,0.056,1.199-0.033c0.668-0.151,1.322-0.356,1.961-0.604c-0.047,0.75-0.107,1.5-0.18,2.25
						c-0.652,0-1.304,0.027-1.951,0.108c-0.458,0.058-0.937,0.147-1.291,0.443c-0.353,0.297-0.517,0.867-0.231,1.229
						c0.167,0.211,0.441,0.304,0.702,0.372c0.812,0.212,1.66,0.284,2.497,0.22c-0.065,0.493-0.135,0.984-0.208,1.475
						c-0.481,0.026-0.961,0.052-1.442,0.078c-0.372,0.02-0.765,0.047-1.073,0.257c-0.543,0.371-0.589,1.225-0.201,1.755
						c0.388,0.53,1.086,0.76,1.743,0.746c0.176-0.004,0.35-0.024,0.522-0.054c-0.456,2.699-0.852,5.508,0.19,8.01l-2.617,0.179
						c-1.402-2.417-2.954-4.733-4.591-6.991c0.462-0.441,0.793-1.003,0.487-1.511c-0.341-0.566-1.09-0.462-1.763-0.22
						c-0.349-0.464-0.701-0.926-1.055-1.386c0.073-0.012,0.146-0.025,0.216-0.034c0.774-0.103,1.751-0.798,1.301-1.436
						c-0.241-0.341-0.739-0.345-1.154-0.297c-0.516,0.06-1.027,0.15-1.534,0.261c-0.487-0.62-0.978-1.238-1.471-1.854
						c0.284-0.219,0.585-0.426,0.855-0.642c0.78-0.627,1.308-1.98,0.464-2.519c-0.646-0.413-1.489,0.09-2.008,0.655
						c-0.23,0.251-0.462,0.526-0.714,0.762c-0.661-0.818-1.324-1.636-1.985-2.455c0.349-0.367,0.806-0.65,1.284-0.822
						c0.6-0.216,1.312-0.349,1.64-0.896c0.551-0.918-0.603-2.057-1.674-2.03c-1.071,0.026-2.002,0.697-3,1.084
						c-0.099,0.038-0.204,0.069-0.309,0.099c-0.708-0.891-1.41-1.786-2.103-2.687c0.22-0.228,0.479-0.42,0.76-0.544
						c0.972-0.429,2.079-0.358,3.136-0.471c0.283-0.03,0.589-0.086,0.781-0.297c0.277-0.304,0.194-0.799-0.024-1.148
						c-0.554-0.886-1.745-1.168-2.781-1.029c-1.036,0.139-1.996,0.606-3,0.895c-0.226,0.065-0.461,0.118-0.697,0.158
						c-0.789-1.078-1.56-2.172-2.306-3.283c0.363-0.139,0.776-0.179,1.171-0.191c1.061-0.031,2.125,0.014,3.18,0.136
						c0.239,0.028,0.487,0.058,0.715-0.019c0.901-0.307,0.478-1.768-0.359-2.221c-1.107-0.599-2.455-0.417-3.699-0.221
						c-0.839,0.132-1.726,0.248-2.553,0.126c-0.678-1.09-1.325-2.196-1.938-3.318c0.056-0.063,0.117-0.124,0.188-0.178
						c0.745-0.574,1.804-0.296,2.723-0.094c0.919,0.202,2.105,0.179,2.528-0.661c0.522-1.038-0.722-2.165-1.877-2.295
						c-1.155-0.13-2.362,0.236-3.468-0.122c-1.396-0.452-2.184-1.889-2.836-3.203c-0.119-0.239-0.241-0.506-0.173-0.764
						c0.109-0.414,0.619-0.556,1.045-0.596c1.083-0.102,2.184-0.015,3.238,0.256c0.427,0.11,0.962,0.218,1.24-0.125
						c0.12-0.148,0.155-0.347,0.162-0.537c0.02-0.481-0.108-0.967-0.362-1.375c-0.707-1.138-2.195-1.487-3.533-1.561
						c-1.18-0.066-2.422-0.013-3.505-0.441c-0.209-0.88-0.397-1.766-0.541-2.664C319.165,327.592,319.109,327.169,319.061,326.746z"
						/>
				</g>
				<path style="fill:#668C61;" d="M348.581,373.175c-0.18-0.313-0.26-0.691-0.374-1.034c-0.04-0.097-0.039-0.206-0.075-0.304
					c-0.395-0.981-0.632-1.969-0.892-2.954c-0.391-1.312-0.724-2.628-1.072-3.947c-0.246-1.056-0.498-2.134-0.745-3.191
					c-0.306-1.18-0.596-2.376-1.028-3.52c-0.302-0.808-0.814-1.529-1.158-2.317c-0.353-0.78-0.618-1.6-0.955-2.39
					c-0.173-0.419-0.428-0.8-0.598-1.221c-0.392-0.953-0.766-1.919-1.174-2.87c-0.315-0.739-0.655-1.468-1.012-2.187
					c-0.336-0.675-0.693-1.34-1.057-2.001c-0.397-0.714-0.773-1.44-1.213-2.13c-0.697-1.107-1.552-2.123-2.257-3.225
					c-0.948-1.492-1.672-3.113-2.433-4.712c-0.522-1.105-1.015-2.227-1.514-3.343c-0.364-0.818-0.729-1.638-1.095-2.46
					c-0.032-0.078-0.077-0.188-0.12-0.293c-0.055-0.133-0.1-0.25-0.074-0.277c0.027-0.028,0.111,0.031,0.232,0.156
					c0.19,0.198,0.397,0.397,0.551,0.611c0.411,0.568,0.767,1.162,1.2,1.724c0.311,0.398,0.538,0.846,0.744,1.302
					c0.536,1.171,0.931,2.421,1.353,3.662c0.108,0.32,0.334,0.579,0.499,0.871l0.703,1.274c0.468,0.819,0.946,1.633,1.392,2.464
					c0.284,0.553,0.571,1.112,0.854,1.665c0.138,0.253,0.312,0.487,0.455,0.738c0.106,0.184,0.194,0.379,0.289,0.569
					c0.053,0.109,0.081,0.24,0.154,0.328c0.448,0.562,0.643,1.257,1.004,1.868c0.493,0.857,0.927,1.751,1.368,2.638
					c0.454,0.91,0.882,1.832,1.311,2.753c0.246,0.539,0.566,1.045,0.776,1.6c0.402,1.121,1.029,2.136,1.512,3.221
					c0.266,0.595,0.691,1.125,1.022,1.699c0.147,0.251,0.233,0.528,0.336,0.797c0.248,0.623,0.504,1.245,0.705,1.885
					c0.102,0.32,0.197,0.645,0.192,0.996c0.002,1.089,0.366,2.053,0.663,3.048c0.434,1.415,0.704,2.872,1.018,4.316
					c0.093,0.459,0.312,0.896,0.392,1.36c0.094,0.571,0.168,1.148,0.207,1.727c0.014,0.146,0.029,0.31,0.042,0.455
					C348.716,372.994,348.684,373.194,348.581,373.175z"/>
			</g>
			<g>
				<g>
					<path style="fill:#A0C477;" d="M304.143,338.285c0.65-0.46,1.616-0.517,2.451-0.421c1.093,0.127,2.286,0.375,3.227-0.196
						c-1.076-1.704-3.188-2.691-5.185-2.425c-0.262,0.035-0.533,0.089-0.785,0.011c-0.401-0.123-0.632-0.532-0.822-0.907
						c-0.073-0.542-0.111-1.088-0.101-1.637c0.03-1.607,0.519-3.242,1.446-4.535c2.033,0.151,3.398,3.277,5.621,3.352
						c0.528-1.096-0.616-2.216-1.576-2.962c-0.78-0.607-1.562-1.636-1.391-2.485c1.525-0.606,3.21-0.557,4.901-0.143
						c0.654,0.481,1.19,1.117,1.514,1.862c0.962,2.213,0.343,5.282,2.315,6.673c0.42,0.297,1.106,0.416,1.37-0.026
						c0.127-0.212,0.102-0.479,0.067-0.724c-0.209-1.469-0.626-2.908-1.234-4.262c-0.157-0.35-0.331-0.722-0.269-1.1
						c0.052-0.316,0.269-0.566,0.547-0.73c0.42,0.217,0.833,0.44,1.232,0.666c1.454,0.824,2.905,1.68,4.34,2.567
						c0.744,1.305,0.957,2.902,0.215,4.178c-0.402,0.691-1.033,1.218-1.523,1.85c-0.49,0.632-0.845,1.475-0.567,2.225
						c0.266,0.717,1.013,1.12,1.711,1.432c0.628,0.281,1.444,0.512,1.938,0.033c0.278-0.269,0.35-0.681,0.395-1.065
						c0.148-1.275,0.146-2.567-0.006-3.841c-0.083-0.691-0.206-1.415,0.045-2.064c0.14-0.362,0.451-0.669,0.803-0.817
						c1.785,1.193,3.523,2.451,5.188,3.785c0.279,0.65,0.373,1.346,0.097,1.987c-0.178,0.414-0.489,0.754-0.794,1.086
						c-0.705,0.766-1.409,1.532-2.114,2.298c-0.502,0.546-1.043,1.248-0.814,1.954c0.095,0.295,0.314,0.531,0.526,0.757
						c0.615,0.654,1.416,1.367,2.287,1.151c0.706-0.175,1.12-0.897,1.38-1.576c0.357-0.93,0.581-1.91,0.664-2.902
						c0.074-0.885,0.076-1.878,0.7-2.51c0.116-0.117,0.255-0.204,0.401-0.275c1.357,1.207,2.646,2.477,3.851,3.816
						c0.185,0.606,0.227,1.247,0.044,1.85c-0.041,0.135-0.095,0.27-0.188,0.376c-0.157,0.177-0.399,0.245-0.624,0.319
						c-0.887,0.29-1.703,0.795-2.359,1.458c-0.144,0.146-0.285,0.307-0.334,0.506c-0.087,0.357,0.143,0.706,0.362,1.001
						c0.268,0.362,0.543,0.731,0.915,0.984c0.372,0.254,0.865,0.375,1.279,0.198c0.453-0.195,0.697-0.681,0.884-1.137
						c0.257-0.628,0.477-1.27,0.659-1.924c0.144-0.517,0.333-1.121,0.842-1.294c0.147-0.05,0.301-0.054,0.454-0.033
						c1.076,1.384,2.055,2.842,2.93,4.375c0.023,0.163,0.027,0.329-0.042,0.476c-0.073,0.155-0.214,0.264-0.35,0.367
						c-0.58,0.439-1.159,0.878-1.739,1.317c-0.54,0.409-1.107,0.854-1.334,1.492c-0.227,0.638,0.072,1.508,0.739,1.622
						c0.526,0.09,1.005-0.301,1.363-0.697c0.512-0.565,0.95-1.195,1.302-1.872c0.166-0.319,0.334-0.67,0.656-0.829
						c0.122-0.061,0.247-0.078,0.371-0.076c0.602,1.221,1.134,2.471,1.598,3.748c-0.406,0.397-1.014,0.624-1.526,0.915
						c-0.83,0.471-1.5,1.218-1.878,2.094c-0.091,0.21-0.166,0.434-0.151,0.663c0.05,0.751,1.055,1.094,1.755,0.818
						c0.7-0.276,1.171-0.92,1.688-1.466c0.254-0.268,0.555-0.525,0.883-0.7c0.186,0.619,0.356,1.243,0.517,1.87
						c-1.224,0.328-2.335,1.096-3.009,2.172c-0.127,0.204-0.244,0.432-0.225,0.672c0.031,0.404,0.451,0.69,0.856,0.708
						c0.405,0.018,0.789-0.163,1.146-0.356c0.602-0.326,1.177-0.701,1.724-1.111c0.158,0.735,0.303,1.473,0.435,2.215
						c-0.628,0.177-1.249,0.378-1.849,0.632c-0.425,0.18-0.863,0.395-1.123,0.776c-0.26,0.381-0.263,0.975,0.11,1.246
						c0.218,0.158,0.507,0.174,0.777,0.169c0.839-0.015,1.675-0.175,2.463-0.464c0.071,0.492,0.136,0.984,0.198,1.476
						c-0.456,0.155-0.911,0.31-1.367,0.465c-0.353,0.12-0.724,0.252-0.964,0.538c-0.422,0.504-0.236,1.338,0.281,1.744
						c0.517,0.406,1.251,0.439,1.879,0.247c0.168-0.051,0.33-0.118,0.488-0.193c0.29,2.722,0.669,5.533,2.349,7.66l-2.471,0.88
						c-2.003-1.948-4.124-3.757-6.31-5.49c0.325-0.549,0.492-1.18,0.06-1.587c-0.481-0.453-1.174-0.15-1.757,0.265
						c-0.461-0.352-0.925-0.702-1.39-1.049c0.067-0.032,0.134-0.064,0.198-0.092c0.718-0.308,1.47-1.242,0.864-1.734
						c-0.324-0.263-0.804-0.132-1.191,0.026c-0.48,0.197-0.948,0.422-1.406,0.666c-0.637-0.465-1.276-0.927-1.918-1.387
						c0.215-0.287,0.448-0.568,0.649-0.849c0.582-0.814,0.724-2.26-0.234-2.551c-0.734-0.223-1.41,0.49-1.756,1.174
						c-0.154,0.303-0.302,0.631-0.482,0.927c-0.858-0.609-1.717-1.217-2.575-1.827c0.237-0.448,0.6-0.843,1.014-1.138
						c0.519-0.37,1.169-0.691,1.337-1.306c0.282-1.033-1.137-1.817-2.16-1.502c-1.024,0.315-1.738,1.212-2.595,1.855
						c-0.085,0.064-0.177,0.122-0.271,0.179c-0.923-0.666-1.84-1.338-2.751-2.019c0.151-0.279,0.347-0.534,0.585-0.73
						c0.82-0.676,1.905-0.907,2.891-1.301c0.265-0.106,0.543-0.242,0.672-0.497c0.185-0.368-0.029-0.822-0.334-1.099
						c-0.773-0.703-1.996-0.653-2.956-0.239c-0.96,0.414-1.758,1.123-2.647,1.673c-0.2,0.124-0.411,0.238-0.628,0.34
						c-1.051-0.825-2.089-1.669-3.108-2.537c0.312-0.233,0.699-0.382,1.076-0.5c1.013-0.317,2.049-0.561,3.098-0.729
						c0.238-0.038,0.485-0.076,0.683-0.212c0.784-0.54-0.017-1.831-0.946-2.041c-1.228-0.278-2.477,0.263-3.621,0.787
						c-0.772,0.354-1.595,0.706-2.424,0.811c-0.947-0.866-1.87-1.755-2.763-2.67c0.037-0.076,0.079-0.151,0.133-0.222
						c0.562-0.754,1.657-0.773,2.596-0.827c0.939-0.054,2.075-0.396,2.255-1.32c0.222-1.141-1.281-1.889-2.428-1.702
						c-1.147,0.187-2.21,0.866-3.372,0.821c-1.466-0.057-2.613-1.228-3.596-2.317c-0.179-0.198-0.368-0.422-0.373-0.689
						c-0.007-0.428,0.445-0.703,0.845-0.857c1.015-0.391,2.099-0.605,3.187-0.629c0.441-0.01,0.986-0.051,1.16-0.456
						c0.076-0.175,0.055-0.376,0.011-0.561c-0.111-0.468-0.366-0.901-0.721-1.226c-0.989-0.904-2.515-0.838-3.823-0.548
						c-1.154,0.256-2.335,0.643-3.493,0.523c-0.439-0.791-0.859-1.593-1.241-2.419C304.472,339.072,304.304,338.68,304.143,338.285z
						"/>
				</g>
				<path style="fill:#709A6B;" d="M345.118,375.003c-0.258-0.253-0.437-0.594-0.64-0.895c-0.065-0.082-0.093-0.188-0.155-0.273
					c-0.646-0.837-1.141-1.725-1.658-2.603c-0.731-1.157-1.408-2.335-2.099-3.51c-0.523-0.95-1.057-1.92-1.58-2.871
					c-0.614-1.054-1.216-2.126-1.941-3.111c-0.51-0.696-1.197-1.252-1.741-1.918c-0.551-0.656-1.028-1.373-1.566-2.043
					c-0.28-0.357-0.629-0.654-0.906-1.014c-0.636-0.812-1.256-1.64-1.907-2.445c-0.503-0.627-1.027-1.236-1.565-1.832
					c-0.506-0.56-1.03-1.103-1.559-1.64c-0.575-0.581-1.134-1.177-1.743-1.723c-0.97-0.877-2.069-1.625-3.045-2.494
					c-1.316-1.18-2.451-2.545-3.617-3.879c-0.802-0.923-1.58-1.869-2.362-2.809c-0.572-0.689-1.145-1.38-1.72-2.073
					c-0.052-0.066-0.125-0.16-0.194-0.249c-0.089-0.113-0.164-0.214-0.146-0.247c0.018-0.035,0.115,0,0.266,0.087
					c0.236,0.139,0.49,0.274,0.696,0.439c0.55,0.436,1.053,0.911,1.621,1.335c0.407,0.299,0.747,0.669,1.068,1.052
					c0.833,0.982,1.551,2.079,2.292,3.16c0.19,0.278,0.479,0.467,0.716,0.703l1.021,1.037c0.672,0.662,1.352,1.316,2.007,1.996
					c0.422,0.455,0.85,0.917,1.273,1.372c0.201,0.206,0.432,0.384,0.637,0.587c0.151,0.149,0.289,0.312,0.432,0.47
					c0.081,0.091,0.143,0.209,0.237,0.274c0.583,0.42,0.959,1.036,1.472,1.527c0.707,0.691,1.366,1.435,2.03,2.17
					c0.683,0.753,1.345,1.525,2.006,2.296c0.382,0.453,0.828,0.853,1.18,1.33c0.69,0.97,1.568,1.778,2.327,2.692
					c0.417,0.501,0.97,0.896,1.443,1.36c0.21,0.202,0.367,0.446,0.539,0.677c0.408,0.533,0.822,1.062,1.189,1.625
					c0.185,0.28,0.364,0.568,0.454,0.907c0.296,1.048,0.907,1.878,1.462,2.755c0.8,1.245,1.455,2.575,2.147,3.88
					c0.214,0.417,0.542,0.778,0.746,1.204c0.245,0.524,0.472,1.06,0.666,1.606c0.052,0.137,0.111,0.291,0.163,0.427
					C345.199,374.793,345.222,374.994,345.118,375.003z"/>
			</g>
			<path style="fill:#79A674;" d="M360.12,370.683c-0.028-0.358,0.063-0.737,0.11-1.103c0.006-0.107,0.055-0.206,0.065-0.313
				c0.106-1.07,0.424-2.073,0.767-3.066c0.457-1.333,1.01-2.634,1.69-3.865c0.533-0.988,1.183-1.908,1.813-2.832
				c0.708-1.026,1.471-2.009,2.168-3.031c0.484-0.724,0.82-1.55,1.308-2.276c0.493-0.716,1.068-1.373,1.608-2.052
				c0.28-0.362,0.511-0.762,0.808-1.112c0.673-0.796,1.389-1.555,2.092-2.322c0.544-0.597,1.084-1.196,1.612-1.805
				c0.489-0.577,0.977-1.151,1.468-1.73c0.524-0.629,1.07-1.239,1.568-1.89c0.798-1.039,1.475-2.184,2.28-3.217
				c1.095-1.39,2.385-2.605,3.627-3.862c0.862-0.86,1.727-1.722,2.592-2.585c0.63-0.638,1.259-1.278,1.861-1.941
				c0.059-0.06,0.143-0.144,0.223-0.224c0.101-0.102,0.191-0.19,0.227-0.177c0.037,0.013,0.015,0.114-0.053,0.274
				c-0.108,0.252-0.211,0.521-0.349,0.748c-0.363,0.606-0.79,1.154-1.152,1.77c-0.261,0.435-0.598,0.812-0.952,1.169
				c-0.913,0.919-1.952,1.722-2.982,2.532c-0.265,0.209-0.434,0.51-0.654,0.762l-0.969,1.085c-0.619,0.712-1.227,1.433-1.862,2.131
				c-0.419,0.462-0.866,0.899-1.277,1.367c-0.19,0.217-0.35,0.46-0.536,0.681c-0.137,0.162-0.286,0.314-0.432,0.469
				c-0.083,0.088-0.195,0.161-0.253,0.26c-0.37,0.614-0.941,1.052-1.379,1.611c-0.611,0.777-1.269,1.521-1.905,2.28l-1.94,2.354
				c-0.372,0.463-0.672,0.981-1.065,1.426c-0.79,0.893-1.364,1.943-2.009,2.937c-0.363,0.542-0.561,1.193-0.834,1.789
				c-0.122,0.261-0.297,0.488-0.444,0.733l-1.034,1.703c-0.178,0.28-0.373,0.553-0.628,0.785c-0.811,0.719-1.259,1.661-1.716,2.59
				c-0.664,1.321-1.328,2.644-1.885,4.014c-0.165,0.44-0.232,0.916-0.391,1.356c-0.183,0.546-0.436,1.068-0.633,1.61
				c-0.051,0.137-0.107,0.291-0.158,0.427C360.322,370.572,360.206,370.741,360.12,370.683z"/>
			<path style="fill:#E8A184;" d="M339.636,370.058h-12.859c-2.86,0-5.106,2.449-4.859,5.298l5.461,63.123
				c0.218,2.521,2.328,4.457,4.859,4.457h15.717C337.914,420.241,334.921,394.426,339.636,370.058z"/>
			<path style="fill:#F2B198;" d="M379.188,370.058h-39.552c-4.715,24.368-1.722,50.183,8.318,72.878h25.773
				c2.531,0,4.641-1.936,4.859-4.457l5.461-63.123C384.294,372.507,382.048,370.058,379.188,370.058z"/>
		</g>
		<g>
			<rect x="195.534" y="61.146" style="fill:#E8DDC8;" width="367.965" height="238.487"/>
			<g>
				<g>
					<line style="fill:#FFFFFF;" x1="235.735" y1="148.55" x2="235.735" y2="273.726"/>
					<rect x="235.261" y="148.55" style="fill:#FFFAF0;" width="0.947" height="125.176"/>
				</g>
				<g>
					<line style="fill:#FFFFFF;" x1="248.576" y1="148.55" x2="248.576" y2="273.726"/>
					<rect x="248.102" y="148.55" style="fill:#FFFAF0;" width="0.947" height="125.176"/>
				</g>
				<g>
					<line style="fill:#FFFFFF;" x1="261.416" y1="148.55" x2="261.416" y2="273.726"/>
					<rect x="260.943" y="148.55" style="fill:#FFFAF0;" width="0.947" height="125.176"/>
				</g>
				<g>
					<line style="fill:#FFFFFF;" x1="274.257" y1="148.55" x2="274.257" y2="273.726"/>
					<rect x="273.784" y="148.55" style="fill:#FFFAF0;" width="0.947" height="125.176"/>
				</g>
				<g>
					<line style="fill:#FFFFFF;" x1="287.098" y1="148.55" x2="287.098" y2="273.726"/>
					<rect x="286.624" y="148.55" style="fill:#FFFAF0;" width="0.947" height="125.176"/>
				</g>
				<g>
					<line style="fill:#FFFFFF;" x1="299.939" y1="148.55" x2="299.939" y2="273.726"/>
					<rect x="299.465" y="148.55" style="fill:#FFFAF0;" width="0.947" height="125.176"/>
				</g>
				<g>
					<line style="fill:#FFFFFF;" x1="312.78" y1="148.55" x2="312.78" y2="273.726"/>
					<rect x="312.307" y="148.55" style="fill:#FFFAF0;" width="0.947" height="125.176"/>
				</g>
				<g>
					<line style="fill:#FFFFFF;" x1="325.621" y1="148.55" x2="325.621" y2="273.726"/>
					<rect x="325.148" y="148.55" style="fill:#FFFAF0;" width="0.947" height="125.176"/>
				</g>
				<g>
					<line style="fill:#FFFFFF;" x1="338.462" y1="148.55" x2="338.462" y2="273.726"/>
					<rect x="337.988" y="148.55" style="fill:#FFFAF0;" width="0.947" height="125.176"/>
				</g>
				<g>
					<line style="fill:#FFFFFF;" x1="351.303" y1="148.55" x2="351.303" y2="273.726"/>
					<rect x="350.829" y="148.55" style="fill:#FFFAF0;" width="0.947" height="125.176"/>
				</g>
				<g>
					<line style="fill:#FFFFFF;" x1="221.703" y1="161.359" x2="361.927" y2="161.359"/>
					<rect x="221.702" y="160.858" style="fill:#FFFAF0;" width="140.225" height="1.002"/>
				</g>
				<g>
					<line style="fill:#FFFFFF;" x1="221.703" y1="172.707" x2="361.927" y2="172.707"/>
					<rect x="221.702" y="172.206" style="fill:#FFFAF0;" width="140.225" height="1.002"/>
				</g>
				<g>
					<line style="fill:#FFFFFF;" x1="221.703" y1="184.055" x2="361.927" y2="184.055"/>
					<rect x="221.702" y="183.554" style="fill:#FFFAF0;" width="140.225" height="1.002"/>
				</g>
				<g>
					<line style="fill:#FFFFFF;" x1="221.703" y1="195.403" x2="361.927" y2="195.403"/>
					<rect x="221.702" y="194.902" style="fill:#FFFAF0;" width="140.225" height="1.002"/>
				</g>
				<g>
					<line style="fill:#FFFFFF;" x1="221.703" y1="206.751" x2="361.927" y2="206.751"/>
					<rect x="221.702" y="206.25" style="fill:#FFFAF0;" width="140.225" height="1.002"/>
				</g>
				<g>
					<line style="fill:#FFFFFF;" x1="221.703" y1="218.099" x2="361.927" y2="218.099"/>
					<rect x="221.702" y="217.598" style="fill:#FFFAF0;" width="140.225" height="1.002"/>
				</g>
				<g>
					<line style="fill:#FFFFFF;" x1="221.703" y1="229.447" x2="361.927" y2="229.447"/>
					<rect x="221.702" y="228.946" style="fill:#FFFAF0;" width="140.225" height="1.002"/>
				</g>
				<g>
					<line style="fill:#FFFFFF;" x1="221.703" y1="240.795" x2="361.927" y2="240.795"/>
					<rect x="221.702" y="240.294" style="fill:#FFFAF0;" width="140.225" height="1.002"/>
				</g>
				<g>
					<line style="fill:#FFFFFF;" x1="221.703" y1="252.143" x2="361.927" y2="252.143"/>
					<rect x="221.702" y="251.642" style="fill:#FFFAF0;" width="140.225" height="1.002"/>
				</g>
				<g>
					<line style="fill:#FFFFFF;" x1="221.703" y1="263.491" x2="361.927" y2="263.491"/>
					<rect x="221.702" y="262.99" style="fill:#FFFAF0;" width="140.225" height="1.002"/>
				</g>
			</g>
			<g>
				<g>
					<path style="fill:#F08E4D;" d="M424.78,129.142c-4.64,5.645-8.179,12.224-10.315,19.408l53.259,15.856L424.78,129.142z"/>
					<path style="fill:#D43F3D;" d="M414.465,148.55c-1.495,5.026-2.309,10.344-2.309,15.856c0,30.689,24.879,55.568,55.568,55.568
						v-55.568L414.465,148.55z"/>
				</g>
				<g>
					<path style="fill:#C4B272;" d="M467.724,108.838v55.568l52.069-19.43C511.914,123.87,491.577,108.838,467.724,108.838z"/>
					<path style="fill:#FFD36B;" d="M467.724,164.406v55.568c30.69,0,55.568-24.879,55.568-55.568c0-6.836-1.241-13.381-3.499-19.43
						L467.724,164.406z"/>
				</g>
				<path style="fill:#B63634;" d="M467.724,108.838c-17.301,0-32.753,7.908-42.945,20.305l42.945,35.264V108.838z"/>
			</g>
			<rect x="228.544" y="201.736" style="fill:#FFD36B;" width="14.382" height="72.936"/>
			<rect x="305.589" y="245.585" style="fill:#F08E4D;" width="14.382" height="29.087"/>
			<rect x="279.111" y="201.736" style="fill:#D43F3D;" width="14.382" height="72.936"/>
			<rect x="254.226" y="184.055" style="fill:#C4B272;" width="14.382" height="90.618"/>
			<path style="fill:#A8A090;" d="M364.657,275.619H223.958c-2.242,0-4.066-1.824-4.066-4.066V148.55
				c0-0.523,0.424-0.947,0.947-0.947c0.523,0,0.947,0.424,0.947,0.947v123.003c0,1.198,0.975,2.172,2.172,2.172h140.699
				c0.523,0,0.947,0.424,0.947,0.947C365.604,275.195,365.18,275.619,364.657,275.619z"/>
			<g>
				<rect x="467.725" y="237.783" style="fill:#9E9788;" width="58.201" height="0.841"/>
				<rect x="467.725" y="243.3" style="fill:#9E9788;" width="58.201" height="0.841"/>
				<rect x="467.725" y="248.815" style="fill:#9E9788;" width="58.201" height="0.841"/>
				<rect x="467.725" y="254.331" style="fill:#9E9788;" width="58.201" height="0.841"/>
				<rect x="467.725" y="259.847" style="fill:#9E9788;" width="58.201" height="0.841"/>
				<rect x="467.725" y="265.363" style="fill:#9E9788;" width="58.201" height="0.841"/>
			</g>
			<g>
				<rect x="219.893" y="108.18" style="fill:#A8A090;" width="142.034" height="1.314"/>
				<rect x="219.893" y="113.697" style="fill:#A8A090;" width="142.034" height="1.314"/>
				<rect x="219.893" y="119.212" style="fill:#A8A090;" width="142.034" height="1.314"/>
				<rect x="219.893" y="124.728" style="fill:#A8A090;" width="142.034" height="1.314"/>
				<rect x="219.893" y="130.245" style="fill:#A8A090;" width="142.034" height="1.314"/>
				<rect x="219.893" y="135.76" style="fill:#A8A090;" width="142.034" height="1.314"/>
			</g>
			<g>
				<path style="fill:#D43F3D;" d="M388.866,238.708c0,1.784-1.446,3.231-3.23,3.231c-1.784,0-3.23-1.446-3.23-3.231
					c0-1.784,1.446-3.23,3.23-3.23C387.419,235.478,388.866,236.924,388.866,238.708z"/>
				<path style="fill:#FFD36B;" d="M388.866,249.296c0,1.784-1.446,3.23-3.23,3.23c-1.784,0-3.23-1.446-3.23-3.23
					c0-1.784,1.446-3.23,3.23-3.23C387.419,246.066,388.866,247.512,388.866,249.296z"/>
				<path style="fill:#F08E4D;" d="M388.866,259.885c0,1.784-1.446,3.23-3.23,3.23c-1.784,0-3.23-1.446-3.23-3.23
					c0-1.784,1.446-3.23,3.23-3.23C387.419,256.654,388.866,258.101,388.866,259.885z"/>
				<path style="fill:#C4B272;" d="M388.866,272.022c0,1.784-1.446,3.23-3.23,3.23c-1.784,0-3.23-1.446-3.23-3.23
					c0-1.784,1.446-3.23,3.23-3.23C387.419,268.792,388.866,270.238,388.866,272.022z"/>
			</g>
			<rect x="393.864" y="238.235" style="fill:#A8A090;" width="52.388" height="0.947"/>
			<rect x="393.864" y="248.763" style="fill:#A8A090;" width="52.388" height="0.947"/>
			<rect x="393.864" y="259.291" style="fill:#A8A090;" width="52.388" height="0.947"/>
			<rect x="393.864" y="269.819" style="fill:#A8A090;" width="52.388" height="0.947"/>
			<rect x="195.534" y="71.852" style="fill:#B63634;" width="327.759" height="11.184"/>
		</g>
		<g>
			<path style="fill:#E8DDC8;" d="M598.86,459.846c0,2.036-23.58,3.687-52.666,3.687c-29.087,0-52.666-1.65-52.666-3.687
				s23.579-3.687,52.666-3.687C575.28,456.159,598.86,457.81,598.86,459.846z"/>
			<g>
				<g>
					<path style="fill:#CF9E76;" d="M513.936,453.055c1.619,0.119,3.206-0.441,4.7-1.075c4.088-1.734,7.88-4.077,11.509-6.649
						c-0.351-0.713-0.609-1.291-0.612-1.605c-0.008-0.844-0.461-4.035-0.461-4.035l-9.982,2.916c0,0,0.412,1.696-0.51,2.503
						c-0.543,0.475-4.119,3.623-7.16,6.207c0.071,0.281,0.188,0.548,0.374,0.784C512.291,452.734,513.133,452.996,513.936,453.055z"
						/>
					<path style="fill:#A9C280;" d="M531.955,449.49c-0.362-1.374-1.219-2.959-1.809-4.159c-3.629,2.572-7.421,4.915-11.509,6.649
						c-1.494,0.634-3.081,1.194-4.7,1.075c-0.803-0.059-1.646-0.321-2.142-0.955c-0.185-0.236-0.302-0.503-0.374-0.784
						c-2.124,1.805-3.99,3.336-4.37,3.479c-0.922,0.346-5.073,2.191-3.459,3.92c1.614,1.729,6.803,1.038,10.377,0.922
						c3.574-0.115,13.605-6.226,14.066-5.88s0,5.073,0,5.073s1.499,1.153,3.459-0.346
						C531.263,458.599,532.531,451.681,531.955,449.49z"/>
				</g>
				<g>
					<path style="fill:#CF9E76;" d="M572.844,450.527c1.593-0.307,2.98-1.261,4.257-2.262c3.495-2.74,6.545-5.99,9.379-9.419
						c-0.525-0.597-0.924-1.087-1.009-1.39c-0.228-0.813-1.497-3.776-1.497-3.776l-9.252,3.281c0,0,1.215,3.666,0.535,4.685
						c-0.4,0.6-3.032,4.571-5.295,7.858c0.142,0.253,0.325,0.48,0.565,0.66C571.171,450.646,572.053,450.68,572.844,450.527z"/>
					<path style="fill:#A9C280;" d="M589.311,442.39c-0.707-1.232-1.948-2.54-2.831-3.544c-2.833,3.429-5.884,6.679-9.379,9.419
						c-1.277,1.001-2.664,1.956-4.257,2.262c-0.791,0.152-1.673,0.119-2.318-0.364c-0.24-0.18-0.423-0.406-0.565-0.66
						c-1.581,2.296-2.983,4.261-3.312,4.497c-0.8,0.574-4.327,3.437-2.318,4.686c2.009,1.249,6.838-0.771,10.259-1.814
						c3.421-1.043,11.513-9.556,12.048-9.343c0.535,0.214,1.322,4.898,1.322,4.898s1.748,0.723,3.249-1.235
						C591.017,451.364,590.438,444.355,589.311,442.39z"/>
				</g>
				<path style="fill:#733E13;" d="M567.867,370.691c-2.332-14.284-15.178-66.664-16.917-71.43
					c-1.739-4.766-5.095-10.033-5.095-10.033l-39.719,0.856c-1.419,3.376-4.459,12.699-4.459,22.631s13.58,61.82,13.783,65.266
					c0.203,3.446,2.38,64.129,2.38,64.129s4.522,4.956,12.334,0c-1.517,0.583,6.937-35.272,6.354-43.143
					c-0.583-7.871-3.585-20.697-4.416-26.819c-0.831-6.122,2.274-30.9,2.274-30.9s13.952,30.317,15.701,33.815
					c4.137,24.342,23.463,62.674,23.463,62.674s6.705,4.373,13.118-2.04C585.791,435.988,570.199,384.975,567.867,370.691z"/>
				<path style="fill:#59300F;" d="M527.066,316.108c4.078-4.139,8.297-8.382,13.713-10.725c0.279-0.121,0.038-0.529-0.239-0.409
					c-5.45,2.358-9.706,6.634-13.809,10.799C526.518,315.991,526.852,316.326,527.066,316.108L527.066,316.108z"/>
				<path style="fill:#59300F;" d="M530.808,314.099c2.844-2.402,5.843-4.611,8.98-6.615c0.256-0.164,0.019-0.574-0.239-0.409
					c-3.171,2.026-6.202,4.261-9.076,6.689C530.241,313.961,530.577,314.295,530.808,314.099L530.808,314.099z"/>
				<path style="fill:#59300F;" d="M517.314,314.866c-4.506-1.494-8.593-4.093-11.864-7.534c-0.21-0.221-0.545,0.114-0.335,0.335
					c3.327,3.499,7.491,6.136,12.073,7.655C517.478,315.419,517.602,314.962,517.314,314.866L517.314,314.866z"/>
				<path style="fill:#59300F;" d="M513.73,314.836c-2.639-0.706-5.278-1.411-7.917-2.117c-0.295-0.079-0.42,0.378-0.126,0.457
					c2.639,0.706,5.278,1.411,7.917,2.117C513.898,315.372,514.024,314.915,513.73,314.836L513.73,314.836z"/>
				<g>
					<g>
						<path style="fill:#CF9E76;" d="M459.297,194.124c-0.494-0.564-6.066-8.958-8.464-9.31c-1.061-0.156-1.79,0.121-2.289,0.472
							c-0.674-0.267-1.623-0.614-2.013-0.614c-0.635,0-1.763,0.776-1.763,0.776s-7.9-4.796-8.252-3.738
							c-0.088,0.264,0.152,0.764,0.561,1.366c-0.219-0.143-0.367-0.229-0.42-0.237c-0.423-0.07-0.987,1.481-0.282,3.033
							c0.705,1.552,7.194,8.041,7.053,8.817c-0.141,0.776-3.597-0.212-4.373,0c-0.776,0.212-1.975,1.693-1.763,2.68
							c0.212,0.987,4.303-0.07,5.54,0.564c1.238,0.635,3.135,3.103,4.616,3.478c1.481,0.375,5.643-0.868,7.759-0.375
							c2.116,0.494,2.398,2.469,2.751,2.469l5.078-6.842C463.035,196.663,459.791,194.688,459.297,194.124z"/>
						<path style="fill:#733E13;" d="M437.066,183.074c0.11,0.005,0.255-0.008,0.341,0.065c0.127,0.094,0.255,0.182,0.401,0.238
							c0.638,0.212,1.206,0.573,1.667,1.048c0.234,0.227,0.438,0.486,0.688,0.689c0.409,0.348,0.835,0.676,1.281,0.977
							c0.295,0.2,0.616,0.365,0.924,0.54c0.497,0.288,0.994,0.55,1.446,0.881c0.357,0.248,0.692,0.557,1.082,0.778
							c0.054,0.032,0.115,0.047,0.169,0.078c0.034,0.018,0.071,0.037,0.097,0.062c0.018,0.018,0.035,0.047,0.03,0.054
							c-0.004,0.006-0.044,0.005-0.072,0.006c-0.021,0.001-0.047-0.012-0.07-0.018c-0.411-0.091-0.783-0.292-1.144-0.498
							c-0.232-0.136-0.493-0.223-0.727-0.361c-0.12-0.068-0.208-0.183-0.325-0.254c-0.29-0.162-0.584-0.32-0.859-0.507
							c-0.053-0.035-0.069-0.119-0.121-0.154c-0.359-0.232-0.699-0.488-1.002-0.789c-0.249-0.25-0.5-0.498-0.777-0.713
							c-0.286-0.22-0.597-0.408-0.892-0.612c-0.277-0.182-0.524-0.404-0.796-0.592c-0.133-0.087-0.289-0.137-0.426-0.214
							c-0.202-0.118-0.387-0.264-0.58-0.399c-0.078-0.067-0.145-0.126-0.223-0.193C437.166,183.174,437.116,183.124,437.066,183.074
							z"/>
					</g>
					<g>
						<path style="fill:#DDF4B8;" d="M563.262,246.041c-2.596-3.732-15.387-21.395-22.135-21.488l-15.675,3.015
							c-0.654-0.183-5.385-4.757-10.977-6.952c-5.593-2.195-16.935-5.305-18.582-6.22c-1.646-0.915-5.488-4.574-7.501-5.854
							c-2.012-1.281-25.795-13.071-25.795-13.071l-6.037,7.949c0,0,15.184,13.172,27.99,21.587
							c12.806,8.415,24.148,15.55,24.148,15.55s-4.939,5.305-4.573,10.794c0.366,5.488,3.659,6.952,3.659,6.952
							s-5.671,22.467-6.037,26.418c-0.366,3.951,4.574,7.244,4.574,7.244l7.687-2.012c0,0,4.589,1.281,9.427,1.281
							c4.839,0,6.331-0.732,6.331-0.732s12.777,4.391,17.168,1.464c4.391-2.927,4.391-4.792,4.025-7.244
							c-0.366-2.452-1.464-7.903-1.829-11.032c-0.366-3.129,1.975-12.642,1.975-12.642s15.078,15.339,15.078,15.988
							c0,0.649-2.272,1.947-5.355,4.219c-3.083,2.272-12.819,14.766-12.819,14.766s4.544,3.408,5.03,8.925
							c-0.162-0.162,27.748-19.797,29.208-23.691C583.708,277.359,565.858,249.773,563.262,246.041z"/>
					</g>
				</g>
				<g>
					<g>
						<path d="M564.275,199.093c-0.357-1.212-1.228-2.249-2.325-2.864c0.046-0.145,0.096-0.289,0.138-0.432
							c0.877-3.02,1.433-6.133,1.657-9.27c0.158-2.217,0.128-4.543-0.873-6.528c-1.001-1.985-3.227-3.505-5.4-3.036
							c-0.194,0.042-0.395,0.099-0.588,0.051c-0.531-0.132-0.57-0.855-0.583-1.402c-0.028-1.18-0.514-2.369-1.415-3.131
							c-0.901-0.762-2.227-1.039-3.314-0.581c-0.482,0.203-0.917,0.54-1.433,0.625c-0.914,0.151-1.733-0.511-2.563-0.923
							c-1.644-0.816-3.62-0.663-5.341,0.005c-0.608-0.942-1.38-1.776-2.31-2.406c-2.731-1.85-6.557-1.918-9.353-0.167
							c-0.808,0.506-1.544,1.153-2.44,1.479c-0.573,0.208-1.186,0.275-1.786,0.382c-4.013,0.716-7.789,3.692-8.531,7.7
							c-0.257,1.389-0.152,2.821-0.331,4.222c-0.286,2.232-1.29,4.369-1.229,6.618c0.078,2.88,2.102,5.608,4.836,6.517l8.669,18.477
							c1.541,1.741,0.937,4.464,1.68,6.666c0.208,0.618,0.58,1.246,1.195,1.464c1.295,0.46,2.42-1.111,3.776-1.335
							c1.615-0.266,2.878,1.396,4.456,1.835c1.649,0.458,3.372-0.504,4.592-1.705c1.219-1.201,2.176-2.681,3.564-3.683
							c1.317-0.951,2.919-1.397,4.454-1.931c2.05-0.714,4.072-1.639,5.67-3.109c1.598-1.469,2.733-3.555,2.659-5.725
							c-0.015-0.447-0.079-0.909,0.066-1.333c0.183-0.533,0.657-0.9,1.052-1.301C564.237,202.94,564.804,200.889,564.275,199.093z"
							/>
					</g>
					<g>
						<path style="fill:#D43F3D;" d="M514.561,198.135c-0.171,0.078-0.351,0.161-0.458,0.315c-0.181,0.262-0.078,0.633,0.113,0.888
							c0.313,0.418,0.813,0.648,1.295,0.85c1.297,0.543,2.627,1.009,3.98,1.393l1.673-8.415
							C519.356,195.272,517.086,196.98,514.561,198.135z"/>
					</g>
					<path style="fill:#CF9E76;" d="M529.482,180.277c0,0-4.479,2.048-6.654,6.654c-2.175,4.607-4.607,14.588-6.526,16.251
						c-0.64,0.768,5.119-0.384,4.991,0.64s-4.194,1.408-5.04,2.303c-0.846,0.896,0,2.303,0,2.303s-2.638,4.991-1.486,6.782
						c1.152,1.792,7.55,1.536,8.062,2.303c0.512,0.768,1.792,8.702,1.792,8.702s-3.839,0.256-3.967,2.431
						c-0.128,2.175,1.936,12.019,1.936,12.019s19.434-15.09,18.538-16.114c-0.896-1.024-3.839-0.384-3.839-0.384
						s-1.152-8.446-0.128-8.83c1.024-0.384,9.725-2.303,7.55-6.014c-2.175-3.711-5.375-3.199-6.27-1.919
						c-0.896,1.28-2.303,5.513-3.583,4.292c-1.28-1.221-0.256-4.548-0.256-4.548s-4.166-2.905-4.834-5.739
						c-0.668-2.834,2.019-6.929,2.019-6.929s-3.455-2.687-4.223-5.374C526.795,186.42,529.482,180.277,529.482,180.277z"/>
					<path d="M523.673,193.71c-0.544,1.712-1.224,3.37-2.042,4.97c-0.332,0.65,0.648,1.225,0.981,0.574
						c0.861-1.685,1.583-3.438,2.157-5.241C524.991,193.313,523.894,193.014,523.673,193.71L523.673,193.71z"/>
					<path style="fill:#FFA569;" d="M527.661,204.266c0,1.167-0.946,2.112-2.113,2.112s-2.113-0.946-2.113-2.112
						c0-1.167,0.946-2.113,2.113-2.113S527.661,203.099,527.661,204.266z"/>
					<path d="M544.756,207.75c-1.194-1.066-3.036-0.653-4.275,0.119c-1.341,0.835-2.285,2.184-2.817,3.652
						c0.152,0.042,0.304,0.084,0.456,0.126c0.249-0.897,2.068-1.422,2.253-0.227c0.15,0.966-0.811,1.731-1.713,1.647
						c-0.303-0.028-0.301,0.445,0,0.473c1.33,0.124,2.689-1.303,2.052-2.625c-0.618-1.282-2.726-0.555-3.048,0.606
						c-0.083,0.298,0.354,0.409,0.456,0.126c0.459-1.266,1.259-2.446,2.375-3.221c1.064-0.739,2.828-1.322,3.926-0.341
						C544.648,208.287,544.984,207.954,544.756,207.75L544.756,207.75z"/>
					<path d="M527.412,192.567c-0.245-1.178-0.521-2.413-1.284-3.378c-0.575-0.726-1.765-1.463-2.574-0.637
						c-0.213,0.218,0.121,0.553,0.335,0.335c0.797-0.813,1.906,0.543,2.25,1.18c0.438,0.811,0.63,1.732,0.816,2.626
						C527.017,192.991,527.474,192.865,527.412,192.567L527.412,192.567z"/>
				</g>
				<path style="fill:#A9C280;" d="M537.893,223.175c1.872-0.073,3.866,1.439,4.101,1.485c0.234,0.046-9.133,15.658-10.45,14.812
					c-1.317-0.846-4.286-4.702-3.883-6.113C528.064,231.948,536.519,223.229,537.893,223.175z"/>
				<path style="fill:#A9C280;" d="M524.037,222.819c0,0,0.596,3.153,0.783,3.205c0.188,0.052-8.181,13.656-9.206,12.836
					c-1.025-0.82-3.239-4.417-2.841-5.667C513.17,231.945,522.922,222.805,524.037,222.819z"/>
				<g>
					<path style="fill:#CF9E76;" d="M548.009,296.02c-1.289-0.054-9.931-1.246-12.712-1.147c-2.781,0.099-6.457,4.47-6.457,4.47
						s-2.583,8.046-2.086,8.443c0.394,0.315,1.094,0.132,1.369,0.042c-0.232,1.094-0.369,2.004-0.276,2.342
						c0.194,0.712,1.271,0.16,2-0.312c-0.01,0.331,0.069,0.57,0.285,0.653c1.192,0.454,4.47-4.612,4.967-5.108
						c0.497-0.497,4.073-1.192,4.073-1.192s-3.079,1.391-3.576,1.788c-0.497,0.397-3.377,4.414-2.682,4.541
						c0.695,0.128,3.61-2.654,4.437-3.151c0.827-0.497,7.88-2.206,9.469-2.444c1.589-0.238,4.669,0.944,6.059-1.137
						C552.261,301.138,550.959,298.519,548.009,296.02z"/>
					<path style="fill:#733E13;" d="M528.199,307.707c-0.02-0.107-0.068-0.241-0.018-0.336c0.061-0.138,0.119-0.278,0.126-0.43
						c0.029-0.643,0.16-1.266,0.437-1.843c0.13-0.286,0.294-0.56,0.398-0.852c0.174-0.493,0.344-0.973,0.52-1.471
						c0.115-0.327,0.201-0.67,0.33-0.998c0.205-0.53,0.461-1.053,0.851-1.478c0.299-0.334,0.678-0.594,1.031-0.856
						c0.023-0.02,0.096-0.084,0.138-0.12c0.03-0.023,0.062-0.048,0.095-0.06c0.023-0.008,0.055-0.01,0.059-0.002
						c0.004,0.007-0.013,0.042-0.024,0.068c-0.008,0.019-0.029,0.036-0.044,0.054c-0.246,0.316-0.531,0.59-0.786,0.896
						c-0.168,0.195-0.276,0.436-0.409,0.654c-0.066,0.112-0.183,0.191-0.242,0.309c-0.145,0.282-0.261,0.577-0.39,0.863
						c-0.026,0.054-0.103,0.082-0.125,0.138c-0.15,0.379-0.302,0.752-0.493,1.112c-0.159,0.298-0.309,0.603-0.411,0.925
						c-0.106,0.331-0.167,0.676-0.252,1.013c-0.072,0.313-0.19,0.612-0.281,0.92c-0.041,0.148-0.033,0.31-0.068,0.46
						c-0.061,0.22-0.135,0.438-0.226,0.651c-0.047,0.089-0.088,0.165-0.135,0.254C528.273,307.591,528.236,307.649,528.199,307.707z
						"/>
					<path style="fill:#733E13;" d="M529.858,309.759c-0.013-0.11-0.051-0.25,0.007-0.345c0.071-0.138,0.138-0.278,0.157-0.432
						c0.075-0.656,0.253-1.285,0.572-1.859c0.148-0.286,0.336-0.555,0.457-0.85c0.221-0.485,0.412-0.982,0.619-1.478
						c0.134-0.329,0.242-0.676,0.391-1.005c0.23-0.537,0.526-1.053,0.936-1.477c0.32-0.328,0.711-0.588,1.085-0.842
						c0.052-0.035,0.093-0.084,0.144-0.12c0.03-0.023,0.064-0.048,0.097-0.06c0.024-0.008,0.056-0.01,0.06-0.001
						c0.003,0.007-0.015,0.042-0.026,0.069c-0.009,0.02-0.03,0.037-0.046,0.055c-0.263,0.317-0.565,0.587-0.839,0.892
						c-0.179,0.196-0.304,0.434-0.447,0.655c-0.075,0.11-0.198,0.187-0.262,0.306c-0.163,0.282-0.293,0.582-0.443,0.867
						c-0.03,0.053-0.107,0.081-0.133,0.137c-0.172,0.381-0.349,0.756-0.564,1.117c-0.18,0.297-0.347,0.603-0.475,0.926
						c-0.127,0.334-0.215,0.683-0.323,1.023c-0.095,0.316-0.235,0.615-0.348,0.925c-0.051,0.149-0.057,0.314-0.102,0.466
						c-0.076,0.222-0.167,0.439-0.273,0.652c-0.048,0.085-0.098,0.169-0.153,0.252C529.94,309.644,529.899,309.701,529.858,309.759z
						"/>
				</g>
				<path style="fill:#A9C280;" d="M522.953,240.159c-0.358,0.421-0.682,0.993-1.1,1.374c-0.576,0.567-1.074,1.227-1.412,1.961
					c-0.718,1.552-1.135,3.211-1.275,4.875c-0.125,1.672-0.064,3.375,0.156,5.062c0.112,0.831,0.25,1.663,0.475,2.476
					c0.201,0.821,0.612,1.568,0.862,2.4c0.222,0.703,0.086,1.453-0.092,2.132c-0.169,0.69-0.328,1.381-0.471,2.076
					c-0.288,1.39-0.504,2.793-0.669,4.201c-0.22,1.865-0.278,3.751-0.408,5.63c-0.186,3.024-0.371,6.047-0.556,9.068
					c-0.131,2.323-0.271,4.68,0.376,6.947c0.095,0.312,0.226,0.613,0.351,0.916c0.072,0.185,0.161,0.387,0.216,0.553
					c0.035,0.119,0.06,0.257,0.04,0.254c-0.018-0.002-0.134-0.164-0.223-0.279c-0.066-0.085-0.133-0.217-0.188-0.334
					c-1.048-1.973-1.282-4.251-1.3-6.433c-0.008-1.422-0.053-2.847,0.006-4.269c0.031-0.722,0.189-1.434,0.228-2.154
					c0.092-1.742,0.188-3.486,0.354-5.221c0.032-0.331,0.181-0.65,0.21-0.981c0.179-2.236,0.438-4.482,0.966-6.676
					c0.211-0.909,0.449-1.81,0.688-2.71c0.229-0.9,0.564-1.794,0.27-2.657c-0.131-0.442-0.346-0.863-0.55-1.299
					c-0.198-0.442-0.389-0.889-0.543-1.348c-0.323-0.914-0.565-1.855-0.727-2.811c-0.298-1.765-0.305-3.576-0.023-5.356
					c0.142-0.848,0.26-1.716,0.559-2.537c0.446-1.213,1.108-2.355,1.969-3.317c0.347-0.393,0.723-0.762,1.138-1.078
					C522.459,240.474,522.668,240.362,522.953,240.159z"/>
				<path style="fill:#A9C280;" d="M550.594,260.851c-0.141-0.03-0.347-0.034-0.377-0.156c-0.062-0.159-0.131-0.315-0.284-0.402
					c-0.642-0.373-1.141-0.839-1.457-1.48c-0.165-0.308-0.294-0.652-0.523-0.906c-0.376-0.429-0.807-0.809-1.281-1.136
					c-0.312-0.22-0.682-0.375-1.018-0.561c-0.544-0.302-1.072-0.605-1.462-1.078c-0.31-0.359-0.529-0.841-0.825-1.236
					c-0.041-0.056-0.103-0.084-0.145-0.139c-0.027-0.031-0.057-0.066-0.068-0.109c-0.007-0.032-0.004-0.081,0.009-0.093
					c0.011-0.011,0.058-0.008,0.094-0.009c0.027,0,0.048,0.021,0.071,0.033c0.421,0.176,0.735,0.495,1.066,0.789
					c0.21,0.194,0.499,0.294,0.734,0.462c0.119,0.085,0.164,0.257,0.286,0.337c0.302,0.189,0.626,0.355,0.909,0.569
					c0.055,0.041,0.029,0.169,0.083,0.208c0.383,0.255,0.733,0.55,0.997,0.929c0.218,0.315,0.431,0.629,0.704,0.888
					c0.275,0.27,0.609,0.488,0.89,0.758c0.27,0.239,0.458,0.549,0.678,0.831c0.109,0.132,0.297,0.199,0.414,0.326
					c0.157,0.202,0.296,0.418,0.395,0.664c0.034,0.105,0.063,0.213,0.085,0.327C550.58,260.716,550.576,260.777,550.594,260.851z"/>
				<path style="fill:#A9C280;" d="M546.866,258.406c-0.072,0.072-0.176,0.202-0.198,0.141c-0.039-0.067-0.081-0.128-0.161-0.09
					c-0.338,0.16-0.599,0.148-0.776-0.117c-0.092-0.117-0.166-0.292-0.285-0.337c-0.194-0.09-0.41-0.113-0.639-0.087
					c-0.151,0.014-0.326,0.111-0.482,0.155c-0.256,0.076-0.498,0.127-0.683-0.041c-0.147-0.122-0.257-0.398-0.397-0.572
					c-0.019-0.025-0.047-0.016-0.067-0.04c-0.013-0.012-0.027-0.025-0.033-0.055c-0.004-0.023-0.004-0.065,0.001-0.082
					c0.004-0.014,0.025-0.037,0.04-0.056c0.012-0.014,0.021-0.008,0.032-0.01c0.186-0.071,0.333,0.026,0.487,0.086
					c0.099,0.044,0.229-0.031,0.339-0.026c0.056,0.002,0.081,0.116,0.139,0.111c0.141-0.018,0.293-0.07,0.429-0.066
					c0.026,0.001,0.019,0.115,0.045,0.114c0.183-0.023,0.356-0.001,0.493,0.128c0.113,0.109,0.225,0.214,0.364,0.24
					c0.141,0.031,0.309-0.015,0.457,0.003c0.141,0.003,0.246,0.106,0.367,0.163c0.06,0.022,0.155-0.049,0.219-0.037
					c0.088,0.037,0.166,0.1,0.229,0.2c0.022,0.049,0.042,0.103,0.059,0.166C546.853,258.324,546.854,258.367,546.866,258.406z"/>
				<path style="fill:#59300F;" d="M520.823,294.591c-0.772,6.814-0.432,13.727,0.998,20.434c0.038,0.179,0.312,0.103,0.274-0.076
					c-1.425-6.682-1.757-13.569-0.988-20.358C521.128,294.41,520.844,294.411,520.823,294.591L520.823,294.591z"/>
			</g>
			<path style="fill:#5C310F;" d="M524.824,323.614c0,0,1.068,37.762,1.867,43.156c0.439,2.966,4.354,11.46,7.79,18.507
				c-0.949-5.091-1.944-9.991-2.371-13.129c-0.831-6.122,2.274-30.9,2.274-30.9C532.7,339.008,524.824,323.614,524.824,323.614z"/>
		</g>
		<g>
			<g>
				<path style="fill:#D43F3D;" d="M605.024,236.744l8.642-0.718c0.854-0.442,1.952-0.004,2.562,0.74
					c0.61,0.744,0.849,1.716,1.071,2.652c0.61,2.571,1.218,5.277,0.501,7.82c-0.569,2.018-1.925,3.723-3.413,5.201
					c-0.915,0.909-1.944,1.783-3.195,2.098c-1.878,0.474-3.841-0.412-5.395-1.567c-2.614-1.942-4.639-4.844-4.978-8.083
					S602.083,238.144,605.024,236.744z"/>
			</g>
			<g>
				<g>
					<g>
						<path style="fill:#733E13;" d="M613.503,204.881l3.447-3.529c0.571-0.006,1.27,0.107,1.468,0.643
							c0.197,0.531-0.242,1.059-0.555,1.531c-0.374,0.563-0.598,1.225-0.644,1.899c-0.026,0.381-0.006,0.795-0.232,1.103
							c-0.186,0.253-0.51,0.378-0.823,0.383c-0.314,0.005-0.62-0.094-0.908-0.219c-0.408-0.176-0.794-0.403-1.146-0.674
							C613.75,205.739,613.396,205.323,613.503,204.881z"/>
					</g>
					<g>
						<g>
							<path style="fill:#A46C35;" d="M608.909,196.897c0.946-1.165,2.388-4.098,4.917-3.638c2.529,0.46,5.862,4.482,6.321,5.172
								c0.46,0.69-0.825,4.321-1.186,4.411c-0.361,0.09-1.443,0-1.714-0.541c-0.135-0.271,0.113-0.902,0.338-1.556
								c0.226-0.654,0.429-1.331,0.203-1.691c-0.451-0.722-2.706-2.239-2.796-2.157c-0.09,0.082,1.214,1.969,2.004,3.119
								c0.789,1.15-0.29,3.097-0.651,3.278c-0.066,0.033-0.157,0.051-0.255,0.063c0.011,0.136,0.01,0.272-0.028,0.406
								c-0.111,0.4-0.45,0.673-0.824,0.876c0.044,0.542,0.029,1.182-0.156,1.812c-0.451,1.534-2.796,2.012-3.247,4.163
								c0.09-0.014-3.518,0.798-4.961-0.735C605.43,208.345,607.616,198.489,608.909,196.897z"/>
						</g>
						<path style="fill:#733E13;" d="M616.122,203.37c-0.066-0.071-0.176-0.15-0.145-0.224c0.029-0.105,0.049-0.214-0.004-0.314
							c-0.231-0.422-0.369-0.805-0.384-1.256c-0.017-0.219-0.009-0.459-0.102-0.659c-0.143-0.339-0.364-0.641-0.629-0.895
							c-0.175-0.171-0.401-0.294-0.603-0.429c-0.328-0.219-0.652-0.426-0.882-0.746c-0.183-0.244-0.304-0.57-0.476-0.842
							c-0.023-0.039-0.063-0.059-0.088-0.096c-0.016-0.021-0.034-0.045-0.038-0.075c-0.003-0.022,0.003-0.054,0.012-0.062
							c0.008-0.007,0.039-0.004,0.063-0.004c0.018,0,0.03,0.015,0.045,0.023c0.267,0.127,0.457,0.345,0.66,0.546
							c0.129,0.133,0.315,0.205,0.461,0.322c0.075,0.059,0.092,0.177,0.169,0.233c0.187,0.136,0.393,0.258,0.563,0.42
							c0.033,0.03,0.003,0.114,0.036,0.144c0.23,0.194,0.431,0.427,0.547,0.71c0.095,0.235,0.175,0.471,0.292,0.686
							c0.119,0.223,0.276,0.434,0.377,0.672c0.103,0.217,0.123,0.459,0.162,0.692c0.022,0.111,0.109,0.211,0.133,0.325
							c0.021,0.169,0.018,0.343-0.022,0.514c-0.022,0.07-0.048,0.139-0.084,0.208C616.17,203.295,616.143,203.325,616.122,203.37z"
							/>
						<path style="fill:#733E13;" d="M615.21,204.643c-0.04,0.072-0.165,0.166-0.23,0.098c-0.089-0.078-0.137-0.161-0.235-0.202
							c-0.413-0.225-0.618-0.503-0.738-0.883c-0.062-0.181-0.093-0.39-0.207-0.538c-0.177-0.256-0.403-0.476-0.66-0.658
							c-0.168-0.123-0.381-0.198-0.567-0.29c-0.305-0.147-0.589-0.288-0.798-0.534c-0.165-0.187-0.283-0.462-0.463-0.668
							c-0.024-0.029-0.061-0.037-0.087-0.066c-0.016-0.016-0.035-0.033-0.042-0.059c-0.005-0.02-0.005-0.051,0.002-0.062
							c0.006-0.009,0.033-0.014,0.054-0.021c0.015-0.004,0.028,0.006,0.042,0.01c0.251,0.047,0.444,0.209,0.635,0.359
							c0.124,0.096,0.291,0.135,0.429,0.218c0.068,0.044,0.086,0.15,0.157,0.189c0.172,0.096,0.361,0.179,0.519,0.298
							c0.03,0.023,0.004,0.103,0.034,0.125c0.213,0.141,0.405,0.311,0.526,0.538c0.101,0.187,0.197,0.374,0.333,0.529
							c0.14,0.159,0.319,0.29,0.46,0.452c0.139,0.143,0.213,0.331,0.313,0.499c0.05,0.077,0.162,0.126,0.213,0.188
							c0.068,0.103,0.118,0.198,0.167,0.285c0.017,0.041,0.037,0.082,0.072,0.124C615.155,204.594,615.173,204.623,615.21,204.643z"
							/>
						<path style="fill:#733E13;" d="M615.067,204.891c0.073,0.056,0.187,0.153,0.145,0.238c-0.044,0.118-0.097,0.216-0.101,0.34
							c-0.008,0.261-0.149,0.547-0.397,0.705c-0.241,0.164-0.557,0.191-0.82,0.095c-0.272-0.092-0.43-0.305-0.613-0.432
							c-0.301-0.229-0.627-0.42-0.973-0.584c-0.228-0.11-0.489-0.172-0.727-0.267c-0.388-0.15-0.764-0.317-1.05-0.614
							c-0.226-0.226-0.388-0.541-0.592-0.798c-0.028-0.037-0.07-0.053-0.099-0.089c-0.018-0.02-0.039-0.042-0.047-0.071
							c-0.005-0.021-0.003-0.055,0.005-0.063c0.007-0.008,0.039-0.008,0.063-0.01c0.018-0.001,0.032,0.012,0.048,0.019
							c0.283,0.103,0.498,0.303,0.728,0.481c0.147,0.118,0.343,0.166,0.507,0.26c0.083,0.048,0.121,0.161,0.207,0.204
							c0.211,0.102,0.437,0.182,0.639,0.295c0.039,0.022,0.031,0.11,0.071,0.13c0.273,0.128,0.529,0.282,0.741,0.498
							c0.174,0.18,0.352,0.359,0.56,0.487c0.215,0.135,0.451,0.179,0.651,0.16c0.185-0.021,0.383-0.031,0.549-0.136
							c0.078-0.054,0.092-0.167,0.133-0.237c0.075-0.101,0.145-0.209,0.214-0.336c0.035-0.051,0.067-0.107,0.101-0.169
							C615.026,204.969,615.051,204.939,615.067,204.891z"/>
					</g>
				</g>
				<path style="fill:#A46C35;" d="M606.398,208.571l5.436,2.042c0.723,4.736,1.846,23.666,2.603,27.633
					c0.756,3.966-4.641,12.251-7.277,10.745c-2.636-1.506-5.147-6.653-5.523-9.289C601.26,237.066,606.392,209.831,606.398,208.571z
					"/>
			</g>
			<ellipse style="fill:#E8DDC8;" cx="636.721" cy="459.426" rx="58.661" ry="4.106"/>
			<path style="fill:#42240B;" d="M618.016,362.439c0.385-2.906,0.419-5.846,0.559-8.774c0.138-2.931,0.182-5.866,0.352-8.798
				c0.173-2.932,0.394-5.865,0.49-8.802c0.086-2.937,0.064-5.876,0.001-8.814c-0.156-5.876-0.213-11.754-0.341-17.614
				c-0.006-0.732-0.037-1.46-0.058-2.182c-0.05-0.298,0.003-0.662-0.145-0.89c-0.133-0.279-0.308-0.598-0.497-0.901
				c-0.75-1.229-1.594-2.443-2.406-3.668c-0.817-1.225-1.596-2.481-2.331-3.766c-0.369-0.641-0.7-1.307-1.006-1.984
				c-0.269-0.691-0.578-1.39-0.58-2.157l0.105-0.003c0.274,1.423,1.157,2.645,1.935,3.865c0.805,1.219,1.689,2.388,2.552,3.573
				c0.864,1.189,1.751,2.352,2.588,3.597c0.21,0.314,0.414,0.626,0.602,1.007c0.236,0.424,0.187,0.836,0.259,1.256
				c0.037,0.747,0.083,1.486,0.104,2.223c0.123,5.892,0.038,11.77-0.206,17.649c-0.118,2.939-0.213,5.877-0.237,8.816l0.046,8.824
				c-0.018,2.942-0.219,5.88-0.421,8.817c-0.274,2.928-0.494,5.884-1.264,8.75L618.016,362.439z"/>
			<g>
				<g>
					<path style="fill:#CF9E76;" d="M625.855,451.074c2.077,0.153,4.114-0.566,6.031-1.379c5.246-2.225,10.111-5.231,14.768-8.532
						c-0.451-0.915-0.781-1.656-0.785-2.06c-0.01-1.083-0.592-5.178-0.592-5.178l-12.808,3.741c0,0,0.529,2.176-0.654,3.212
						c-0.697,0.61-5.285,4.649-9.187,7.964c0.091,0.361,0.242,0.703,0.479,1.006C623.744,450.662,624.825,450.999,625.855,451.074z"
						/>
					<path style="fill:#852424;" d="M648.975,446.5c-0.464-1.763-1.563-3.797-2.322-5.337c-4.656,3.3-9.522,6.306-14.768,8.532
						c-1.917,0.813-3.954,1.532-6.031,1.379c-1.031-0.076-2.112-0.412-2.749-1.226c-0.238-0.303-0.388-0.645-0.479-1.006
						c-2.726,2.316-5.12,4.281-5.607,4.463c-1.183,0.444-6.509,2.811-4.438,5.03c2.071,2.219,8.728,1.332,13.315,1.184
						c4.586-0.148,17.457-7.989,18.049-7.545c0.592,0.444,0,6.509,0,6.509s1.923,1.479,4.438-0.444
						C648.088,458.188,649.715,449.311,648.975,446.5z"/>
				</g>
				<g>
					<path style="fill:#D43F3D;" d="M621.745,181.576c0.155-0.17,0.404-0.207,0.632-0.236c2.489-0.319,4.94-0.936,7.283-1.836
						l-4.261,8.442c-1.553-1.524-2.799-3.36-3.641-5.366C621.62,182.253,621.507,181.838,621.745,181.576z"/>
				</g>
				<g>
					<path style="fill:#FFD36B;" d="M658.426,201.727l9.18-2.917c2.151-0.725,4.646-0.329,6.467,1.026
						c1.821,1.355,2.917,3.631,2.84,5.9c-0.024,0.709-0.121,1.519,0.368,2.032c0.475,0.499,1.262,0.46,1.939,0.589
						c1.748,0.333,2.969,1.932,3.709,3.55c0.741,1.618,1.193,3.395,2.258,4.822c1.318,1.767,3.398,2.768,5.395,3.702
						c-1.546,0.949-3.73,0.689-5.01-0.596c1.469,1.637,3.508,2.753,5.679,3.107c0.492,2.691-2.29,5.081-5.021,5.235
						c-2.732,0.154-5.288-1.232-7.655-2.603c1.531,1.309,3.062,2.618,4.593,3.927c-4.136,2.827-10.536,1.412-13.096-2.894
						c-0.717-1.206-1.615-2.824-2.985-2.524c-0.431,0.095-0.809,0.387-1.249,0.424c-0.471,0.04-0.912-0.221-1.298-0.494
						c-3.293-2.335-5.193-6.244-5.937-10.211C657.858,209.833,658.141,205.754,658.426,201.727z"/>
				</g>
				<g>
					<path style="fill:#D43F3D;" d="M658.187,203.604l10.042-4.434c0.852,0.254,1.569,0.921,1.884,1.751
						c0.116,0.306,0.179,0.646,0.093,0.962c-0.11,0.402-0.44,0.704-0.611,1.084c-0.294,0.653-0.077,1.407-0.03,2.122
						c0.046,0.715-0.238,1.599-0.945,1.709c-0.27,0.042-0.554-0.044-0.818,0.028c-0.662,0.179-0.706,1.098-1.107,1.654
						c-0.493,0.682-1.523,0.738-2.302,0.421c-0.779-0.318-1.406-0.915-2.112-1.372c-0.139-0.09-0.292-0.178-0.458-0.178
						c-0.178,0-0.339,0.101-0.508,0.156c-0.373,0.121-0.784,0.015-1.139-0.15C658.798,206.714,657.945,205.104,658.187,203.604z"/>
				</g>
				<g>
					<path style="fill:#FFD36B;" d="M628.212,171.052c0.519-0.477,1.181-0.899,1.345-1.584c0.12-0.501-0.062-1.017-0.188-1.517
						c-0.434-1.732-0.037-3.832,1.47-4.79c0.613-0.39,1.352-0.557,1.947-0.974c0.835-0.585,1.273-1.568,1.835-2.419
						c1.644-2.484,4.678-3.979,7.65-3.769c1.352,0.096,2.686,0.516,4.037,0.406c0.896-0.072,1.755-0.375,2.63-0.579
						c2.646-0.616,5.681-0.215,7.634,1.675c1.434,1.388,2.154,3.422,3.708,4.676c1.28,1.033,2.954,1.398,4.484,2.003
						c1.53,0.605,3.089,1.652,3.429,3.262c0.088,0.415,0.091,0.859,0.29,1.234c0.32,0.606,1.038,0.856,1.661,1.14
						c2.262,1.031,3.967,3.205,4.43,5.647c0.729,3.847-1.461,7.587-3.626,10.849c-0.315,0.474-0.638,0.964-0.74,1.523
						c-0.32,1.753,1.523,3.051,2.393,4.606c1.041,1.861,0.6,4.332-0.773,5.963c-1.373,1.631-3.521,2.478-5.649,2.61
						c-1.098,0.068-2.411,0.067-3.008,0.991c-0.427,0.662-0.281,1.539-0.528,2.287c-0.396,1.199-1.73,1.844-2.986,1.973
						c-1.256,0.129-2.522-0.122-3.783-0.064c-0.369,0.017-0.751,0.065-1.06,0.266c-0.921,0.598-0.775,2.215-1.764,2.691
						c-0.729,0.351-1.551-0.159-2.275-0.522c-1.758-0.881-3.924-0.901-5.698-0.053c-0.64,0.306-1.379,0.723-2.004,0.387
						c-0.277-0.149-0.463-0.421-0.638-0.683c-2.308-3.463-4.702-7.19-4.737-11.351l-7.892-17.723
						c-1.555-0.58-2.763-2.005-3.081-3.634C626.406,173.949,626.99,172.174,628.212,171.052z"/>
				</g>
				<g>
					<defs>
						<path id="SVGID_1_" d="M622.151,190.775c0.297-0.812,4.828-8.171,5.777-10.768s1.063-8.444,6.639-14.133
							c-0.059,0.162,6.52,3.304,9.09,3.323c2.569,0.019,1.296,10.042,1.296,10.042s-8.121,8.624-7.428,9.245
							c0.504,0.452,1.287,0.131,1.678-0.077c-0.71,0.428-2.678,1.736-1.195,2.278c1.785,0.653,6.847-6.145,7.723-0.489
							c0.876,5.657-5.311,5.971-5.77,6.723c-0.459,0.752,2.784,11.499,2.784,11.499l-11.917,9.444c0,0,5.222-12.762,3.105-14.017
							c-2.117-1.255-12.391-1.842-12.66-4.629c-0.269-2.787,2.588-7.079,2.588-7.079S621.854,191.586,622.151,190.775z"/>
					</defs>
					<clipPath id="SVGID_00000005245633597157494730000015341403809924290727_">
						<use xlink:href="#SVGID_1_"  style="overflow:visible;"/>
					</clipPath>
					<g style="clip-path:url(#SVGID_00000005245633597157494730000015341403809924290727_);">
						<path style="fill:#E4BCAA;" d="M639.204,188.406c0.145-0.087,0.241-0.141,0.241-0.141S639.35,188.328,639.204,188.406z"/>
						<path style="fill:#A46C35;" d="M622.151,190.775c0.297-0.812,4.828-8.171,5.777-10.768s1.063-8.444,6.639-14.133
							c-0.059,0.162,6.52,3.304,9.09,3.323c2.569,0.019,1.296,10.042,1.296,10.042s-8.121,8.624-7.428,9.245
							c0.504,0.452,1.287,0.131,1.678-0.077c-0.71,0.428-2.678,1.736-1.195,2.278c1.785,0.653,6.847-6.145,7.723-0.489
							c0.876,5.657-5.311,5.971-5.77,6.723c-0.459,0.752,2.784,11.499,2.784,11.499l-11.917,9.444c0,0,5.222-12.762,3.105-14.017
							c-2.117-1.255-12.391-1.842-12.66-4.629c-0.269-2.787,2.588-7.079,2.588-7.079S621.854,191.586,622.151,190.775z"/>
						<g>
							<path d="M647.398,191.298c-1.368-1.038-3.215-1.404-4.869-0.912c-1.56,0.464-2.859,1.645-3.491,3.14
								c-0.157,0.371,0.388,0.694,0.546,0.319c0.57-1.35,1.697-2.428,3.113-2.85c1.508-0.449,3.138-0.094,4.381,0.848
								C647.403,192.09,647.719,191.541,647.398,191.298L647.398,191.298z"/>
							<path d="M640.668,192.172c0.471,0.183,0.807,0.524,1.027,0.972c0.179,0.366,0.725,0.045,0.546-0.319
								c-0.297-0.607-0.781-1.02-1.405-1.263C640.456,191.414,640.292,192.026,640.668,192.172L640.668,192.172z"/>
						</g>
					</g>
				</g>
				<path style="fill:#C4B272;" d="M647.059,387.556c-0.914-6.735-2.114-6.46-1.329-14.595c0.785-8.135,14.386-72.121,13.522-75.333
					c-0.863-3.211-8.741-18.829-8.741-18.829l-35.403-1.851l-0.873,4.999c0,0-2.161,2.138-4.258,11.71
					c-2.096,9.573,8.607,68.865,8.209,77.038c-0.397,8.173-1.569,16.271-1.056,19.057c0.513,2.787,3.201,7.347,3.201,7.347
					s-2.385,4.462-1.046,10.847c1.339,6.385,8.106,25.415,7.844,28.127c-0.262,2.712,20.308,4.305,21.307,2.055
					C649.436,435.878,647.974,394.291,647.059,387.556z"/>
				<g>
					<defs>
						<path id="SVGID_00000118397784301514660290000013951815907321369274_" d="M647.059,387.556
							c-0.914-6.735-2.114-6.46-1.329-14.595c0.785-8.135,14.386-72.121,13.522-75.333c-0.863-3.211-8.741-18.829-8.741-18.829
							l-35.403-1.851l-0.873,4.999c0,0-2.161,2.138-4.258,11.71c-2.096,9.573,8.607,68.865,8.209,77.038
							c-0.397,8.173-1.569,16.271-1.056,19.057c0.513,2.787,3.201,7.347,3.201,7.347s-2.385,4.462-1.046,10.847
							c1.339,6.385,8.106,25.415,7.844,28.127c-0.262,2.712,20.308,4.305,21.307,2.055
							C649.436,435.878,647.974,394.291,647.059,387.556z"/>
					</defs>
					<clipPath id="SVGID_00000142862730681294306690000008126055821954149256_">
						<use xlink:href="#SVGID_00000118397784301514660290000013951815907321369274_"  style="overflow:visible;"/>
					</clipPath>
					
						<rect x="637.239" y="253.568" transform="matrix(0.0159 -0.9999 0.9999 0.0159 345.0435 915.8978)" style="clip-path:url(#SVGID_00000142862730681294306690000008126055821954149256_);fill:#42240B;" width="1.168" height="58.178"/>
					<path style="clip-path:url(#SVGID_00000142862730681294306690000008126055821954149256_);fill:#42240B;" d="M617.006,281.974
						c0.061-2.634,0.122-5.267,0.183-7.901c0.017-0.75,1.185-0.753,1.168,0c-0.061,2.634-0.122,5.267-0.183,7.901
						C618.156,282.724,616.988,282.727,617.006,281.974L617.006,281.974z"/>
					<path style="clip-path:url(#SVGID_00000142862730681294306690000008126055821954149256_);fill:#42240B;" d="M621.279,281.798
						c-0.026-2.541-0.051-5.082-0.077-7.624c-0.008-0.752,1.16-0.752,1.167,0c0.026,2.541,0.051,5.082,0.077,7.624
						C622.454,282.55,621.287,282.551,621.279,281.798L621.279,281.798z"/>
					<path style="clip-path:url(#SVGID_00000142862730681294306690000008126055821954149256_);fill:#42240B;" d="M624.888,282.004
						c0.22-2.276,0.439-4.552,0.659-6.828c0.071-0.741,1.24-0.749,1.168,0c-0.22,2.276-0.439,4.552-0.659,6.828
						C625.984,282.745,624.815,282.753,624.888,282.004L624.888,282.004z"/>
					<path style="clip-path:url(#SVGID_00000142862730681294306690000008126055821954149256_);fill:#42240B;" d="M630.259,282.543
						c-0.672-2.486-0.909-4.999-0.699-7.567c0.061-0.744,1.229-0.75,1.168,0c-0.201,2.464,0.012,4.868,0.657,7.256
						C631.581,282.959,630.455,283.269,630.259,282.543L630.259,282.543z"/>
					<path style="clip-path:url(#SVGID_00000142862730681294306690000008126055821954149256_);fill:#42240B;" d="M635.084,282.103
						c0.324-2.039,0.39-4.078,0.229-6.135c-0.059-0.749,1.109-0.745,1.168,0c0.169,2.166,0.07,4.301-0.27,6.445
						C636.092,283.153,634.967,282.839,635.084,282.103L635.084,282.103z"/>
					<path style="clip-path:url(#SVGID_00000142862730681294306690000008126055821954149256_);fill:#42240B;" d="M638.918,282.477
						c0.238-2.47,0.476-4.939,0.715-7.409c0.071-0.741,1.24-0.749,1.167,0c-0.238,2.47-0.476,4.939-0.715,7.409
						C640.014,283.219,638.846,283.226,638.918,282.477L638.918,282.477z"/>
				</g>
				<path style="fill:#852424;" d="M632.653,212.93l19.222-0.959c6.232,0.504,7.025,2.271,11.445,6.69
					c4.419,4.419,16.589,42.167,15.41,45.243c-1.179,3.075-9.432,8.605-9.432,8.605l-12.959-5.518c0,0,2.961-8.262,2.954-11.208
					c-0.007-2.946-4.786-14.072-4.786-14.072s-3.77,10.754-2.607,14.072c1.163,3.318,4.624,18.469,2.469,21.167
					c-2.155,2.697-36.297,3.485-39.26-0.002c-1.696-1.997-3.227-17.207,0.125-34.069
					C604.996,235.248,622.071,220.116,632.653,212.93z"/>
				<path style="fill:#752020;" d="M644.883,263.903c-4.656-8.472,3.073-14.591,4.723-18.279c1.649-3.689,1.274-9.091,1.274-9.091
					l3.626,5.179c0,0-3.77,10.754-2.607,14.072c1.056,3.012,4.004,15.774,2.927,20.12
					C651.188,272.39,647.115,267.963,644.883,263.903z"/>
				<path style="fill:#D43F3D;" d="M654.602,266.202c0.047-2.082-0.441-6.646,3.492-7.338c3.933-0.693,12.739,0.28,14.728,6.414
					c1.99,6.135,1.364,10.854-2.794,11.522C665.869,277.468,654.403,275.031,654.602,266.202z"/>
				<path style="fill:#A46C35;" d="M654.762,265.132c0,0,6.766-3.257,10.672,0.834c3.906,4.091,3.25,6.74,3.25,6.74l-26.76,20.122
					l-3.638-4.848L654.762,265.132z"/>
				<path style="fill:#42240B;" d="M636.742,286.575c0.779,0.323,1.532,2.118,1.994,2.847c0.639,1.007,1.268,2.02,1.929,3.012
					c1.146,1.722,2.388,3.348,3.845,4.821c0.478,0.483,1.224-0.262,0.746-0.746c-1.987-2.009-3.529-4.335-5.035-6.712
					c-0.822-1.296-1.704-3.62-3.198-4.239C636.396,285.298,636.123,286.318,636.742,286.575L636.742,286.575z"/>
				<path style="fill:#42240B;" d="M641.707,305.308c-1.442,2.444-3.913,4.015-6.747,4.241c-0.672,0.053-0.678,1.108,0,1.054
					c3.213-0.256,6.017-1.982,7.658-4.763C642.964,305.255,642.052,304.724,641.707,305.308L641.707,305.308z"/>
				<path style="fill:#42240B;" d="M638.029,305.862c-1.983,1.938-4.712,2.192-7.348,2.382c-0.673,0.048-0.678,1.103,0,1.055
					c2.928-0.21,5.901-0.547,8.094-2.69C639.261,306.132,638.515,305.387,638.029,305.862L638.029,305.862z"/>
				<path d="M630.276,179.661c-0.478,1.611-1.239,3.097-2.25,4.438c-0.49,0.65,0.608,1.282,1.093,0.639
					c1.073-1.424,1.871-3.031,2.378-4.74C631.728,179.215,630.507,178.881,630.276,179.661L630.276,179.661z"/>
				<path style="fill:#FFD36B;" d="M636.777,178.706c-0.164-1.514-0.652-2.985-1.607-4.189c-0.805-1.014-2.485-2.412-3.821-1.509
					c-0.559,0.378-0.032,1.292,0.532,0.911c0.916-0.62,2.259,0.914,2.708,1.579c0.643,0.95,1.009,2.072,1.133,3.208
					C635.795,179.373,636.851,179.38,636.777,178.706L636.777,178.706z"/>
				<path d="M623.438,192.732c0.947,0.306,1.927,0.44,2.922,0.4c0.406-0.016,0.408-0.649,0-0.633
					c-0.942,0.038-1.856-0.087-2.753-0.377C623.217,191.996,623.051,192.607,623.438,192.732L623.438,192.732z"/>
				<g>
					<g>
						<path d="M628.464,190.506c0.407,0,0.408-0.633,0-0.633C628.057,189.874,628.057,190.506,628.464,190.506L628.464,190.506z"/>
					</g>
				</g>
				<path style="fill:#D43F3D;" d="M649.606,212.084c-0.136-0.864-0.904-4.861-2.595-5.322c-1.691-0.461-12.297,1.917-12.297,1.917
					s-3.536,7.831-2.152,9.183C633.945,219.213,649.606,212.084,649.606,212.084z"/>
			</g>
		</g>
		<g>
			<g>
				<g>
					<rect x="144.978" y="398.694" style="fill:#B63634;" width="4.98" height="35.461"/>
					<path style="fill:#B63634;" d="M120.62,406.284h53.692c3.536,0,6.402-2.866,6.402-6.402v-5.151
						c0-3.536-2.866-6.402-6.402-6.402H120.62c-3.536,0-6.402,2.866-6.402,6.402v5.151
						C114.218,403.418,117.085,406.284,120.62,406.284z"/>
					<path style="fill:#B63634;" d="M188.635,436.501h-4.691v-4.417c0-2.481-2.019-4.5-4.501-4.5h-63.955
						c-2.481,0-4.5,2.019-4.5,4.5v4.417h-4.691v-4.417c0-5.068,4.123-9.191,9.191-9.191h63.955c5.069,0,9.192,4.123,9.192,9.191
						V436.501z"/>
					<path style="fill:#B63634;" d="M108.761,449.78c-4.955,0-8.985-4.031-8.985-8.986c0-4.955,4.03-8.985,8.985-8.985
						c4.954,0,8.985,4.03,8.985,8.985C117.746,445.749,113.716,449.78,108.761,449.78z M108.761,436.501
						c-2.367,0-4.294,1.926-4.294,4.294c0,2.368,1.926,4.295,4.294,4.295c2.367,0,4.294-1.926,4.294-4.295
						C113.055,438.427,111.128,436.501,108.761,436.501z"/>
					<path style="fill:#B63634;" d="M186.29,449.78c-4.954,0-8.986-4.031-8.986-8.986c0-4.955,4.031-8.985,8.986-8.985
						c4.955,0,8.985,4.03,8.985,8.985C195.275,445.749,191.244,449.78,186.29,449.78z M186.29,436.501
						c-2.368,0-4.295,1.926-4.295,4.294c0,2.368,1.926,4.295,4.295,4.295c2.367,0,4.294-1.926,4.294-4.295
						C190.583,438.427,188.657,436.501,186.29,436.501z"/>
					<path style="fill:#B63634;" d="M147.468,449.78c-4.954,0-8.985-4.031-8.985-8.986c0-4.955,4.03-8.985,8.985-8.985
						c4.955,0,8.985,4.03,8.985,8.985C156.452,445.749,152.422,449.78,147.468,449.78z M147.468,436.501
						c-2.367,0-4.294,1.926-4.294,4.294c0,2.368,1.926,4.295,4.294,4.295c2.367,0,4.294-1.926,4.294-4.295
						C151.761,438.427,149.835,436.501,147.468,436.501z"/>
				</g>
				<path style="fill:#B63634;" d="M126.969,403.387c-1.618,0-3.192-0.838-4.062-2.337c-19.256-33.185-18.974-61.895-18.952-63.101
					c0.045-2.562,2.136-4.608,4.689-4.608c0.027,0,0.056,0,0.085,0.001c2.587,0.046,4.649,2.178,4.606,4.766l0,0
					c-0.003,0.27-0.184,27.435,17.688,58.233c1.3,2.241,0.537,5.112-1.703,6.413C128.578,403.182,127.768,403.387,126.969,403.387z"
					/>
				<g>
					<path style="fill:#852424;" d="M189.505,388.072H109.6c-2.877,0-5.209-2.332-5.209-5.209v-9.291
						c0-2.877,2.332-5.209,5.209-5.209h79.904c2.877,0,5.209,2.332,5.209,5.209v9.291
						C194.714,385.74,192.382,388.072,189.505,388.072z"/>
					<path d="M190.463,393.796h-81.82c-2.348,0-4.251-1.903-4.251-4.251v-6.682h90.323v6.682
						C194.714,391.892,192.811,393.796,190.463,393.796z"/>
				</g>
				<path style="fill:#852424;" d="M75.665,306.141c1.472-6.318,13.359-9.157,26.032-9.757c13.727-0.649,28.378,1.329,31.719,4.367
					c7.391,6.72,3.046,18.118,2.757,25.071c-0.29,6.953,7.836,18.517,6.083,26.478c-1.159,5.26-18.945,7.267-34.579,6.667
					c-11.287-0.433-21.453-2.224-23.429-5.133C79.535,346.897,72.914,317.952,75.665,306.141z"/>
				<path style="fill:#DDF4B8;" d="M135.643,315.023c0.853-4.264-1.919-34.144,0.64-38.605c2.559-4.461,18.996-10.716,18.996-10.716
					l15.538-1.009c2.976,1.262,10.839,3.19,14.109,7.904c3.271,4.713,20.393,36.553,21.932,37.804
					c1.539,1.25,5.689,8.709,3.486,11.05c-2.203,2.341-10.465,4.694-12.944,2.278c-2.479-2.416-13.082-19.216-13.082-19.216
					s-3.856,4.131-4.131,5.646c-0.275,1.515-0.838,40.041-2.117,42.386c-1.279,2.345-11.299,6.609-17.056,4.691
					c-0.213,0-30.274,1.279-34.112-8.741C123.065,338.475,134.79,319.287,135.643,315.023z"/>
				<path style="fill:#A9C280;" d="M165.711,260.873c0,0-1.806,2.276-2.484,4.293l-0.632,0.5l11.769,8.545l1.991-7.421
					L165.711,260.873z"/>
			</g>
			<polygon style="fill:#966F5A;" points="113.055,325.075 113.055,330.257 294.017,330.257 298.251,330.257 298.251,325.075 			"/>
			<path style="fill:#C2A393;" d="M294.017,330.257H113.055v119.778h5.814v-2.662c0-1.404,1.138-2.543,2.543-2.543h165.556
				c1.404,0,2.543,1.138,2.543,2.543v2.662h4.507V330.257z"/>
			<polygon style="fill:#755646;" points="55.171,330.257 59.405,330.257 113.055,330.257 113.055,325.075 55.171,325.075 			"/>
			<g>
				<path style="fill:#A1877A;" d="M113.055,330.257h-53.65v119.778h4.637v-4.556c0-1.404,1.138-2.543,2.543-2.543h39.634
					c1.404,0,2.543,1.138,2.543,2.543v4.556h4.294V330.257z"/>
			</g>
			<g>
				<path style="fill:#C46060;" d="M178.154,233.13c0.323,1.262,1.192,2.367,2.326,3.005c0.639-0.801,3.169-4.053,2.843-4.924
					c-0.373-0.996-3.734,0.498-5.228,0c-0.006-0.002-0.01-0.01-0.016-0.012C177.977,231.84,177.993,232.5,178.154,233.13z"/>
				<path style="fill:#8E572A;" d="M180.833,243.533c-0.124-0.871-4.481-2.24-3.782-3.236c0.699-0.996,3.035,0.373,3.657,0
					c0.622-0.373,0.622-1.494,0.249-1.992c-0.373-0.498-0.622-1.992-0.622-1.992s0.053-0.065,0.145-0.18
					c-1.133-0.638-2.003-1.743-2.326-3.005c-0.161-0.63-0.177-1.29-0.075-1.931c-1.474-0.569-1.072-10.808-7.328-17.538
					c1.743,11.701-12.447,24.77-12.821,25.268c-0.373,0.498,1.867,8.838,1.12,8.713c-0.747-0.125-3.859-4.232-4.854-5.477
					c-0.996-1.245-5.85-1.743-5.477,4.232c0.373,5.975,6.597,4.232,7.82,4.606c1.223,0.373,1.142,11.825,0.893,12.653
					c-0.598,1.989-2.614,1.786-2.987,2.782c-0.373,0.996,10.946,10.883,11.942,10.883c0.996,0,6.671-9.016,6.915-10.089
					c0.244-1.073-2.236-2.039-2.485-2.537c-0.249-0.498,0.059-7.717-0.066-8.713c-0.124-0.996,7.717-4.356,8.464-4.481
					c0.747-0.124,2.116-1.369,2.116-1.992c0-0.622-0.498-3.361-0.498-4.232C180.833,244.405,180.957,244.405,180.833,243.533z"/>
			</g>
			<g>
				<path d="M175.199,233.383c-0.626-1.689-1.357-3.286-1.796-5.044c-0.211-0.847-1.386-0.474-1.275,0.341
					c0.25,1.823,0.625,3.723,1.462,5.376C174.032,234.927,175.546,234.32,175.199,233.383z"/>
				<path d="M173.368,222.665c-1.792-2.222-4.673,0.77-5.124,2.616c-0.095,0.388,0.486,0.67,0.671,0.28
					c0.556-1.171,2.238-2.668,3.616-1.798C173.248,224.216,173.832,223.239,173.368,222.665z"/>
			</g>
			<path style="fill:#E69898;" d="M171.576,240.927c0,1.695-1.374,3.069-3.069,3.069c-1.695,0-3.069-1.374-3.069-3.069
				c0-1.695,1.374-3.07,3.069-3.07C170.202,237.858,171.576,239.232,171.576,240.927z"/>
			<path style="fill:#A9C280;" d="M183.931,304.211c2.505-3.766,4.452-7.503,3.257-12.141c-0.758-2.943-2.303-5.663-3.387-8.494
				c-0.177-0.462,0.61-0.796,0.805-0.336c1.515,3.582,3.883,7.131,4.265,11.085c0.386,3.987-1.65,7.381-3.803,10.553
				C184.596,305.576,183.458,304.922,183.931,304.211L183.931,304.211z"/>
			<g>
				<path style="fill:#A9C280;" d="M152.231,287.53c-1.072,7.696-1.525,15.478-1.354,23.247"/>
			</g>
			<path style="fill:#A9C280;" d="M136.692,312.871c1.456-3.468,10.675-4.003,13.708-2.711c3.033,1.292,5.141,3.051,4.852,6.229
				c-0.971,10.675-16.862,10.554-19.409,7.341C133.296,320.517,135.236,316.339,136.692,312.871z"/>
			<path style="fill:#A9C280;" d="M195.928,312.871c2.896-3.729,10.675-4.003,13.708-2.711c3.033,1.292,5.141,3.051,4.852,6.229
				c-0.97,10.675-16.862,10.554-19.409,7.341C192.532,320.517,193.622,315.842,195.928,312.871z"/>
			<g>
				<path style="fill:#8E572A;" d="M140.589,323.73c-1.835-1.207,4.689-10.708,8.964-11.064c4.275-0.355,22.452,3.985,24.751,2.759
					c2.299-1.226,5.977-8.122,10.268-8.276c4.291-0.153,7.415-0.307,9.961,2.146c2.546,2.453,5.364,8.079,4.291,8.254
					c-1.073,0.175-2.079,0.929-2.624-0.336c-0.545-1.265-1.149-4.617-2.587-5.44c-1.437-0.822-4.347-2.087-4.284-1.613
					c0.063,0.474,3.697,1.802,4.284,3.068c0.587,1.265,3.496,5.376,3.054,6.262s-1.581,1.645-2.024,1.075
					c-0.443-0.569-2.434-3.922-2.434-3.922s1.991,4.161,1.612,4.484c-0.379,0.323-0.443,1.082-1.708,0.513
					c-1.265-0.569-3.479-4.364-4.364-4.997c-0.886-0.633-4.238-2.467-4.301-1.961c-0.063,0.506,2.783,2.19,3.732,2.866
					c0.949,0.676,4.813,4.558,4.111,5.167c-0.701,0.609-0.947,1.302-1.77,0.651c-0.823-0.651-2.657-3.308-3.543-3.687
					c-0.886-0.379-2.973-1.328-3.542-0.886s-6.009,5.411-11.069,3.591C166.306,320.565,144.52,326.318,140.589,323.73z"/>
				<path style="fill:#E0B094;" d="M192.938,317.148c-1.81-2.439-4.139-4.392-6.986-5.488c-0.194-0.075-0.324,0.241-0.14,0.336
					c2.597,1.341,4.863,3.091,6.589,5.468C192.635,317.785,193.177,317.469,192.938,317.148L192.938,317.148z"/>
			</g>
			<path style="fill:#8E572A;" d="M200.187,325.632c-2.19-0.172-1.06-11.641,2.514-14.016c3.573-2.374,21.588-7.343,23.01-9.526
				c1.422-2.183,1.316-9.998,5-12.203c3.685-2.205,6.347-3.847,9.76-2.927c3.413,0.92,8.596,4.488,7.741,5.159
				c-0.855,0.671-1.373,1.817-2.461,0.972c-1.088-0.845-3.235-3.49-4.89-3.516c-1.656-0.027-4.814,0.27-4.53,0.654
				c0.284,0.385,4.108-0.205,5.232,0.62c1.124,0.825,5.657,3.022,5.696,4.011c0.039,0.989-0.592,2.203-1.254,1.918
				c-0.663-0.285-4.024-2.261-4.024-2.261s3.752,2.684,3.575,3.15c-0.177,0.466,0.134,1.161-1.249,1.273
				c-1.383,0.112-5.153-2.144-6.234-2.271c-1.081-0.127-4.902-0.116-4.713,0.358c0.189,0.474,3.494,0.576,4.652,0.71
				c1.157,0.134,6.415,1.669,6.094,2.542c-0.321,0.872-0.201,1.598-1.236,1.424c-1.035-0.173-3.924-1.615-4.882-1.52
				c-0.959,0.095-3.245,0.271-3.53,0.934c-0.285,0.662-2.652,7.639-7.963,8.486C221.186,310.452,204.879,326.001,200.187,325.632z"
				/>
			<g>
				<path style="fill:#B63634;" d="M226.636,325.075h21.731c1.437,0,3.005-2.21,3.501-4.935l6.553-36.012
					c0.496-2.726-0.267-4.935-1.704-4.935h-21.731c-1.437,0-3.004,2.209-3.5,4.935l-6.553,36.012
					C224.436,322.866,225.199,325.075,226.636,325.075z"/>
				<path style="fill:#D43F3D;" d="M227.801,325.075h22.646c1.498,0,3.131-2.21,3.648-4.935l6.829-36.012
					c0.517-2.726-0.278-4.935-1.776-4.935h-22.646c-1.498,0-3.131,2.209-3.648,4.935l-6.829,36.012
					C225.508,322.866,226.304,325.075,227.801,325.075z"/>
				<path style="fill:#F1FFB2;" d="M242.545,300.973c-0.84,3.416-0.173,6.554,1.488,7.009c1.662,0.455,3.689-1.946,4.529-5.362
					c0.84-3.416,0.173-6.554-1.488-7.009C245.413,295.157,243.385,297.557,242.545,300.973z"/>
				<path style="fill:#B63634;" d="M186.443,323.891l38.337-1.506l1.856,2.69c0,0-26.752,0-34.287,0
					C184.814,325.075,186.443,323.891,186.443,323.891z"/>
			</g>
		</g>
		<path style="fill:#A9C280;" d="M154.726,262.949c0,0-2.166,1.937-3.176,3.81l-0.708,0.385l10.15,10.417l3.22-6.976
			L154.726,262.949z"/>
	</g>
</g>
</svg>
