<?xml version="1.0" encoding="utf-8"?>
<!-- Generator: Adobe Illustrator 27.5.0, SVG Export Plug-In . SVG Version: 6.00 Build 0)  -->
<svg version="1.1" xmlns="http://www.w3.org/2000/svg" xmlns:xlink="http://www.w3.org/1999/xlink" x="0px" y="0px"
	 viewBox="0 0 750 500" style="enable-background:new 0 0 750 500;" xml:space="preserve">
<g id="BACKGROUND">
	<rect style="fill:#FFFFFF;" width="750" height="500"/>
</g>
<g id="OBJECTS">
	<g>
		<defs>
			<rect id="SVGID_1_" width="750" height="500"/>
		</defs>
		<clipPath id="SVGID_00000148660542652007434850000007352156084256892037_">
			<use xlink:href="#SVGID_1_"  style="overflow:visible;"/>
		</clipPath>
		<g style="clip-path:url(#SVGID_00000148660542652007434850000007352156084256892037_);">
			<g>
				<path style="fill:#F0F8FF;" d="M696.982,396.173c-7.854-10.14-19.021-17.075-28.701-25.49
					c-9.68-8.414-18.412-19.588-18.443-32.414c-0.053-21.952,23.803-35.538,33.675-55.145c6.6-13.109,6.467-29.395-0.346-42.395
					c-6.813-13-20.13-22.376-34.666-24.407c-21.603-3.02-41.999,9.132-61.422,19.058c-19.423,9.926-43.311,17.888-62.295,7.146
					c-13.332-7.544-20.642-22.715-23.685-37.729c-3.043-15.014-2.621-30.514-4.787-45.679
					c-5.028-35.202-29.409-71.221-64.794-74.735c-22.653-2.249-44.521,9.153-62.459,23.169c-17.938,14.016-33.618,31-52.939,43.038
					c-19.321,12.038-44.103,18.608-64.916,9.385c-26.837-11.892-38.13-45.191-63.555-59.863
					c-20.092-11.594-45.979-9.211-66.839,0.936c-26.81,13.042-47.278,38.464-54.297,67.44c-7.019,28.976-0.454,60.947,17.416,84.811
					c13.726,18.33,35.005,36.298,30.699,58.79c-4.603,24.038-35.134,32.958-48.062,53.741c-7.237,11.634-8.188,26.932-2.448,39.372
					c5.74,12.44,17.997,21.644,31.545,23.688l605.85,3.007C708.609,421.215,704.835,406.313,696.982,396.173z"/>
				<path style="fill:none;stroke:#FFFFFF;stroke-width:2;stroke-miterlimit:10;" d="M680.834,398.01
					c-7.45-9.618-18.043-16.197-27.225-24.179s-17.465-18.581-17.495-30.747c-0.05-20.824,22.58-33.711,31.944-52.311
					c6.261-12.435,6.135-27.884-0.328-40.216c-6.463-12.331-19.096-21.226-32.884-23.153c-20.492-2.864-39.84,8.663-58.265,18.079
					c-18.425,9.416-41.085,16.969-59.093,6.778c-12.647-7.157-19.581-21.548-22.467-35.79c-2.886-14.242-2.486-28.946-4.541-43.331
					c-4.769-33.393-27.897-67.561-61.464-70.894c-21.489-2.134-42.233,8.683-59.249,21.978
					c-17.016,13.295-31.89,29.406-50.217,40.826c-18.328,11.42-41.836,17.651-61.579,8.903
					c-25.458-11.281-36.17-42.868-60.288-56.785c-19.059-10.998-43.615-8.738-63.403,0.888
					c-25.432,12.371-44.848,36.487-51.506,63.974c-6.658,27.486-0.43,57.814,16.521,80.452
					c13.02,17.388,33.206,34.432,29.121,55.768c-4.366,22.803-33.328,31.264-45.591,50.978c-6.865,11.036-7.767,25.548-2.322,37.349
					c5.445,11.801,17.072,20.532,29.923,22.47l574.708,2.852C691.863,421.764,688.284,407.629,680.834,398.01z"/>
			</g>
			<g>
				<g>
					<g>
						<path style="fill:#90C3E0;" d="M666.116,404.921c-5.612-1.076-10.779-4.322-14.184-8.91
							c-3.406-4.588-5.017-10.473-4.423-16.156c0.26-2.488,1.133-5.205,3.343-6.379c2.693-1.43,5.948,0.069,8.615,1.548
							c-6.437-5.148-10.211-13.894-9.557-22.109c0.171-2.145,0.859-4.586,2.835-5.437c1.246-0.537,2.723-0.269,3.914,0.38
							c1.192,0.649,2.157,1.638,3.102,2.612c-2.607-4.596-3.551-10.815-2.767-16.04c0.207-1.378,0.552-2.778,1.365-3.91
							c0.813-1.132,2.18-1.951,3.563-1.781c1.364,0.168,2.445,1.22,3.275,2.315c2.695,3.558,3.833,8.023,4.908,12.355
							c0.004-2.021,2.866-2.817,4.783-2.179c1.917,0.638,3.169,2.477,4.007,4.316c2.917,6.406,2.332,14.282-1.5,20.186
							c0.872-1.515,3.017-2.126,4.722-1.738c1.704,0.388,3.131,1.548,4.323,2.827c4.965,5.328,6.728,13.088,5.956,20.33
							c-0.771,7.242-3.827,14.054-7.469,20.361"/>
						
							<path style="fill:none;stroke:#BAE1FF;stroke-width:0.6676;stroke-linecap:round;stroke-linejoin:round;stroke-miterlimit:10;" d="
							M661.804,336.257c5.82,20.937,10.32,42.241,13.466,63.743"/>
						
							<path style="fill:none;stroke:#BAE1FF;stroke-width:0.6676;stroke-linecap:round;stroke-linejoin:round;stroke-miterlimit:10;" d="
							M653.291,354.178c0.847,3.261,2.904,6.192,5.682,8.098c2.778,1.905,6.254,2.768,9.601,2.383"/>
						
							<path style="fill:none;stroke:#BAE1FF;stroke-width:0.6676;stroke-linecap:round;stroke-linejoin:round;stroke-miterlimit:10;" d="
							M674.196,345.496c-0.122,5.184-2.526,10.274-6.454,13.66"/>
						
							<path style="fill:none;stroke:#BAE1FF;stroke-width:0.6676;stroke-linecap:round;stroke-linejoin:round;stroke-miterlimit:10;" d="
							M652.567,379.26c4.317,6.6,12.899,10.096,20.599,8.391"/>
						
							<path style="fill:none;stroke:#BAE1FF;stroke-width:0.6676;stroke-linecap:round;stroke-linejoin:round;stroke-miterlimit:10;" d="
							M681.628,367.232c0.053,6.567-3.65,13.036-9.339,16.316"/>
					</g>
					<g>
						<path style="fill:#9AD1F0;" d="M701.134,404.51c6.503-1.247,12.49-5.008,16.436-10.324c3.946-5.316,5.813-12.136,5.125-18.721
							c-0.302-2.883-1.313-6.032-3.874-7.391c-3.121-1.657-6.892,0.079-9.982,1.794c7.458-5.965,11.832-16.099,11.074-25.619
							c-0.198-2.485-0.995-5.314-3.285-6.3c-1.444-0.622-3.155-0.311-4.536,0.44c-1.381,0.752-2.499,1.898-3.594,3.026
							c3.021-5.326,4.115-12.531,3.206-18.587c-0.24-1.597-0.64-3.219-1.582-4.531c-0.942-1.312-2.526-2.261-4.129-2.063
							c-1.581,0.195-2.833,1.413-3.795,2.683c-3.123,4.123-4.441,9.296-5.687,14.316c-0.005-2.342-3.321-3.265-5.543-2.525
							c-2.222,0.74-3.672,2.87-4.642,5.001c-3.38,7.423-2.702,16.549,1.738,23.391c-1.01-1.756-3.496-2.464-5.471-2.014
							c-1.975,0.45-3.629,1.794-5.01,3.276c-5.754,6.173-7.796,15.165-6.902,23.557c0.894,8.392,4.434,16.285,8.654,23.593"/>
						
							<path style="fill:none;stroke:#BAE1FF;stroke-width:0.7736;stroke-linecap:round;stroke-linejoin:round;stroke-miterlimit:10;" d="
							M706.13,324.945c-6.744,24.261-11.959,48.946-15.604,73.862"/>
						
							<path style="fill:none;stroke:#BAE1FF;stroke-width:0.7736;stroke-linecap:round;stroke-linejoin:round;stroke-miterlimit:10;" d="
							M715.995,345.711c-0.981,3.778-3.365,7.175-6.584,9.383s-7.247,3.208-11.125,2.762"/>
						
							<path style="fill:none;stroke:#BAE1FF;stroke-width:0.7736;stroke-linecap:round;stroke-linejoin:round;stroke-miterlimit:10;" d="
							M691.771,335.651c0.141,6.007,2.927,11.905,7.478,15.829"/>
						
							<path style="fill:none;stroke:#BAE1FF;stroke-width:0.7736;stroke-linecap:round;stroke-linejoin:round;stroke-miterlimit:10;" d="
							M716.834,374.775c-5.002,7.647-14.947,11.699-23.869,9.723"/>
						
							<path style="fill:none;stroke:#BAE1FF;stroke-width:0.7736;stroke-linecap:round;stroke-linejoin:round;stroke-miterlimit:10;" d="
							M683.159,360.838c-0.061,7.61,4.229,15.105,10.822,18.906"/>
					</g>
					<path style="fill:#9AD0F4;" d="M651.428,396.754h65.696c0,15.104-10.198,27.818-24.081,31.655h-17.533
						C661.625,424.572,651.428,411.858,651.428,396.754z"/>
					<path style="fill:#BAE1FF;" d="M649.98,398.608h68.591c1.393,0,2.523-1.13,2.523-2.523l0,0c0-1.393-1.13-2.523-2.523-2.523
						H649.98c-1.393,0-2.523,1.13-2.523,2.523l0,0C647.457,397.479,648.586,398.608,649.98,398.608z"/>
				</g>
				<g>
					<g>
						<path style="fill:#90C3E0;" d="M90.493,404.921c5.612-1.076,10.779-4.322,14.184-8.91c3.406-4.588,5.017-10.473,4.423-16.156
							c-0.26-2.488-1.133-5.205-3.343-6.379c-2.694-1.43-5.948,0.069-8.615,1.548c6.437-5.148,10.211-13.894,9.556-22.109
							c-0.171-2.145-0.859-4.586-2.835-5.437c-1.246-0.537-2.722-0.269-3.914,0.38c-1.192,0.649-2.157,1.638-3.102,2.612
							c2.607-4.596,3.551-10.815,2.767-16.04c-0.207-1.378-0.552-2.778-1.365-3.91c-0.813-1.132-2.18-1.951-3.563-1.781
							c-1.364,0.168-2.445,1.22-3.275,2.315c-2.695,3.558-3.832,8.023-4.908,12.355c-0.004-2.021-2.866-2.817-4.783-2.179
							c-1.917,0.638-3.169,2.477-4.007,4.316c-2.917,6.406-2.332,14.282,1.5,20.186c-0.872-1.515-3.017-2.126-4.722-1.738
							c-1.705,0.388-3.132,1.548-4.323,2.827c-4.965,5.328-6.728,13.088-5.956,20.33c0.771,7.242,3.827,14.054,7.469,20.361"/>
						
							<path style="fill:none;stroke:#BAE1FF;stroke-width:0.6676;stroke-linecap:round;stroke-linejoin:round;stroke-miterlimit:10;" d="
							M94.805,336.257c-5.82,20.937-10.321,42.241-13.466,63.743"/>
						
							<path style="fill:none;stroke:#BAE1FF;stroke-width:0.6676;stroke-linecap:round;stroke-linejoin:round;stroke-miterlimit:10;" d="
							M103.318,354.178c-0.847,3.261-2.904,6.192-5.682,8.098s-6.254,2.768-9.601,2.383"/>
						
							<path style="fill:none;stroke:#BAE1FF;stroke-width:0.6676;stroke-linecap:round;stroke-linejoin:round;stroke-miterlimit:10;" d="
							M82.413,345.496c0.122,5.184,2.526,10.274,6.454,13.66"/>
						
							<path style="fill:none;stroke:#BAE1FF;stroke-width:0.6676;stroke-linecap:round;stroke-linejoin:round;stroke-miterlimit:10;" d="
							M104.042,379.26c-4.317,6.6-12.899,10.096-20.599,8.391"/>
						
							<path style="fill:none;stroke:#BAE1FF;stroke-width:0.6676;stroke-linecap:round;stroke-linejoin:round;stroke-miterlimit:10;" d="
							M74.98,367.232c-0.053,6.567,3.65,13.036,9.34,16.316"/>
					</g>
					<g>
						<path style="fill:#9AD1F0;" d="M55.475,404.51c-6.503-1.247-12.49-5.008-16.436-10.324
							c-3.947-5.316-5.813-12.136-5.125-18.721c0.302-2.883,1.313-6.032,3.874-7.391c3.121-1.657,6.892,0.079,9.982,1.794
							c-7.458-5.965-11.832-16.099-11.074-25.619c0.198-2.485,0.995-5.314,3.285-6.3c1.444-0.622,3.155-0.311,4.536,0.44
							c1.381,0.752,2.499,1.898,3.594,3.026c-3.021-5.326-4.114-12.531-3.206-18.587c0.24-1.597,0.64-3.219,1.582-4.531
							c0.942-1.312,2.526-2.261,4.129-2.063c1.581,0.195,2.833,1.413,3.795,2.683c3.123,4.123,4.441,9.296,5.687,14.316
							c0.004-2.342,3.321-3.265,5.543-2.525c2.222,0.74,3.672,2.87,4.643,5.001c3.38,7.423,2.702,16.549-1.738,23.391
							c1.01-1.756,3.496-2.464,5.471-2.014c1.975,0.45,3.629,1.794,5.01,3.276c5.754,6.173,7.796,15.165,6.902,23.557
							c-0.894,8.392-4.434,16.285-8.654,23.593"/>
						
							<path style="fill:none;stroke:#BAE1FF;stroke-width:0.7736;stroke-linecap:round;stroke-linejoin:round;stroke-miterlimit:10;" d="
							M50.478,324.945c6.744,24.261,11.959,48.946,15.604,73.862"/>
						
							<path style="fill:none;stroke:#BAE1FF;stroke-width:0.7736;stroke-linecap:round;stroke-linejoin:round;stroke-miterlimit:10;" d="
							M40.614,345.711c0.981,3.778,3.365,7.175,6.584,9.383s7.247,3.208,11.125,2.762"/>
						
							<path style="fill:none;stroke:#BAE1FF;stroke-width:0.7736;stroke-linecap:round;stroke-linejoin:round;stroke-miterlimit:10;" d="
							M64.837,335.651c-0.141,6.007-2.927,11.905-7.478,15.829"/>
						
							<path style="fill:none;stroke:#BAE1FF;stroke-width:0.7736;stroke-linecap:round;stroke-linejoin:round;stroke-miterlimit:10;" d="
							M39.775,374.775c5.002,7.647,14.947,11.699,23.869,9.723"/>
						
							<path style="fill:none;stroke:#BAE1FF;stroke-width:0.7736;stroke-linecap:round;stroke-linejoin:round;stroke-miterlimit:10;" d="
							M73.45,360.838c0.061,7.61-4.229,15.105-10.822,18.906"/>
					</g>
					<path style="fill:#9AD0F4;" d="M105.181,396.754H39.486c0,15.104,10.198,27.818,24.081,31.655H81.1
						C94.983,424.572,105.181,411.858,105.181,396.754z"/>
					<path style="fill:#BAE1FF;" d="M106.629,398.608H38.038c-1.393,0-2.523-1.13-2.523-2.523l0,0c0-1.393,1.129-2.523,2.523-2.523
						h68.591c1.393,0,2.523,1.13,2.523,2.523l0,0C109.152,397.479,108.022,398.608,106.629,398.608z"/>
				</g>
				<g>
					<path style="fill:#9AD1F0;" d="M56.107,150.002h42.776c7.811,0,14.142,6.332,14.142,14.142l0,0
						c0,3.167-1.054,6.081-2.813,8.438c1.985,3.404,4.596,6.447,7.681,8.897c1.353,1.074,0.455,3.277-1.262,3.078
						c-6.386-0.739-12.558-2.864-17.974-6.271H56.107c-7.811,0-14.142-6.332-14.142-14.142l0,0
						C41.965,156.334,48.296,150.002,56.107,150.002z"/>
					<path style="fill:#FFFFFF;" d="M54.407,158.77h47.614c0.982,0,1.778-0.796,1.778-1.778l0,0c0-0.982-0.796-1.778-1.778-1.778
						H54.407c-0.982,0-1.778,0.796-1.778,1.778l0,0C52.629,157.974,53.425,158.77,54.407,158.77z"/>
					<path style="fill:#FFFFFF;" d="M77.522,164.895h24.597c0.982,0,1.778-0.796,1.778-1.778l0,0c0-0.982-0.796-1.778-1.778-1.778
						H77.522c-0.982,0-1.778,0.796-1.778,1.778l0,0C75.744,164.099,76.54,164.895,77.522,164.895z"/>
					<path style="fill:#FFFFFF;" d="M93.821,171.02h8.298c0.982,0,1.778-0.796,1.778-1.778l0,0c0-0.982-0.796-1.778-1.778-1.778
						h-8.298c-0.982,0-1.778,0.796-1.778,1.778l0,0C92.043,170.224,92.839,171.02,93.821,171.02z"/>
				</g>
				<g>
					<path style="fill:#FFB74A;" d="M698.345,198.904H655.57c-7.81,0-14.142,6.332-14.142,14.142v0c0,3.167,1.054,6.081,2.813,8.438
						c-1.985,3.404-4.596,6.447-7.681,8.897c-1.353,1.074-0.455,3.277,1.262,3.078c6.386-0.739,12.558-2.864,17.974-6.271h42.551
						c7.811,0,14.142-6.332,14.142-14.142v0C712.488,205.236,706.156,198.904,698.345,198.904z"/>
					<path style="fill:#FFFFFF;" d="M700.045,207.672h-47.614c-0.982,0-1.778-0.796-1.778-1.778l0,0
						c0-0.982,0.796-1.778,1.778-1.778h47.614c0.982,0,1.778,0.796,1.778,1.778l0,0
						C701.824,206.876,701.027,207.672,700.045,207.672z"/>
					<path style="fill:#FFFFFF;" d="M676.93,213.797h-24.597c-0.982,0-1.778-0.796-1.778-1.778l0,0c0-0.982,0.796-1.778,1.778-1.778
						h24.597c0.982,0,1.778,0.796,1.778,1.778l0,0C678.708,213.001,677.912,213.797,676.93,213.797z"/>
					<path style="fill:#FFFFFF;" d="M660.631,219.921h-8.298c-0.982,0-1.778-0.796-1.778-1.778l0,0c0-0.982,0.796-1.778,1.778-1.778
						h8.298c0.982,0,1.778,0.796,1.778,1.778l0,0C662.409,219.125,661.613,219.921,660.631,219.921z"/>
				</g>
				<g>
					<g>
						<path style="fill:#FFB74A;" d="M465.413,175.473c0-3.981-3.227-7.209-7.209-7.209c-3.981,0-7.209,3.227-7.209,7.209
							c0,2.402,1.179,4.523,2.985,5.833v5.916h8.447v-5.916C464.233,179.997,465.413,177.875,465.413,175.473z"/>
						<g>
							<path style="fill:none;stroke:#FFFFFF;stroke-width:0.6162;stroke-miterlimit:10;" d="M457.163,185.261v-7.941
								c0-0.769-0.511-1.392-1.142-1.392h-0.146c-0.631,0-1.142,0.623-1.142,1.392l0,0c0,0.769,0.511,1.392,1.142,1.392h2.547"/>
							<path style="fill:none;stroke:#FFFFFF;stroke-width:0.6162;stroke-miterlimit:10;" d="M459.245,185.261v-7.941
								c0-0.769,0.511-1.392,1.142-1.392h0.146c0.631,0,1.142,0.623,1.142,1.392l0,0c0,0.769-0.511,1.392-1.142,1.392h-2.547"/>
						</g>
						<path style="fill:#78A4A5;" d="M458.204,191.01L458.204,191.01c-2.738,0-4.957-2.219-4.957-4.957v-1.468h9.915v1.468
							C463.161,188.79,460.942,191.01,458.204,191.01z"/>
					</g>
					<g>
						<line style="fill:none;stroke:#FFB74A;stroke-miterlimit:10;" x1="458.204" y1="166.262" x2="458.204" y2="161.1"/>
						<line style="fill:none;stroke:#FFB74A;stroke-miterlimit:10;" x1="465.803" y1="170.161" x2="470.016" y2="166.964"/>
						<line style="fill:none;stroke:#FFB74A;stroke-miterlimit:10;" x1="466.609" y1="178.276" x2="472.486" y2="179.917"/>
					</g>
					<g>
						<line style="fill:none;stroke:#FFB74A;stroke-miterlimit:10;" x1="450.605" y1="170.161" x2="446.392" y2="166.964"/>
						<line style="fill:none;stroke:#FFB74A;stroke-miterlimit:10;" x1="449.799" y1="178.276" x2="443.922" y2="179.917"/>
					</g>
				</g>
				<g>
					<path style="fill:#FFB74A;" d="M241.239,118.559c-14.98,0-27.168,12.187-27.168,27.167c0,14.98,12.188,27.168,27.168,27.168
						c14.98,0,27.168-12.187,27.168-27.168C268.407,130.746,256.22,118.559,241.239,118.559z M241.239,170.772
						c-13.81,0-25.045-11.235-25.045-25.045c0-13.81,11.235-25.045,25.045-25.045s25.045,11.235,25.045,25.045
						C266.284,159.536,255.049,170.772,241.239,170.772z"/>
					<path style="fill:#FFB74A;" d="M232.025,161.747c-0.48-0.27-1.1-0.11-1.37,0.37c-0.09,0.16-0.14,0.33-0.14,0.5
						c0,0.34,0.18,0.68,0.5,0.86c0.16,0.1,0.33,0.14,0.5,0.14c0.35,0,0.689-0.18,0.87-0.5c0.09-0.16,0.14-0.33,0.14-0.5
						C232.525,162.267,232.345,161.937,232.025,161.747z"/>
					<path style="fill:#FFB74A;" d="M223.874,154.636c-0.319,0.18-0.5,0.52-0.489,0.87c0,0.17,0.04,0.34,0.13,0.49
						c0.189,0.32,0.52,0.5,0.87,0.5c0.17,0,0.34-0.04,0.5-0.13c0.319-0.19,0.5-0.53,0.5-0.87c0-0.17-0.05-0.34-0.141-0.5
						C224.965,154.517,224.355,154.357,223.874,154.636z"/>
					<path style="fill:#FFB74A;" d="M231.454,129.877c0.17,0,0.341-0.04,0.5-0.13c0.32-0.19,0.5-0.53,0.5-0.88
						c-0.01-0.16-0.05-0.34-0.14-0.49c-0.28-0.48-0.89-0.64-1.37-0.36c-0.32,0.18-0.5,0.52-0.5,0.87c0.01,0.17,0.05,0.34,0.141,0.49
						C230.775,129.696,231.105,129.877,231.454,129.877z"/>
					<path style="fill:#FFB74A;" d="M250.425,129.687c0.16,0.09,0.33,0.13,0.5,0.13c0.34,0,0.68-0.18,0.87-0.5
						c0.09-0.16,0.13-0.33,0.13-0.5c0-0.35-0.181-0.68-0.5-0.87c-0.011,0-0.011,0-0.011,0c-0.47-0.27-1.079-0.11-1.359,0.37
						c-0.09,0.16-0.13,0.33-0.13,0.5C249.925,129.167,250.105,129.497,250.425,129.687z"/>
					<path style="fill:#FFB74A;" d="M241.175,127.247c0.56-0.01,1-0.45,1-1.01c0-0.55-0.45-1-1-0.99c-0.561,0-1,0.45-1,1
						C240.175,126.797,240.624,127.247,241.175,127.247z"/>
					<circle style="fill:#FFB74A;" cx="221.755" cy="145.767" r="1"/>
					<path style="fill:#FFB74A;" d="M223.845,136.886c0.149,0.09,0.319,0.14,0.49,0.14c0.35,0,0.689-0.18,0.869-0.5
						c0.091-0.16,0.131-0.33,0.131-0.5c0-0.35-0.171-0.68-0.5-0.87c-0.471-0.27-1.091-0.11-1.36,0.37c-0.09,0.16-0.14,0.33-0.14,0.5
						C223.335,136.367,223.525,136.707,223.845,136.886z"/>
					<path style="fill:#FFB74A;" d="M241.265,164.207c-0.561,0-1.01,0.45-1.01,1c0,0.56,0.449,1,1.01,1c0.55,0,1-0.45,1-1
						C242.255,164.656,241.805,164.207,241.265,164.207z"/>
					<path style="fill:#FFB74A;" d="M258.614,154.597c-0.47-0.28-1.09-0.11-1.359,0.37c-0.091,0.15-0.141,0.32-0.141,0.49
						c0,0.35,0.181,0.69,0.5,0.87c0.16,0.09,0.33,0.14,0.5,0.14c0.351,0,0.681-0.18,0.87-0.5c0.09-0.16,0.13-0.33,0.13-0.5
						C259.114,155.117,258.935,154.787,258.614,154.597z"/>
					<path style="fill:#FFB74A;" d="M260.715,144.647c-0.551,0-0.99,0.45-0.99,1c0,0.02,0,0.04,0,0.07v0.01c0,0.55,0.45,1,1,1
						c0.55,0,1-0.45,1-1c0-0.01,0-0.03,0-0.04c0-0.02,0-0.03,0-0.05C261.715,145.087,261.275,144.636,260.715,144.647z"/>
					<path style="fill:#FFB74A;" d="M258.074,136.917c0.17,0,0.35-0.04,0.5-0.13c0.33-0.19,0.5-0.53,0.5-0.88
						c0-0.16-0.04-0.34-0.13-0.49c-0.28-0.48-0.899-0.64-1.37-0.36c-0.319,0.19-0.5,0.52-0.5,0.87c0,0.17,0.05,0.34,0.141,0.5
						C257.395,136.736,257.734,136.917,258.074,136.917z"/>
					<path style="fill:#FFB74A;" d="M250.494,161.727c-0.319,0.19-0.5,0.53-0.5,0.87c0,0.17,0.04,0.34,0.13,0.5
						c0.19,0.32,0.53,0.5,0.87,0.5c0.17,0,0.341-0.05,0.5-0.14c0.32-0.18,0.5-0.52,0.5-0.87c0-0.17-0.05-0.34-0.14-0.49
						C251.585,161.617,250.965,161.457,250.494,161.727z"/>
					<path style="fill:#FFB74A;" d="M253.461,137.771l-11.722,7.07v-14.169c0-0.276-0.224-0.5-0.5-0.5s-0.5,0.224-0.5,0.5v15.054
						c0,0.18,0.097,0.347,0.254,0.436c0.076,0.043,0.161,0.064,0.246,0.064c0.09,0,0.179-0.024,0.258-0.072l12.48-7.527
						c0.237-0.143,0.313-0.45,0.17-0.687C254.003,137.703,253.694,137.63,253.461,137.771z"/>
				</g>
				<g>
					<line style="fill:none;stroke:#90C3E0;stroke-width:2;stroke-miterlimit:10;" x1="93.12" y1="71.358" x2="93.12" y2="-2.83"/>
					<rect x="89.825" y="67.998" style="fill:#BAE1FF;" width="6.59" height="8.878"/>
					<rect x="88.011" y="72.684" style="fill:#90C3E0;" width="10.217" height="8.878"/>
					<path style="fill:#90C3E0;" d="M93.12,110.886L93.12,110.886c-3.547,0-6.421-2.875-6.421-6.421v-7.271h12.843v7.271
						C99.541,108.011,96.666,110.886,93.12,110.886z"/>
					<path style="fill:#BAE1FF;" d="M110.415,104.658h-34.59l3.88-16.401c1.471-6.219,7.024-10.612,13.415-10.612h0
						c6.391,0,11.944,4.392,13.415,10.612L110.415,104.658z"/>
				</g>
				<g>
					
						<line style="fill:none;stroke:#90C3E0;stroke-width:2;stroke-miterlimit:10;" x1="647.314" y1="71.358" x2="647.314" y2="-2.83"/>
					<rect x="644.019" y="67.998" style="fill:#BAE1FF;" width="6.59" height="8.878"/>
					<rect x="642.205" y="72.684" style="fill:#90C3E0;" width="10.217" height="8.878"/>
					<path style="fill:#90C3E0;" d="M647.314,110.886L647.314,110.886c-3.546,0-6.421-2.875-6.421-6.421v-7.271h12.843v7.271
						C653.735,108.011,650.86,110.886,647.314,110.886z"/>
					<path style="fill:#BAE1FF;" d="M664.609,104.658h-34.59l3.88-16.401c1.471-6.219,7.024-10.612,13.415-10.612l0,0
						c6.391,0,11.944,4.392,13.415,10.612L664.609,104.658z"/>
				</g>
				<g>
					
						<line style="fill:none;stroke:#90C3E0;stroke-width:2;stroke-miterlimit:10;" x1="370.217" y1="71.358" x2="370.217" y2="-2.83"/>
					<rect x="366.922" y="67.998" style="fill:#BAE1FF;" width="6.59" height="8.878"/>
					<rect x="365.108" y="72.684" style="fill:#90C3E0;" width="10.217" height="8.878"/>
					<path style="fill:#90C3E0;" d="M370.217,110.886L370.217,110.886c-3.546,0-6.421-2.875-6.421-6.421v-7.271h12.843v7.271
						C376.638,108.011,373.763,110.886,370.217,110.886z"/>
					<path style="fill:#BAE1FF;" d="M387.512,104.658h-34.59l3.88-16.401c1.471-6.219,7.024-10.612,13.415-10.612l0,0
						c6.391,0,11.944,4.392,13.415,10.612L387.512,104.658z"/>
				</g>
				<g>
					<rect x="514.37" y="172.469" style="fill:#BAE1FF;" width="120.367" height="5.785"/>
					<path style="fill:#90C3E0;" d="M528.522,172.469h-3.844c-1.858,0-3.365-1.507-3.365-3.365v-32.886
						c0-1.858,1.506-3.365,3.365-3.365h3.844c1.858,0,3.365,1.507,3.365,3.365v32.886
						C531.887,170.962,530.38,172.469,528.522,172.469z"/>
					<path style="fill:#9AD1F0;" d="M563.826,172.469h-3.844c-1.858,0-3.365-1.507-3.365-3.365v-32.886
						c0-1.858,1.507-3.365,3.365-3.365h3.844c1.858,0,3.365,1.507,3.365,3.365v32.886
						C567.191,170.962,565.685,172.469,563.826,172.469z"/>
					<path style="fill:#9AD1F0;" d="M584.973,172.469h-3.844c-1.858,0-3.365-1.507-3.365-3.365v-32.886
						c0-1.858,1.506-3.365,3.365-3.365h3.844c1.858,0,3.365,1.507,3.365,3.365v32.886
						C588.338,170.962,586.832,172.469,584.973,172.469z"/>
					<path style="fill:#90C3E0;" d="M574.4,172.469h-3.844c-1.858,0-3.365-1.507-3.365-3.365v-32.886
						c0-1.858,1.507-3.365,3.365-3.365h3.844c1.858,0,3.365,1.507,3.365,3.365v32.886
						C577.765,170.962,576.258,172.469,574.4,172.469z"/>
					<path style="fill:#90C3E0;" d="M595.748,169.104v-3.844c0-1.858,1.507-3.365,3.365-3.365h32.886
						c1.858,0,3.365,1.507,3.365,3.365v3.844c0,1.858-1.506,3.365-3.365,3.365h-32.886
						C597.255,172.469,595.748,170.962,595.748,169.104z"/>
					<path style="fill:#9AD1F0;" d="M601.083,158.531v-3.844c0-1.858,1.507-3.365,3.365-3.365h32.886
						c1.858,0,3.365,1.507,3.365,3.365v3.844c0,1.858-1.507,3.365-3.365,3.365h-32.886
						C602.589,161.896,601.083,160.389,601.083,158.531z"/>
					<path style="fill:#9AD0F4;" d="M543.592,172.084l-3.815,0.471c-1.844,0.228-3.524-1.083-3.752-2.927l-4.032-32.638
						c-0.228-1.844,1.083-3.524,2.927-3.752l3.815-0.471c1.844-0.228,3.524,1.083,3.752,2.927l4.032,32.638
						C546.747,170.176,545.436,171.856,543.592,172.084z"/>
				</g>
				<g>
					<circle style="fill:#9AD1F0;" cx="348.035" cy="196.331" r="13.18"/>
					<g>
						<circle style="fill:#FFFFFF;" cx="353.593" cy="191.88" r="2.118"/>
						<circle style="fill:#FFFFFF;" cx="342.477" cy="191.88" r="2.118"/>
					</g>
					<path style="fill:#FFFFFF;" d="M353.916,199.523c0,3.248-2.633,5.88-5.88,5.88c-3.248,0-5.88-2.633-5.88-5.88"/>
				</g>
				<g>
					<polygon style="fill:#7EABC4;" points="509.106,98.041 519.239,91.703 514.913,86.11 510.886,90.958 					"/>
					<polygon style="fill:#9AD1F0;" points="495.389,82.249 540.239,68.262 531.125,99.937 					"/>
					<polygon style="fill:#90C3E0;" points="537.351,70.247 506.383,87.691 509.106,98.041 513.619,91.272 					"/>
				</g>
				<path style="fill:none;stroke:#9AD1F0;stroke-miterlimit:10;stroke-dasharray:5,0,0,0,0,10;" d="M212.143,281.706
					c-17.945-11.289-24.377-36.562-16.449-56.224c7.928-19.662,28.04-32.997,49.077-35.622c9.473-1.182,19.366-0.373,28.036,3.623
					c8.669,3.996,15.98,11.421,18.62,20.595c1.629,5.662,1.061,12.613-3.564,16.265c-3.974,3.138-9.949,2.811-14.263,0.159
					c-4.313-2.653-7.15-7.208-8.904-11.958c-6.612-17.905,1.184-38.94,15.438-51.635s33.717-18.12,52.761-19.399
					c19.044-1.279,38.112,1.185,57.167,2.277c14.119,0.809,28.67,0.801,41.894-4.215c13.223-5.015,24.983-16.002,27.265-29.959
					s-7.737-29.797-21.854-30.649c-9.205-0.555-18.985,6.751-18.675,15.968c0.353,10.485,12.076,16.721,22.459,18.227
					c20.576,2.984,42.388-4.325,57.012-19.104"/>
				
					<rect x="176.341" y="164.836" transform="matrix(0.7071 -0.7071 0.7071 0.7071 -66.5337 176.8996)" style="fill:#9AD1F0;" width="7.852" height="7.852"/>
				
					<rect x="378.906" y="241.658" transform="matrix(0.7071 -0.7071 0.7071 0.7071 -61.525 342.6326)" style="fill:#9AD1F0;" width="7.852" height="7.852"/>
				
					<rect x="573.608" y="201.093" transform="matrix(0.7071 -0.7071 0.7071 0.7071 24.186 468.4268)" style="fill:#9AD1F0;" width="7.852" height="7.852"/>
				
					<rect x="46.553" y="289.931" transform="matrix(0.7071 -0.7071 0.7071 0.7071 -193.0037 121.7623)" style="fill:#9AD1F0;" width="7.851" height="7.851"/>
				
					<rect x="587.817" y="78.383" transform="matrix(0.7071 -0.7071 0.7071 0.7071 116.0063 440.3855)" style="fill:#9AD1F0;" width="3.556" height="3.556"/>
				
					<rect x="287.32" y="96.263" transform="matrix(0.7071 -0.7071 0.7071 0.7071 15.3517 233.1442)" style="fill:#9AD1F0;" width="3.556" height="3.556"/>
				
					<rect x="47.085" y="106.842" transform="matrix(0.7071 -0.7071 0.7071 0.7071 -62.4946 66.3652)" style="fill:#9AD1F0;" width="3.556" height="3.556"/>
				
					<rect x="388.347" y="372.997" transform="matrix(0.7071 -0.7071 0.7071 0.7071 -150.7406 385.6292)" style="fill:#9AD1F0;" width="3.556" height="3.556"/>
				
					<rect x="720.166" y="287.158" transform="matrix(0.7071 -0.7071 0.7071 0.7071 7.1436 595.1187)" style="fill:#9AD1F0;" width="3.556" height="3.556"/>
				
					<rect x="703.214" y="140.721" transform="matrix(0.7071 -0.7071 0.7071 0.7071 104.8331 542.385)" style="fill:#9AD1F0;" width="7.852" height="7.852"/>
			</g>
			<g>
				<g>
					<path style="fill:#FAA147;" d="M638.547,368.137c2.456,0.805,4.982-0.998,4.982-3.582v-12.787
						c0.059-13.451,0.617-19.735,3.584-32.855c1.283-5.676,2.845-11.374,2.754-17.193c-0.091-5.819-2.111-11.93-6.734-15.464
						c-3.467-2.65-7.935-3.55-12.256-4.165c-9.535-1.357-19.975-1.493-27.952,3.902c-5.279,3.571-8.879,9.251-10.883,15.3
						c-2.004,6.049-2.532,12.488-2.647,18.859c-0.241,13.36,1.277,19.751,4.503,32.719c2.128,8.556,14.409,8.588,23.068,10.245
						C623.916,364.447,631.59,365.857,638.547,368.137z"/>
					<path style="fill:#FAA147;" d="M638.143,369.988h-38.908v-6.437h44.294v1.051C643.529,367.577,641.118,369.988,638.143,369.988
						z"/>
					<path style="fill:#D98C3E;" d="M605.311,369.988h-54.899v-3.161c0-1.809,1.467-3.276,3.276-3.276h51.624V369.988z"/>
					<path style="fill:#D98C3E;" d="M554.934,428.408h-4.523v-61.079c0-2.086,1.691-3.778,3.778-3.778h0.745V428.408z"/>
					<rect x="600.788" y="363.551" style="fill:#D98C3E;" width="4.523" height="64.856"/>
					<rect x="638.999" y="363.551" style="fill:#FAA147;" width="4.523" height="64.856"/>
				</g>
				<g>
					<path style="fill:#FAA147;" d="M351.265,368.137c2.456,0.805,4.982-0.998,4.982-3.582v-12.787
						c0.059-13.451,0.617-19.735,3.584-32.855c1.284-5.676,2.845-11.374,2.754-17.193c-0.091-5.819-2.111-11.93-6.734-15.464
						c-3.467-2.65-7.935-3.55-12.256-4.165c-9.535-1.357-19.975-1.493-27.952,3.902c-5.279,3.571-8.879,9.251-10.883,15.3
						c-2.004,6.049-2.532,12.488-2.647,18.859c-0.241,13.36,0.73,23.778,3.16,37.304c1.558,8.677,15.752,4.003,24.411,5.66
						C336.633,364.447,344.307,365.857,351.265,368.137z"/>
					<path style="fill:#FAA147;" d="M350.861,369.988h-38.908v-6.437h44.294v1.051C356.246,367.577,353.835,369.988,350.861,369.988
						z"/>
					<path style="fill:#D98C3E;" d="M318.028,369.988h-54.899v-3.161c0-1.809,1.467-3.276,3.276-3.276h51.624V369.988z"/>
					<path style="fill:#D98C3E;" d="M267.651,428.408h-4.523v-61.079c0-2.086,1.691-3.778,3.778-3.778h0.745V428.408z"/>
					<rect x="313.505" y="363.551" style="fill:#D98C3E;" width="4.523" height="64.856"/>
					<rect x="351.716" y="363.551" style="fill:#FAA147;" width="4.523" height="64.856"/>
				</g>
				<rect x="29.178" y="428.337" style="fill:#BAE1FF;" width="691.021" height="6.073"/>
				<g>
					<g>
						<path style="fill:#1B141C;" d="M143.468,260.426c2.826,0.1,5.707-0.212,8.316-1.305c2.608-1.092,4.93-3.021,6.14-5.577
							c1.077-2.275,1.221-4.869,1.226-7.386c0.005-2.517-0.105-5.073,0.522-7.51c0.627-2.437,2.14-4.799,4.478-5.731
							c-0.616-1.699-2.201-2.607-3.94-3.095c-1.74-0.489-3.588-0.383-5.383-0.177c-3.291,0.379-6.676,1.145-9.266,3.209
							c-3.121,2.488-4.618,6.467-5.637,10.326c-0.826,3.126-1.435,6.368-1.094,9.584C139.172,255.98,140.9,258.461,143.468,260.426z
							"/>
						<path style="fill:#1B141C;" d="M157.368,233.64c4.788,1.225,10.209,2.008,14.391-0.626c2.504-1.577,4.242-4.314,4.606-7.25
							c0.364-2.937-0.654-6.015-2.697-8.155c-3.29-3.448-8.543-4.146-12.414-6.926c-1.616-1.161-2.958-2.663-4.528-3.886
							c-1.569-1.223-3.494-2.186-5.474-1.986c-1.98,0.201-3.685,2.072-3.496,4.053c-2.193-2.213-5.528-3.226-8.581-2.606
							c-3.053,0.619-5.73,2.852-6.886,5.745c-1.523,3.808-0.58,8.565-3.163,11.75c-2.828,3.487-8.269,3.169-12.083,5.538
							c-4.312,2.679-5.788,8.626-4.325,13.487c1.463,4.861,8.965,11.927,13.252,14.645
							C136.898,249.557,145.084,239.152,157.368,233.64z"/>
						<path style="fill:#FF5754;" d="M61.822,231.593c0,0-7.102-8.576-8.979-10.42c-1.876-1.844-3.104-3.582-3.257-4.254
							c-0.153-0.672,1.986-0.338,4.647,2.438c0,0-3.064-3.607-3.488-5.891c-0.424-2.284,3.984,2.666,5.185,4.522
							c0,0-3.132-4.873-3.305-7.283c-0.173-2.41,4.186,3.467,5.465,6.083c0,0-2.212-5.472-1.911-7.165
							c0.3-1.693,3.245,4.092,4.12,6.595c0.875,2.502,1.995,2.751,2.161,2.233c0.166-0.518,0.547-2.599,0.606-3.688
							c0.037-0.681,0.966-2.311,1.497-1.434c0.318,0.526,0.345,2.354,0.328,3.448c-0.046,2.917,0.441,7.865,1.427,9.816
							c0.986,1.95,1.461,2.689,1.461,2.689L61.822,231.593z"/>
						
							<rect x="130.948" y="241.553" transform="matrix(0.3887 -0.9213 0.9213 0.3887 -143.1593 280.6582)" style="fill:#FF5754;" width="17.98" height="13.336"/>
						<path style="fill:#DA2727;" d="M149.576,242.53l-2.162,5.124c-2.847-1.064-9.142-4.067-9.677-10.092l1.808,0.736
							L149.576,242.53z"/>
						<path style="fill:#FF5754;" d="M160.738,232.12c2.66-8.4-0.802-16.988-7.732-19.182c-6.93-2.194-14.704,2.836-17.364,11.235
							c-0.832,2.626-1.11,5.436-0.721,8.168c0.35,2.456,1.246,4.856,2.735,6.852c0.926,1.24,2.121,2.345,3.47,3.11
							c0.896,0.508,1.946,0.792,2.919,1.115c1.068,0.355,2.146,0.681,3.231,0.978c1.263,0.345,2.6,0.701,3.921,0.671
							c1.169-0.027,2.34-0.36,3.357-0.935c1.748-0.99,3.063-2.644,3.668-4.556l1.692-5.344
							C160.221,233.552,160.505,232.855,160.738,232.12z"/>
						<g>
							<path style="fill:#FF5754;" d="M138.468,224.952c-0.196-0.944-1.138-1.749-2.189-1.998c-1.051-0.249-2.162,0.013-2.961,0.58
								c-0.8,0.567-1.306,1.412-1.554,2.313c-0.256,0.93-0.247,1.954,0.172,2.888c0.419,0.934,1.278,1.761,2.343,2.094
								c1.065,0.333,2.311,0.107,2.955-0.637L138.468,224.952z"/>
							<g>
								
									<path style="fill:none;stroke:#DA2727;stroke-width:0.5766;stroke-linecap:round;stroke-linejoin:round;stroke-miterlimit:10;" d="
									M134.473,229.125c1.292-1.255,1.749-3.108,1.199-4.862"/>
								
									<path style="fill:none;stroke:#DA2727;stroke-width:0.5766;stroke-linecap:round;stroke-linejoin:round;stroke-miterlimit:10;" d="
									M135.625,226.53c-0.974,0.105-1.843,0.544-2.374,1.199"/>
							</g>
						</g>
						<g>
							<path style="fill:#FF5754;" d="M128.425,390.698c0.124,0.973,0.239,1.947,0.374,2.919c0.537,4.171,1.14,8.339,1.755,12.507
								c0.651,4.166,1.293,8.332,2.08,12.492c0.391,2.056,2.099,3.7,4.287,3.907c2.654,0.251,5.008-1.696,5.26-4.35
								c0.399-4.215,0.653-8.423,0.916-12.631c0.227-4.207,0.442-8.413,0.591-12.616c0.078-1.728,0.13-3.455,0.18-5.182
								C138.706,388.648,133.524,389.477,128.425,390.698z"/>
						</g>
						<g>
							<path style="fill:#FF5754;" d="M193.69,328.009l-17.99-18.873c-1.518,2.43-3.009,4.839-4.633,7.202
								c-0.524,0.763-1.05,1.524-1.565,2.292l19.273,14.842c1.416,1.093,3.456,1.02,4.791-0.252
								C195.038,331.815,195.094,329.482,193.69,328.009z"/>
						</g>
						<g>
							<path style="fill:#FF5754;" d="M78.922,373.985l-20.677,17.168c-1.772,1.469-2.277,4.045-1.082,6.1
								c1.332,2.289,4.267,3.065,6.556,1.734l22.764-13.241C83.872,381.812,81.186,377.992,78.922,373.985z"/>
						</g>
						<g>
							<path style="fill:#FF5754;" d="M70.915,251.272c1.754-0.817,3.598-1.503,5.561-2.104c1.18-0.361,2.416-0.768,3.637-1.036
								c0.7-0.306,1.408-0.598,2.113-0.893l-16.543-22.203c-1.056-1.42-3.013-1.912-4.64-1.078c-1.812,0.93-2.527,3.152-1.597,4.963
								L70.915,251.272z"/>
						</g>
						<path style="fill:#FF5754;" d="M123.633,309.028L99.46,296.57l15.006-41.934c1.845-5.157,5.953-8.794,10.016-8.572
							l15.144,0.827l10.446,12.485c2.635,3.15,2.092,8.67-1.073,13.216L123.633,309.028z"/>
						<path style="fill:#FF5754;" d="M150.725,280.921c-2.19,4.249-7.409,5.918-11.657,3.728c-4.248-2.19-5.918-7.409-3.728-11.657
							c2.19-4.248,7.409-5.918,11.657-3.728C151.245,271.454,152.914,276.673,150.725,280.921z"/>
						<g>
							<path style="fill:#1B141C;" d="M130.414,417.752c0.007,0.623,0.037,1.284,0.075,1.96c0.022,0.413,0.053,0.826,0.083,1.247
								c0.045,0.593,0.098,1.194,0.15,1.773c0.113,1.277,0.24,2.471,0.353,3.44c0.15,1.367,0.263,2.276,0.263,2.276l29.812-0.023
								c0,0,0.849-0.969,0.008-2.253c-1.224-1.9-3.508-4.507-7.309-5.776c-4.169-1.397-6.685-3.237-8.375-5.078
								c-0.053-0.06-0.105-0.113-0.15-0.173c-0.511-0.556-0.932-1.127-1.315-1.675c-0.045-0.06-0.083-0.128-0.12-0.188
								c-0.195-0.293-0.368-0.578-0.541-0.856c-1.622-2.667-5.573,4.597-5.573,4.597s-5.311-3.756-6.798-3.215
								C130.496,413.989,130.369,415.626,130.414,417.752z"/>
							<path style="fill:#D5D5D1;" d="M131.072,426.171c-0.091,1.358-0.08,2.278-0.08,2.278l30.165-0.025
								c0,0,0.844-0.969-0.001-2.253H131.072z"/>
							<path style="fill:#D5D5D1;" d="M141.673,415.581l0.901,1.157c0.15,0.195,0.436,0.225,0.624,0.075l2.126-1.667
								c-0.511-0.556-0.932-1.127-1.315-1.675c-0.045-0.06-0.083-0.128-0.12-0.188l-2.141,1.675
								C141.553,415.108,141.515,415.394,141.673,415.581z"/>
							<path style="fill:#D5D5D1;" d="M135.465,421.783c0,1.484,1.203,2.687,2.687,2.687c1.484,0,2.686-1.203,2.686-2.687
								c0-1.484-1.203-2.686-2.686-2.686C136.668,419.097,135.465,420.3,135.465,421.783z"/>
						</g>
						<g>
							<path style="fill:#1B141C;" d="M58.093,388.575c-0.55,0.294-1.123,0.625-1.706,0.969c-0.356,0.21-0.709,0.427-1.069,0.647
								c-0.506,0.313-1.015,0.637-1.504,0.949c-1.082,0.688-2.083,1.351-2.891,1.897c-1.145,0.763-1.9,1.281-1.9,1.281
								l13.743,26.456c0,0,1.251,0.307,2.004-1.031c1.123-1.962,2.386-5.189,1.763-9.147c-0.679-4.344-0.203-7.425,0.653-9.772
								c0.029-0.074,0.052-0.145,0.084-0.213c0.258-0.709,0.572-1.346,0.882-1.938c0.033-0.068,0.075-0.132,0.111-0.193
								c0.17-0.308,0.344-0.593,0.511-0.874c1.62-2.668-6.646-2.832-6.646-2.832s0.889-6.443-0.275-7.515
								C61.471,386.916,59.959,387.557,58.093,388.575z"/>
							<path style="fill:#D5D5D1;" d="M50.922,393.035c-1.248,0.545-2.059,0.978-2.059,0.978l13.908,26.767
								c0,0,1.248,0.303,1.999-1.038L50.922,393.035z"/>
							<path style="fill:#D5D5D1;" d="M65.203,397.571l-0.612,1.333c-0.104,0.223,0.001,0.491,0.22,0.588l2.459,1.119
								c0.258-0.709,0.572-1.346,0.882-1.938c0.033-0.068,0.075-0.132,0.111-0.193l-2.472-1.129
								C65.567,397.247,65.297,397.345,65.203,397.571z"/>
							<path style="fill:#D5D5D1;" d="M56.839,394.915c-1.317,0.683-1.831,2.304-1.148,3.622c0.683,1.317,2.304,1.831,3.622,1.148
								c1.317-0.683,1.831-2.304,1.148-3.621C59.778,394.746,58.156,394.232,56.839,394.915z"/>
						</g>
						<path style="fill:#FF5754;" d="M189.809,326.515c0,0,10.94-2.69,14.587,5.44h-14.587V326.515z"/>
						<path style="fill:#1B141C;" d="M162.491,231.409c-8.363-0.418-14.059-3.273-21.752-7.64c-2.099,3.725-5.256,6.853-8.725,9.352
							c-1.273-2.221-1.588-5.058-0.803-7.494c0.785-2.436,2.31-4.57,4.008-6.485c3.215-3.625,7.292-6.692,12.024-7.733
							c4.732-1.041,10.159,0.275,13.186,4.058c1.658,2.073,3.039,4.593,3.352,7.229
							C164.094,225.333,163.752,228.548,162.491,231.409z"/>
						<path style="fill:#486363;" d="M108.425,373.809l0.896-0.515c3.33-1.916,5.419-5.431,5.51-9.271l0.016-0.659
							C110.886,364.794,108.529,369.464,108.425,373.809z"/>
						<path style="fill:#78A4A5;" d="M143.903,361.751l-14.48-45.767l-0.764-13.781l-28.699-8.346l-3.129,5.149
							c-5.965,9.816-8.224,21.441-6.368,32.776l4.585,28.001l-25.463,20.961l6.721,11.544l32.117-18.479
							c0.105-4.346,2.461-9.015,6.422-10.446l0.748-31.408h0.81l9.202,38.456l4.129,31.562l13.811-0.636l1.422-27.569
							C140.966,370.957,141.105,365.283,143.903,361.751z"/>
						<path style="fill:#486363;" d="M144.968,373.768l0.301-5.842c0.036-0.701-0.031-1.404-0.198-2.086l-1.168-4.088
							C141.105,365.283,140.966,370.957,144.968,373.768z"/>
						<polygon style="fill:#486363;" points="68.985,380.042 76.238,393.035 82.858,389.95 73.597,376.13 						"/>
						<polygon style="fill:#486363;" points="143.975,401.754 129.186,403.399 127.851,396.219 144.479,395.728 						"/>
						<polyline style="fill:none;stroke:#486363;stroke-width:0.75;stroke-miterlimit:10;" points="74.072,380.182 97.931,361.751 
							92.668,329.013 						"/>
						<path style="fill:none;stroke:#486363;stroke-width:0.75;stroke-miterlimit:10;" d="M131.063,398.248
							c0-1.131-2.713-29.001-2.713-29.001l-9.612-37.292"/>
						<path style="fill:#9843E7;" d="M129.895,309.028c0.225-5.802,3.659-12.553,7.761-16.662c2.487-2.491,5.5-4.385,8.193-6.652
							c2.693-2.267,5.154-5.073,5.945-8.503c0.764-3.316-0.108-6.874,0.121-10.227c0.173-2.538-0.428-5.067-1.707-7.266
							l-3.037-5.219c-3.672,2.942-8.272,4.633-12.976,4.741c-1.534-3.696-2.704-9.287-2.844-13.286l-4.293-0.336
							c-4.398-0.344-8.6,1.933-10.683,5.821c-7.686,14.352-12.434,29.774-20.003,47.045
							C96.372,298.484,110.326,308.188,129.895,309.028z"/>
						<path style="fill:#5E2A8F;" d="M75.963,262.855l0.629,1.283c1.629,3.221,5.09,5.088,8.677,4.681l0.781-0.089
							C83.899,265.232,80.43,262.952,75.963,262.855z"/>
						<path style="fill:#9843E7;" d="M131.35,245.953l-7.177-0.621c-2.387-0.206-4.791-0.055-7.133,0.448l-30.214,6.493
							l-10.729-13.933l-9.408,5.614l9.273,18.901c4.467,0.097,7.936,2.377,10.087,5.875l26.12-2.964L131.35,245.953z"/>
						<path style="fill:#5E2A8F;" d="M149.576,301.064l1.388,2.659c1.051,2.012,2.544,3.76,4.367,5.112l1.46,1.082
							C156.607,305.812,154.485,301.578,149.576,301.064z"/>
						<path style="fill:#9843E7;" d="M181.225,314.278l-16.143-17.515l-11.659-31.089c-1.111-2.963-2.574-5.781-4.357-8.395
							l-1.896-2.78l-5.114,32.165l7.518,14.401c4.91,0.514,7.031,4.748,7.216,8.853l17.759,13.164L181.225,314.278z"/>
						<polygon style="fill:#5E2A8F;" points="181.79,313.802 174.682,323.619 169.459,321.398 178.466,309.028 						"/>
						<polygon style="fill:#5E2A8F;" points="65.935,244.126 76.322,237.88 80.257,241.971 67.122,249.821 						"/>
						<polygon style="fill:#DA2727;" points="66.939,243.523 75.585,238.324 74.631,237.045 65.82,241.341 						"/>
						<polygon style="fill:#DA2727;" points="181.081,314.781 175.147,322.977 177.534,324.815 181.986,315.73 						"/>
						<path style="fill:#5E2A8F;" d="M148.787,257.28c-5.01,3.09-10.8,4.83-16.7,4.97c-1.9-4.57-3.43-11-4.08-16.56l3.34,0.26
							c0.14,4,1.31,9.59,2.85,13.29c4.7-0.11,9.3-1.8,12.97-4.74L148.787,257.28z"/>
						<path style="fill:#5E2A8F;" d="M130.287,305.99c-0.22,1.03-0.35,2.05-0.39,3.04c-19.57-0.84-33.53-10.55-33.53-10.55
							c0.49-1.11,0.96-2.22,1.43-3.32C102.397,297.9,114.438,304.2,130.287,305.99z"/>
						<path style="fill:none;stroke:#486363;stroke-width:0.75;stroke-miterlimit:10;" d="M115.928,309.028
							c0,0-3.341,7.092-0.696,13.565"/>
						<path style="fill:none;stroke:#486363;stroke-width:0.75;stroke-miterlimit:10;" d="M94.559,308.185
							c0,0,6.056,2.158,8.84-4.107"/>
						<path style="fill:none;stroke:#486363;stroke-width:0.75;stroke-miterlimit:10;" d="M129.109,317.09
							c-2.016-0.635-5.104-2.469-3.963-7.684"/>
						<path style="fill:none;stroke:#486363;stroke-width:0.75;stroke-miterlimit:10;" d="M113.001,308.544
							c0,0-4.494,11.228,2.229,10.205"/>
						<polygon style="fill:#DA2727;" points="69.822,381.541 75.677,392.031 71.97,394.187 68.263,382.835 						"/>
						<polygon style="fill:#DA2727;" points="143.292,401.83 130.139,403.293 130.696,407.036 143.18,403.984 						"/>
						<path style="fill:none;stroke:#5E2A8F;stroke-width:0.75;stroke-miterlimit:10;" d="M142.273,287.927
							c3.727-1.777,6.332-5.703,6.52-9.828c0.165-3.601-1.355-7.302-0.266-10.738"/>
						<path style="fill:none;stroke:#5E2A8F;stroke-width:0.75;stroke-miterlimit:10;" d="M109.109,266.091
							c2.65-0.515,5.228-1.398,7.638-2.614"/>
					</g>
					<g>
						<path style="fill:#1B141C;" d="M149.372,231.494c-0.317,1.126-1.062,1.902-1.663,1.732c-0.602-0.169-0.832-1.219-0.515-2.346
							c0.317-1.126,1.062-1.902,1.663-1.732C149.458,229.317,149.689,230.367,149.372,231.494z"/>
						<path style="fill:#1B141C;" d="M158.597,234.09c-0.317,1.126-1.062,1.902-1.663,1.732c-0.602-0.169-0.832-1.219-0.515-2.346
							c0.317-1.126,1.062-1.902,1.663-1.732S158.914,232.964,158.597,234.09z"/>
						
							<path style="fill:none;stroke:#1B141C;stroke-width:0.75;stroke-linecap:round;stroke-linejoin:round;stroke-miterlimit:10;" d="
							M152.913,232.497c-0.22,0.828-0.106,1.701-0.04,2.555c0.066,0.854,0.071,1.757-0.335,2.511
							c-0.406,0.754-1.352,1.281-2.14,0.948"/>
						
							<path style="fill:none;stroke:#1B141C;stroke-width:0.75;stroke-linecap:round;stroke-linejoin:round;stroke-miterlimit:10;" d="
							M146.06,239.464c0.941,1.496,2.613,2.507,4.375,2.645"/>
					</g>
				</g>
				<g>
					<g>
						<path style="fill:#1B141C;" d="M311.736,247.025c-1.778,0.875-3.294,2.272-4.312,3.972c-0.376,0.628-0.689,1.406-0.389,2.074
							c0.342,0.763,1.302,1.002,2.138,1.056c2.742,0.176,5.538-0.655,7.737-2.3L311.736,247.025z"/>
						<path style="fill:#1B141C;" d="M335.814,254.785c1.363,1.667,3.359,2.804,5.488,3.126c1.153,0.175,2.523,0.021,3.172-0.948
							c0.415-0.62,0.425-1.426,0.313-2.163c-0.26-1.709-0.633-3.335-1.9-4.512c1.418-0.099,2.525-1.48,2.622-2.899
							c0.097-1.418-0.636-2.792-1.648-3.791c-1.012-0.999-2.244-1.731-3.497-2.403c1.093-0.372,2.221-0.765,3.067-1.552
							c0.846-0.786,1.334-2.081,0.842-3.126c-0.36-0.764-1.146-1.231-1.925-1.557c-1.919-0.801-3.84-0.72-5.88-0.312
							c0.407-1.077,0.819-2.182,0.825-3.333c0.006-1.151-0.48-2.376-1.486-2.935c-0.786-0.437-1.754-0.404-2.629-0.193
							c-1.87,0.45-3.385,1.562-4.365,3.218c0.03-1.087,0.048-2.202-0.311-3.228c-0.358-1.027-1.177-1.963-2.249-2.148
							c-0.904-0.156-1.814,0.236-2.584,0.736c-1.799,1.167-3.064,2.987-3.682,5.041c-0.353-1.402-1.19-2.677-2.334-3.56
							c-0.663-0.512-1.543-0.903-2.326-0.606c-0.654,0.248-1.054,0.905-1.337,1.545c-0.745,1.686-1.12,4.003-0.893,5.832
							c-0.603-0.715-1.214-1.436-1.963-1.996c-0.749-0.56-1.661-0.951-2.596-0.911c-0.934,0.041-1.876,0.578-2.228,1.445
							c-0.29,0.714-0.157,1.525,0.027,2.274c0.53,2.159,1.535,4.1,2.785,5.939c-0.934-0.242-1.891-0.487-2.852-0.403
							c-0.961,0.084-1.945,0.562-2.373,1.427c-0.329,0.666-0.285,1.471-0.02,2.165c0.265,0.694,0.732,1.292,1.232,1.84
							c2.3,2.522,5.484,4.222,8.86,4.73c2.073-1.848,4.867-1.676,7.614-1.268C326.824,251.038,332.46,250.684,335.814,254.785z"/>
						
							<rect x="317.81" y="265.51" transform="matrix(0.0138 -0.9999 0.9999 0.0138 50.101 594.9615)" style="fill:#B7502D;" width="17.72" height="13.143"/>
						<path style="fill:#801400;" d="M320.221,263.132l-0.076,5.48c2.991,0.166,9.861-0.055,12.728-5.281l-1.923-0.051
							L320.221,263.132z"/>
						<g>
							<path style="fill:#B7502D;" d="M248.135,385.872l-9.09,31.263c-0.802,2.792,0.632,5.812,3.392,6.892
								c2.928,1.146,6.231-0.299,7.378-3.227l12.942-33.065C257.826,387.367,252.946,386.886,248.135,385.872z"/>
						</g>
						<path style="fill:#2F3B6B;" d="M264.964,345.827c-0.572,0.197-1.135,0.4-1.686,0.611c-3.4,1.305-5.995,4.119-6.987,7.623
							l-0.525,1.857C260.802,355.038,263.776,350.574,264.964,345.827z"/>
						<path style="fill:#3A4882;" d="M307.14,340.611c0,0-25.359-0.563-42.177,5.216c-1.188,4.747-4.162,9.211-9.198,10.091
							l-11.335,40.061l13.717,4.901l15.94-37.194l31.577-1.244l7.969-14.848L307.14,340.611z"/>
						<line style="fill:none;stroke:#2F3B6B;stroke-miterlimit:10;" x1="256.025" y1="398.107" x2="273.206" y2="360.305"/>
						<g>
							<path style="fill:#B7502D;" d="M267.646,289.84l-12.786-6.032c-1.872-0.885-4.165-0.324-5.396,1.428
								c-1.377,1.959-0.905,4.662,1.054,6.039l11.966,8.412C264.262,296.435,266.002,293.163,267.646,289.84z"/>
						</g>
						<path style="fill:#B7502D;" d="M307.14,332.002l35.943,1.625l3.638-48.717c0.327-4.385-1.891-8.399-5.448-9.788l-12.734-4.973
							l-14.191,3.836c-3.729,1.008-6.364,4.837-6.434,9.288L307.14,332.002z"/>
						<path style="fill:#B7502D;" d="M309.712,361.163l28.178,1.274c3.851,0.174,6.926-4.697,6.583-10.338l-1.332-21.881
							l-35.75-1.617l-3.301,21.671C303.238,355.861,305.861,360.989,309.712,361.163z"/>
						<g>
							<path style="fill:#B7502D;" d="M274.341,388.419l2.007,32.005c0.191,2.891,2.552,5.244,5.508,5.335
								c3.143,0.097,5.77-2.373,5.867-5.516l0.977-31.72C283.913,388.593,279.126,388.585,274.341,388.419z"/>
						</g>
						<path style="fill:#B7502D;" d="M312.4,252.126c-1.01-8.624,3.94-16.291,11.055-17.125c7.116-0.833,13.703,5.483,14.713,14.107
							c0.316,2.697,0.062,5.468-0.824,8.039c-0.796,2.312-2.11,4.468-3.923,6.122c-1.127,1.028-2.49,1.874-3.937,2.364
							c-0.962,0.325-2.031,0.405-3.033,0.536c-1.1,0.144-2.203,0.259-3.31,0.344c-1.287,0.099-2.647,0.194-3.919-0.081
							c-1.126-0.244-2.198-0.784-3.074-1.53c-1.508-1.284-2.472-3.129-2.702-5.093l-0.642-5.487
							C312.633,253.609,312.488,252.88,312.4,252.126z"/>
						<g>
							<path style="fill:#B7502D;" d="M335.287,249.336c0.366-0.877,1.427-1.48,2.49-1.526c1.064-0.046,2.09,0.415,2.758,1.113
								s1.001,1.61,1.074,2.528c0.075,0.947-0.125,1.937-0.705,2.762c-0.579,0.825-1.565,1.466-2.658,1.59
								c-1.093,0.124-2.257-0.327-2.741-1.167L335.287,249.336z"/>
							<g>
								
									<path style="fill:none;stroke:#801400;stroke-width:0.5683;stroke-linecap:round;stroke-linejoin:round;stroke-miterlimit:10;" d="
									M338.377,254.118c-1.017-1.455-1.114-3.333-0.255-4.929"/>
								
									<path style="fill:none;stroke:#801400;stroke-width:0.5683;stroke-linecap:round;stroke-linejoin:round;stroke-miterlimit:10;" d="
									M337.745,251.393c0.923,0.283,1.682,0.87,2.074,1.602"/>
							</g>
						</g>
						<path style="fill:#B7502D;" d="M259.001,294.906c0,0-12.231-4.176-15.207-4.862c-2.975-0.686-5.245-1.661-5.804-2.233
							c-0.558-0.572,1.761-1.539,6.077-0.408c0,0-5.22-1.71-7.026-3.713c-1.806-2.003,5.559,0.22,7.874,1.328
							c0,0-6.056-2.922-7.689-5.201c-1.633-2.28,6.245,0.89,9.099,2.703c0,0-5.508-4.072-6.239-5.93
							c-0.73-1.858,5.694,2.081,8.078,4.025c2.385,1.944,3.644,1.512,3.493,0.898c-0.151-0.614-1.036-2.903-1.638-4.017
							c-0.376-0.696-0.446-2.873,0.611-2.327c0.634,0.327,1.77,2.12,2.417,3.213c1.725,2.915,5.208,7.515,7.368,8.847
							c2.16,1.331,3.078,1.774,3.078,1.774L259.001,294.906z"/>
						<g>
							<path style="fill:#1B141C;" d="M253.314,416.864c-0.008,0.674-0.04,1.39-0.081,2.121c-0.024,0.447-0.057,0.894-0.089,1.349
								c-0.049,0.642-0.106,1.292-0.163,1.918c-0.122,1.381-0.26,2.673-0.382,3.722c-0.162,1.479-0.284,2.462-0.284,2.462
								l-32.252-0.024c0,0-0.918-1.048-0.008-2.438c1.325-2.056,3.795-4.876,7.907-6.249c4.51-1.511,7.232-3.502,9.06-5.493
								c0.057-0.065,0.114-0.122,0.163-0.187c0.552-0.601,1.008-1.219,1.422-1.812c0.049-0.065,0.089-0.138,0.13-0.203
								c0.211-0.317,0.398-0.626,0.585-0.926c1.755-2.885,6.029,4.973,6.029,4.973s5.745-4.063,7.354-3.478
								C253.225,412.793,253.363,414.564,253.314,416.864z"/>
							<path style="fill:#D5D5D1;" d="M252.602,425.972c0.099,1.47,0.087,2.464,0.087,2.464l-32.633-0.027
								c0,0-0.913-1.048,0.001-2.437H252.602z"/>
							<path style="fill:#D5D5D1;" d="M241.133,414.516l-0.975,1.251c-0.163,0.211-0.471,0.244-0.675,0.081l-2.299-1.804
								c0.552-0.601,1.008-1.219,1.422-1.812c0.049-0.065,0.089-0.138,0.13-0.203l2.316,1.812
								C241.263,414.004,241.304,414.313,241.133,414.516z"/>
							<g>
								<path style="fill:#D5D5D1;" d="M253.233,418.985c-0.024,0.447-0.057,0.894-0.089,1.349
									c-1.219,0.756-2.584,1.308-4.022,1.609c-0.975,0.211-1.999,0.301-3.007,0.26c-0.999-0.033-1.942-0.146-2.828-0.187
									c-0.886-0.033-1.682,0.024-2.405,0.252c-0.731,0.219-1.422,0.618-2.023,1.105c-1.211,0.983-2.04,2.413-2.332,3.86
									l-3.21-0.845c0.691-2.17,2.096-4.03,3.941-5.233c0.918-0.601,1.95-1.056,3.047-1.268c1.105-0.228,2.21-0.171,3.185-0.024
									c0.991,0.146,1.901,0.358,2.771,0.471c0.861,0.122,1.731,0.138,2.609,0.041C250.38,420.22,251.876,419.741,253.233,418.985z
									"/>
							</g>
						</g>
						<g>
							<path style="fill:#1B141C;" d="M289.089,416.864c-0.008,0.674-0.041,1.39-0.081,2.121c-0.024,0.447-0.057,0.894-0.089,1.349
								c-0.049,0.642-0.106,1.292-0.162,1.918c-0.122,1.381-0.26,2.673-0.382,3.722c-0.162,1.479-0.284,2.462-0.284,2.462
								l-32.252-0.024c0,0-0.918-1.048-0.008-2.438c1.325-2.056,3.795-4.876,7.907-6.249c4.51-1.511,7.232-3.502,9.06-5.493
								c0.057-0.065,0.114-0.122,0.163-0.187c0.552-0.601,1.008-1.219,1.422-1.812c0.049-0.065,0.089-0.138,0.13-0.203
								c0.211-0.317,0.398-0.626,0.585-0.926c1.755-2.885,6.029,4.973,6.029,4.973s5.745-4.063,7.354-3.478
								C288.999,412.793,289.137,414.564,289.089,416.864z"/>
							<path style="fill:#D5D5D1;" d="M288.377,425.972c0.099,1.47,0.087,2.464,0.087,2.464l-32.633-0.027
								c0,0-0.913-1.048,0.001-2.437H288.377z"/>
							<path style="fill:#D5D5D1;" d="M276.908,414.516l-0.975,1.251c-0.163,0.211-0.471,0.244-0.675,0.081l-2.299-1.804
								c0.552-0.601,1.008-1.219,1.422-1.812c0.049-0.065,0.089-0.138,0.13-0.203l2.316,1.812
								C277.038,414.004,277.079,414.313,276.908,414.516z"/>
							<g>
								<path style="fill:#D5D5D1;" d="M289.008,418.985c-0.024,0.447-0.057,0.894-0.089,1.349
									c-1.219,0.756-2.584,1.308-4.022,1.609c-0.975,0.211-1.999,0.301-3.007,0.26c-0.999-0.033-1.942-0.146-2.828-0.187
									c-0.886-0.033-1.682,0.024-2.405,0.252c-0.731,0.219-1.422,0.618-2.023,1.105c-1.211,0.983-2.039,2.413-2.332,3.86
									l-3.21-0.845c0.691-2.17,2.096-4.03,3.941-5.233c0.918-0.601,1.95-1.056,3.047-1.268c1.105-0.228,2.21-0.171,3.185-0.024
									c0.991,0.146,1.901,0.358,2.771,0.471c0.861,0.122,1.731,0.138,2.609,0.041C286.155,420.22,287.65,419.741,289.008,418.985z
									"/>
							</g>
						</g>
						<path style="fill:#1B141C;" d="M342.028,249.876c-0.464,1.263-1.795,2.124-3.141,2.124c-1.346,0-2.637-0.811-3.309-1.977
							c-0.673-1.166-0.788-2.663-0.325-3.926c-0.509,0.294-1.034,0.569-1.599,0.73c-0.565,0.161-1.177,0.202-1.738,0.027
							c-0.65-0.203-1.202-0.701-1.469-1.327c-0.268-0.626-0.33-1.495-0.026-2.104c-0.894,0.81-1.862,1.563-2.972,2.034
							c-1.11,0.471-2.383,0.643-3.533,0.279c-1.15-0.364-2.031-1.281-2.251-2.468c0.018,1.546-1.174,2.966-2.655,3.411
							c-1.481,0.445-3.153,0.352-4.362-0.612c0.393,0.609,0.793,1.237,0.936,1.947c0.144,0.71-0.026,1.532-0.602,1.972
							c-0.445,0.339-1.043,0.395-1.601,0.37c-1.344-0.06-2.667-0.522-3.757-1.31c0.751-3.033,1.758-6.106,3.572-8.65
							c1.814-2.544,4.29-4.665,7.208-5.782c4.73-1.812,10.335-0.755,14.366,2.314C338.8,239.994,343.774,245.121,342.028,249.876z"
							/>
						<path style="fill:#2F3B6B;" d="M277.32,346.015c-3.659,1.738-6.101,5.555-5.877,9.855l0.065,0.816
							C275.076,354.443,276.747,350.438,277.32,346.015z"/>
						<path style="fill:#556BC1;" d="M344.498,333.627l-37.912,0.261l-1.559,10.224l-23.774,0.918
							c-1.408,0.067-2.735,0.415-3.933,0.984c-0.573,4.423-2.244,8.428-5.811,10.671l3.478,43.503h13.801l0.81-34.748
							c0,0,27.412,1.719,44.674-0.808c6.585-0.964,11.343-6.799,11.037-13.448L344.498,333.627z"/>
						<path style="fill:none;stroke:#3A4882;stroke-miterlimit:10;" d="M285.977,398.968l0.845-36.526c0,0,27.833,2.36,47.947-1.534
							"/>
						<polygon style="fill:#2F3B6B;" points="243.361,396.176 258.424,402.015 260.869,397.555 243.913,391.687 						"/>
						<polygon style="fill:#3A4882;" points="274.252,401.259 289.442,401.484 290.18,396.452 273.206,396.859 						"/>
						<polygon style="fill:#801400;" points="244.943,396.851 243.972,400.189 255.623,405.963 257.333,401.592 						"/>
						<polygon style="fill:#801400;" points="275.147,401.272 275.365,404.743 288.15,406.382 288.301,401.467 						"/>
						<path style="fill:none;stroke:#3A4882;stroke-miterlimit:10;" d="M327.131,339.299c-0.04,2.645,1.062,5.289,2.969,7.122
							c1.907,1.833,4.592,2.83,7.234,2.685"/>
						<path style="fill:#C1AF55;" d="M346.372,339.405c0.396-8.319,0.792-16.638,1.188-24.957
							c0.299-6.293,0.599-12.594,0.423-18.891c-0.139-4.969-0.167-9.471-1.208-14.029c-0.589-2.579-2.278-4.773-4.641-5.964
							l-6.204-3.128c-1.573,1.718-3.521,3.116-5.71,3.913c-2.189,0.797-4.623,0.974-6.869,0.356
							c-2.246-0.618-4.57-2.279-5.782-4.269l-3.622,1.474c-3.007,1.224-5.096,4.01-5.41,7.241
							c-1.862,19.184-3.236,38.475-3.317,57.737C318.395,343.963,332.965,343.828,346.372,339.405z"/>
						<path style="fill:#918440;" d="M346.487,336.82c-0.04,0.86-0.08,1.72-0.12,2.58c-13.4,4.43-27.97,4.56-41.15-0.51
							c0-0.84,0.01-1.68,0.02-2.52C318.467,341.34,333.047,341.19,346.487,336.82z"/>
						<path style="fill:#B7502D;" d="M275.667,330.154c2.47-2.19,7.855-6.379,17.853-5.338v7.139h-17.153
							C275.422,331.955,274.96,330.781,275.667,330.154z"/>
						<path style="fill:#B7502D;" d="M305.3,322.682l-12.941,2.172c-1.779,0.297-3.14,1.839-3.149,3.703
							c-0.01,2.084,1.671,3.781,3.755,3.791l12.779,0.06C305.59,329.168,305.456,325.924,305.3,322.682z"/>
						<path style="fill:#918440;" d="M280.865,314.958l0.179,0.113c3.773,2.388,8.529,2.543,12.469,0.443
							c0.053-0.028,0.112-0.063,0.165-0.092C289.759,312.736,285.348,313.142,280.865,314.958z"/>
						<path style="fill:#C1AF55;" d="M317.568,272.44l-9.19,30.93c-4.56,5.8-10.26,9.67-14.7,12.05c-3.92-2.68-8.33-2.28-12.81-0.46
							l-20.57-12.9c-0.98-0.63-1.27-1.94-0.64-2.92l0.1-0.15l-2.82-1.98l6.13-10.39l3.33,1.93c0.57-1.05,1.9-1.42,2.93-0.81
							l15.96,9.29C299.638,278.19,317.568,272.44,317.568,272.44z"/>
						<path style="fill:#918440;" d="M340.918,333.561l1.04,0.01c3.484,0.033,6.407-2.608,6.735-6.076
							c0.008-0.082,0.016-0.174,0.024-0.257C345.21,327.845,342.113,329.707,340.918,333.561z"/>
						<path style="fill:#C1AF55;" d="M348.717,327.24c-3.51,0.61-6.6,2.47-7.8,6.32l-38.4-0.37l-3.3-0.03l-0.56-10.23l3.34-0.35
							c0-1.53,1.18-2.8,2.71-2.9l3.73-0.26l21.45-1.6c-3.95-14.92-1.71-36.89-1.71-36.89l6.93-6.39l0.82-2.1l7.22,3.53
							C351.987,281.44,350.017,313.4,348.717,327.24z"/>
						<polygon style="fill:#918440;" points="302.517,333.19 299.217,333.16 298.658,322.93 301.997,322.58 						"/>
						<path style="fill:none;stroke:#918440;stroke-miterlimit:10;" d="M327.629,290.048c-0.246,7.748-0.068,18.981,2.255,27.773
							l-23.298,1.601"/>
						<path style="fill:#918440;" d="M338.957,273.96c-2.08,2.15-4.6,3.9-7.41,4.92c-3,1.1-6.33,1.34-9.41,0.49
							c-2.99-0.83-6.08-2.99-7.78-5.62l3.21-1.31c1.21,1.99,3.54,3.65,5.78,4.27c2.25,0.61,4.68,0.44,6.87-0.36
							c2.19-0.8,4.14-2.2,5.71-3.91L338.957,273.96z"/>
						<polygon style="fill:#918440;" points="266.398,288.55 259.757,298.99 256.938,297.01 263.068,286.62 						"/>
						<path style="fill:none;stroke:#918440;stroke-miterlimit:10;" d="M306.271,305.773c0.384-4.496,1.166-8.957,2.333-13.316"/>
					</g>
					<g>
						<g>
							<path style="fill:#1B141C;" d="M323.6,251.609c0.165,1.158,0.801,2.025,1.419,1.937c0.619-0.088,0.986-1.099,0.821-2.257
								c-0.165-1.158-0.801-2.025-1.419-1.937C323.803,249.441,323.435,250.451,323.6,251.609z"/>
							<path style="fill:#1B141C;" d="M314.112,252.962c0.165,1.158,0.801,2.025,1.419,1.937c0.619-0.088,0.986-1.099,0.821-2.257
								c-0.165-1.158-0.801-2.025-1.419-1.937C314.315,250.793,313.947,251.804,314.112,252.962z"/>
						</g>
						<path style="fill:#FFFFFF;" d="M325.656,259.366c0.293,2.054-1.135,3.957-3.189,4.25c-2.054,0.293-3.957-1.135-4.25-3.189
							L325.656,259.366z"/>
						
							<path style="fill:none;stroke:#1B141C;stroke-width:0.75;stroke-linecap:round;stroke-linejoin:round;stroke-miterlimit:10;" d="
							M319.407,252.461c-0.214,1.327-0.428,2.654-0.642,3.981c-0.078,0.486-0.142,1.034,0.158,1.423
							c0.202,0.262,0.536,0.395,0.865,0.425c0.329,0.03,0.659-0.03,0.984-0.091"/>
					</g>
				</g>
				<g>
					<g>
						<path style="fill:#B7502D;" d="M431.353,305.303c0,0-6.477,14.441,4.936,17.975l2.171-17.208L431.353,305.303z"/>
						<path style="fill:#1B141C;" d="M472.879,208.661c0.285-0.67,0.254-1.558-0.135-2.174c0.903-0.516,1.192-1.787,0.778-2.741
							c-0.414-0.954-1.385-1.584-2.401-1.806c-1.016-0.222-2.077-0.089-3.093,0.133c-1.016,0.222-2.015,0.532-3.047,0.667
							c-3.518,0.46-6.984-1.144-10.53-1.238c-2.861-0.076-5.794,0.908-7.827,2.923c-2.032,2.015-2.84,5.115-2.123,7.886
							c-1.312,0.202-2.296,1.409-2.61,2.699c-0.314,1.29-0.08,2.647,0.241,3.935c0.579,2.325,1.44,4.579,2.56,6.697l26.577-2.319
							c2.369-4.037,2.341-9.286-0.016-13.33C471.967,209.845,472.594,209.332,472.879,208.661z"/>
						<rect x="450.844" y="234.643" style="fill:#B7502D;" width="13.143" height="17.72"/>
						<path style="fill:#801400;" d="M463.987,234.643v5.78c-1.41,0.514-2.952,0.771-4.403,0.871c-1.99,0.141-3.98-0.008-5.954-0.24
							c-0.937-0.108-1.891-0.365-2.786-0.738v-5.672H463.987z"/>
						<path style="fill:#B7502D;" d="M478.489,304.172h-42.148v-48.985c0-4.057,2.692-7.621,6.594-8.731l13.851-3.94l14.976,4.013
							c3.968,1.063,6.728,4.66,6.728,8.768V304.172z"/>
						<path style="fill:#B7502D;" d="M473.299,334.286h-31.768c-4.342,0-7.713-4.572-7.211-9.78l2.021-20.983h42.148l2.021,20.983
							C481.012,329.714,477.641,334.286,473.299,334.286z"/>
						<g>
							<path style="fill:#B7502D;" d="M442.826,365.68c-4.073,0.083-8.135-0.051-12.133-0.618c0.007,2.192,0.003,4.382-0.05,6.568
								l-0.484,49.634c-0.027,2.541,1.821,4.78,4.405,5.169c2.827,0.426,5.464-1.521,5.889-4.347l7.38-48.913
								c0.382-2.31,0.835-4.612,1.303-6.913C447.028,366.117,444.926,365.929,442.826,365.68z"/>
						</g>
						<g>
							<path style="fill:#B7502D;" d="M483.915,362.842c-4.931,1.311-9.973,2.17-15.084,2.655c-1.14,0.188-2.285,0.351-3.436,0.496
								c0.489,2.391,0.965,4.784,1.369,7.184c2.516,16.289,4.947,32.597,7.544,48.902c0.383,2.42,2.482,4.269,5.008,4.26
								c2.792-0.009,5.047-2.279,5.039-5.071c-0.053-16.543-0.273-33.083-0.407-49.641
								C483.883,368.704,483.901,365.773,483.915,362.842z"/>
						</g>
						<path style="fill:#B7502D;" d="M449.751,250.471c-2.522-3.886-7.717-4.991-11.603-2.469c-2.666,1.731-5.148,3.673-7.6,5.649
							c-2.423,2.009-4.811,4.058-7.116,6.202c-2.328,2.117-4.611,4.286-6.846,6.511c-2.232,2.228-4.433,4.49-6.514,6.89
							l-0.584,0.673c1.328,3.491,1.716,7.272-0.209,10.194l22.203,25.475c1.479,1.7,4.008,2.152,6.01,0.955
							c2.249-1.344,2.982-4.257,1.638-6.505l-13.603-22.757c0.831-0.617,1.666-1.231,2.487-1.86
							c2.502-1.919,4.955-3.893,7.364-5.919c2.431-2,4.779-4.094,7.093-6.228c2.284-2.168,4.539-4.368,6.61-6.781
							C451.438,257.75,451.824,253.665,449.751,250.471z"/>
						<path style="fill:#801400;" d="M409.488,273.926l-0.605,0.697c-2.223,2.559-2.277,6.43,0.014,9.059l0.382,0.439
							C411.204,281.198,410.816,277.417,409.488,273.926z"/>
						<path style="fill:#801400;" d="M502.126,290.303c0.343,0.203,0.701,0.389,1.085,0.537c3.734,1.441,7.929-0.419,9.37-4.153
							l0.18-0.467C508.882,285.785,505.019,287.541,502.126,290.303z"/>
						<path style="fill:#B7502D;" d="M525.421,242.7c-2.183-1.265-4.979-0.521-6.244,1.662l-15.24,26.297
							c-0.411-0.397-0.815-0.802-1.228-1.197c-2.7-2.577-5.448-5.098-8.241-7.567c-2.77-2.495-5.622-4.895-8.508-7.255
							c-2.915-2.326-5.859-4.618-8.985-6.697c-3.129-2.081-7.39-1.853-10.284,0.801c-3.404,3.122-3.633,8.413-0.511,11.817
							c2.538,2.767,5.258,5.32,8.007,7.84c2.779,2.486,5.591,4.932,8.485,7.282c2.872,2.377,5.788,4.701,8.752,6.97
							c2.967,2.265,5.964,4.496,9.08,6.587l1.31,0.88c0.1,0.066,0.209,0.122,0.313,0.183c2.893-2.763,6.755-4.518,10.635-4.082
							l14.632-37.923C528.191,246.236,527.394,243.843,525.421,242.7z"/>
						<g>
							<path style="fill:#B7502D;" d="M474.365,221.884c-0.582-0.771-1.548-1.348-2.61-1.426c-1.062-0.078-2.186,0.398-2.651,1.226
								l-0.4,5.29c0.383,0.891,1.487,1.474,2.587,1.478c1.1,0.004,2.153-0.518,2.825-1.27c0.672-0.753,0.985-1.712,1.021-2.662
								C475.172,223.6,474.948,222.655,474.365,221.884z"/>
							<g>
								
									<path style="fill:none;stroke:#801400;stroke-width:0.5683;stroke-linecap:round;stroke-linejoin:round;stroke-miterlimit:10;" d="
									M471.617,226.794c-0.841-1.563-0.719-3.44,0.32-4.925"/>
								
									<path style="fill:none;stroke:#801400;stroke-width:0.5683;stroke-linecap:round;stroke-linejoin:round;stroke-miterlimit:10;" d="
									M471.307,224.012c0.884,0.389,1.57,1.06,1.874,1.832"/>
							</g>
						</g>
						<g>
							<path style="fill:#B7502D;" d="M440.848,221.884c0.582-0.771,1.548-1.348,2.61-1.426c1.062-0.078,2.186,0.398,2.651,1.226
								l0.399,5.29c-0.383,0.891-1.487,1.474-2.587,1.478c-1.1,0.004-2.153-0.518-2.825-1.27c-0.672-0.753-0.985-1.712-1.021-2.662
								C440.041,223.6,440.266,222.655,440.848,221.884z"/>
							<g>
								
									<path style="fill:none;stroke:#801400;stroke-width:0.5683;stroke-linecap:round;stroke-linejoin:round;stroke-miterlimit:10;" d="
									M443.596,226.794c0.841-1.563,0.719-3.44-0.32-4.925"/>
								
									<path style="fill:none;stroke:#801400;stroke-width:0.5683;stroke-linecap:round;stroke-linejoin:round;stroke-miterlimit:10;" d="
									M443.906,224.012c-0.884,0.389-1.57,1.06-1.874,1.832"/>
							</g>
						</g>
						<path style="fill:#B7502D;" d="M470.793,221.582c0-8.655-5.909-15.671-13.198-15.671c-7.289,0-13.198,7.016-13.198,15.671
							c0,0.907,0.079,1.79,0.203,2.655c0,0,0,3.877,0,3.877c0,3.561,1.754,6.983,4.673,9.031c1.308,0.918,2.926,1.558,4.507,1.75
							c1.898,0.231,3.816,0.378,5.726,0.238c2.063-0.15,4.288-0.625,6.059-1.746c1.622-1.027,2.954-2.549,3.825-4.257
							c0.09-0.176,0.175-0.355,0.256-0.536c0.22-0.494,0.404-1.004,0.547-1.525c0.265-0.962,0.397-1.959,0.397-2.956v-3.877
							C470.714,223.372,470.793,222.489,470.793,221.582z"/>
						<g>
							<path style="fill:#B7502D;" d="M523.463,255.95l3.257-7.588c2.765-0.764,5.506-4.112,6.26-6.88
								c0.557-0.411,0.963-0.934,1.08-1.617c0.118-0.682-0.232-1.471-0.892-1.683c0.224-0.875,0.003-1.92-0.597-2.595
								c-0.166-0.187-0.362-0.354-0.594-0.447c-0.232-0.093-0.504-0.106-0.728,0.005c-0.111-0.677-0.452-1.35-1.07-1.648
								c-0.618-0.298-1.38-0.274-1.978,0.062c1.786-2.144,3.653-4.382,4.664-6.838c0.173-0.419,0.222-0.997-0.151-1.255
								c-0.228-0.158-0.548-0.12-0.788,0.019c-0.24,0.139-0.418,0.361-0.592,0.577c-2.484,3.098-5.179,6.028-8.059,8.763
								c-0.352,0.334-0.664,0.699-0.859,1.143c0.029-0.967-0.099-1.95-0.069-2.918c0.024-0.78,0.043-1.588-0.257-2.309
								c-0.3-0.721-1.013-1.332-1.79-1.254c-0.606,2.695-1.038,5.621-1.373,8.363c-0.564,4.614,0.706,4.768,1.022,8.083
								l-2.139,5.202"/>
							
								<path style="fill:none;stroke:#801400;stroke-width:0.3939;stroke-linecap:round;stroke-linejoin:round;stroke-miterlimit:10;" d="
								M531.199,235.153c-0.609,0.826-1.177,1.682-1.815,2.486c-0.638,0.803-1.353,1.559-2.203,2.133
								c-0.302,0.204-0.637,0.389-1,0.398c-0.463,0.012-0.902-0.278-1.137-0.676c-0.235-0.399-0.282-0.888-0.203-1.344
								c0.08-0.456,0.277-0.883,0.507-1.285c0.732-1.282,1.788-2.343,2.843-3.375"/>
							
								<path style="fill:none;stroke:#801400;stroke-width:0.3939;stroke-linecap:round;stroke-linejoin:round;stroke-miterlimit:10;" d="
								M533.175,238.198c-1.353,1.065-2.686,2.156-3.997,3.272c-0.326,0.278-0.67,0.566-1.088,0.659
								c-0.504,0.111-1.056-0.101-1.387-0.498c-0.331-0.396-0.444-0.953-0.337-1.458"/>
							
								<path style="fill:none;stroke:#801400;stroke-width:0.3939;stroke-linecap:round;stroke-linejoin:round;stroke-miterlimit:10;" d="
								M532.958,241.501c-0.513,0.399-1.026,0.798-1.538,1.196c-0.389,0.303-0.785,0.609-1.243,0.793
								c-0.458,0.184-0.993,0.231-1.436,0.014c-0.443-0.217-0.747-0.744-0.609-1.218"/>
							
								<path style="fill:none;stroke:#801400;stroke-width:0.3939;stroke-linecap:round;stroke-linejoin:round;stroke-miterlimit:10;" d="
								M525.847,240.723c-0.047,0.881-0.095,1.769-0.316,2.623c-0.221,0.854-0.63,1.683-1.296,2.262"/>
						</g>
						<path style="fill:#1B141C;" d="M471.307,218.139c-0.496-2.593-1.75-5.389-3.281-7.54c-1.531-2.151-3.648-3.915-6.12-4.842
							c-3.944-1.479-8.58-0.665-12.002,1.79c-3.422,2.455-5.52,6.434-6.192,10.592c0.31-0.076,0.626-0.128,0.938-0.199
							c-0.332,3.119-0.331,6.307,0.043,9.418l0.017-0.01c1.023-0.624,1.64-1.734,1.631-2.932c-0.01-1.197,0.034-2.379,0.165-3.593
							c0.155-1.428,0.682-2.723,1.492-3.533c6.395-1.031,13.035-0.951,19.437,0.101c0.758,0.814,1.254,2.059,1.403,3.432
							c0.132,1.214,0.175,2.396,0.166,3.593c-0.01,1.199,0.607,2.309,1.63,2.932l0.017,0.01c0.371-3.084,0.375-6.245,0.051-9.34
							C470.903,218.062,471.107,218.094,471.307,218.139z"/>
						<path style="fill:#FFB74A;" d="M465.333,371.472l19.338-2.03c0.951-24.591-3.027-42.762-3.027-42.762l-2.699-23.157h-42.826
							l-2.741,21.962c0,0-4.938,22.461-4.279,44.503l20.288,2.456c0,0,3.939-18.054,6.027-36.012l3.873-0.532
							C459.286,335.9,461.344,354.901,465.333,371.472z"/>
						<polygon style="fill:#FF9838;" points="428.17,370.263 449.429,373.083 451.454,368.889 428.17,365.418 						"/>
						<polygon style="fill:#FF9838;" points="485.96,370.263 464.7,373.083 462.676,368.889 485.96,365.418 						"/>
						<path style="fill:none;stroke:#FF9838;stroke-miterlimit:10;" d="M446.781,370.274c0,0,4.338-20.415,5.929-34.006"/>
						<path style="fill:none;stroke:#FF9838;stroke-miterlimit:10;" d="M461.692,336.268c0,0,3.98,24.092,6.801,32.982"/>
						<path style="fill:none;stroke:#FF9838;stroke-miterlimit:10;" d="M434.732,328.618c2.555-0.548,4.914-1.965,6.598-3.962
							c1.684-1.997,2.682-4.563,2.791-7.173"/>
						<path style="fill:none;stroke:#FF9838;stroke-miterlimit:10;" d="M480.516,328.618c-2.555-0.548-4.914-1.965-6.598-3.962
							c-1.684-1.997-2.682-4.563-2.791-7.173"/>
						<path style="fill:none;stroke:#FF9838;stroke-miterlimit:10;" d="M457.969,331.351c0.157-5.11,0.313-10.221,0.47-15.331"/>
						<path style="fill:none;stroke:#FF9838;stroke-miterlimit:10;" d="M454.77,318.116c0.008,2.484,0.02,4.997,0.625,7.407
							c0.215,0.855,0.52,1.72,1.127,2.36c0.607,0.639,1.581,0.999,2.398,0.668"/>
						<path style="fill:#78A4A5;" d="M482.791,324.641c-1.63-14.714-3.242-29.122-3.744-43.697
							c-4.929-4.014-7.688-10.211-8.76-16.477c-1.073-6.266-0.323-12.699,0.156-19.038l-3.153-1.007
							c-2.048,3.436-5.967,5.674-9.967,5.692c-4,0.018-7.939-2.185-10.018-5.603l-3.427,0.903
							c2.467,6.097,2.761,12.946,1.326,19.365c-1.435,6.419-4.863,12.378-9.691,16.845c-0.631,13.487-1.718,26.85-3.418,40.244
							c8.094,2.39,16.101,3.644,24.54,3.753C465.074,325.728,474.377,325.302,482.791,324.641z"/>
						<g>
							<path style="fill:#D5D5D1;" d="M428.138,401.407c-0.057,0.552,0.318,1.05,0.849,1.157c0.031,0.006,0.062,0.013,0.096,0.009
								l0.233,0.026l0.086,2.79l0.072,2.43l0.061,1.734l0.072,2.43l0.368,12.108l10.896,0.968l1.99-11.827l0.396-2.389l0.291-1.707
								l0.394-2.379l0.44-2.608l0.244,0.028c0.583,0.064,1.113-0.36,1.166-0.945c0.064-0.583-0.362-1.102-0.945-1.166l-15.544-1.604
								C428.721,400.398,428.202,400.824,428.138,401.407z"/>
							<polygon style="fill:#9E9E9B;" points="429.402,405.388 429.474,407.818 443.549,409.136 443.943,406.757 							"/>
							<polygon style="fill:#9E9E9B;" points="429.535,409.553 429.607,411.983 442.861,413.232 443.258,410.843 							"/>
						</g>
						<g>
							<path style="fill:#D5D5D1;" d="M486.776,401.407c0.057,0.552-0.318,1.05-0.849,1.157c-0.031,0.006-0.062,0.013-0.096,0.009
								l-0.233,0.026l-0.086,2.79l-0.072,2.43l-0.061,1.734l-0.072,2.43l-0.368,12.108l-10.896,0.968l-1.99-11.827l-0.396-2.389
								l-0.291-1.707l-0.394-2.379l-0.44-2.608l-0.243,0.028c-0.583,0.064-1.113-0.36-1.166-0.945
								c-0.064-0.583,0.362-1.102,0.945-1.166l15.544-1.604C486.193,400.398,486.713,400.824,486.776,401.407z"/>
							<polygon style="fill:#9E9E9B;" points="485.512,405.388 485.44,407.818 471.366,409.136 470.972,406.757 							"/>
							<polygon style="fill:#9E9E9B;" points="485.38,409.553 485.307,411.983 472.053,413.232 471.657,410.843 							"/>
						</g>
						<g>
							<path style="fill:#1B141C;" d="M442.689,428.303v0.024h-19.879v-1.795c0-0.223,0.008-0.447,0.024-0.67
								c0.056-1.005,0.255-1.986,0.59-2.92c0.407-1.141,1.013-2.21,1.787-3.167l4.994-6.158c0-1.587,1.285-2.872,2.872-2.872h4.316
								c1.205,0,2.273,0.742,2.688,1.867l2.146,4.946c0.128,0.303,0.231,0.614,0.295,0.925c0.008,0.04,0.016,0.072,0.024,0.112
								c0.016,0.056,0.024,0.112,0.032,0.167c0.064,0.327,0.088,0.67,0.08,1.013c-0.008,0.351-0.016,0.79-0.016,1.292
								c-0.008,0.199-0.008,0.407-0.008,0.63c0,0.487,0,1.021,0.008,1.603c0,0.774,0.008,1.635,0.024,2.561
								C442.681,426.636,442.689,427.449,442.689,428.303z"/>
							<path style="fill:#A8A8A5;" d="M429.05,426.556v1.787l13.641-0.016c0-0.854-0.006-1.667-0.016-2.441h-13.608
								C429.055,426.11,429.05,426.333,429.05,426.556z"/>
							<path style="fill:#D5D5D1;" d="M432.251,416.343h4.638c0.694,0,1.257-0.563,1.257-1.257l0,0c0-0.694-0.563-1.257-1.257-1.257
								h-4.638c-0.694,0-1.257,0.563-1.257,1.257l0,0C430.994,415.78,431.557,416.343,432.251,416.343z"/>
							<path style="fill:#D5D5D1;" d="M430.136,418.332h5.947c0.332,0,0.602-0.27,0.602-0.602l0,0c0-0.333-0.27-0.602-0.602-0.602
								h-5.947c-0.333,0-0.602,0.27-0.602,0.602l0,0C429.534,418.062,429.804,418.332,430.136,418.332z"/>
							<path style="fill:#D5D5D1;" d="M429.023,420.395h5.947c0.333,0,0.602-0.269,0.602-0.602l0,0c0-0.333-0.269-0.602-0.602-0.602
								h-5.947c-0.333,0-0.602,0.27-0.602,0.602l0,0C428.421,420.125,428.691,420.395,429.023,420.395z"/>
							<path style="fill:#D5D5D1;" d="M422.812,425.902v2.441l11.848-0.014c0.669-0.001,1.212-0.545,1.207-1.214
								c0-0.008,0-0.016,0-0.024c-0.004-0.666-0.543-1.205-1.209-1.205h-11.831C422.821,425.892,422.818,425.896,422.812,425.902z"
								/>
							<g>
								<path style="fill:#A8A8A5;" d="M442.657,419.775c-0.008,0.351-0.016,0.79-0.016,1.292c-0.008,0.199-0.008,0.407-0.008,0.63
									c-0.136,0.136-0.271,0.279-0.391,0.431c-0.941,1.149-1.444,2.632-1.444,4.036l-3.151-0.183
									c0.231-2.146,1.189-4.148,2.68-5.616c0.654-0.646,1.412-1.197,2.25-1.604C442.641,419.089,442.665,419.432,442.657,419.775z
									"/>
							</g>
						</g>
						<g>
							<path style="fill:#1B141C;" d="M472.907,428.303v0.024h19.879v-1.795c0-0.223-0.008-0.447-0.024-0.67
								c-0.056-1.005-0.255-1.986-0.59-2.92c-0.407-1.141-1.013-2.21-1.787-3.167l-4.994-6.158c0-1.587-1.285-2.872-2.872-2.872
								h-4.316c-1.205,0-2.273,0.742-2.688,1.867l-2.146,4.946c-0.128,0.303-0.231,0.614-0.295,0.925
								c-0.008,0.04-0.016,0.072-0.024,0.112c-0.016,0.056-0.024,0.112-0.032,0.167c-0.064,0.327-0.088,0.67-0.08,1.013
								c0.008,0.351,0.016,0.79,0.016,1.292c0.008,0.199,0.008,0.407,0.008,0.63c0,0.487,0,1.021-0.008,1.603
								c0,0.774-0.008,1.635-0.024,2.561C472.915,426.636,472.907,427.449,472.907,428.303z"/>
							<path style="fill:#A8A8A5;" d="M486.546,426.556v1.787l-13.641-0.016c0-0.854,0.005-1.667,0.016-2.441h13.608
								C486.541,426.11,486.546,426.333,486.546,426.556z"/>
							<path style="fill:#D5D5D1;" d="M483.345,416.343h-4.638c-0.694,0-1.257-0.563-1.257-1.257l0,0
								c0-0.694,0.563-1.257,1.257-1.257h4.638c0.694,0,1.257,0.563,1.257,1.257l0,0
								C484.602,415.78,484.039,416.343,483.345,416.343z"/>
							<path style="fill:#D5D5D1;" d="M485.46,418.332h-5.947c-0.332,0-0.602-0.27-0.602-0.602l0,0c0-0.333,0.27-0.602,0.602-0.602
								h5.947c0.332,0,0.602,0.27,0.602,0.602l0,0C486.062,418.062,485.792,418.332,485.46,418.332z"/>
							<path style="fill:#D5D5D1;" d="M486.573,420.395h-5.947c-0.332,0-0.602-0.269-0.602-0.602l0,0
								c0-0.333,0.27-0.602,0.602-0.602h5.947c0.333,0,0.602,0.27,0.602,0.602l0,0C487.175,420.125,486.905,420.395,486.573,420.395
								z"/>
							<path style="fill:#D5D5D1;" d="M492.784,425.902v2.441l-11.848-0.014c-0.669-0.001-1.212-0.545-1.207-1.214
								c0-0.008,0-0.016,0-0.024c0.004-0.666,0.543-1.205,1.209-1.205h11.831C492.775,425.892,492.778,425.896,492.784,425.902z"/>
							<g>
								<path style="fill:#A8A8A5;" d="M472.939,419.775c0.008,0.351,0.016,0.79,0.016,1.292c0.008,0.199,0.008,0.407,0.008,0.63
									c0.136,0.136,0.271,0.279,0.391,0.431c0.941,1.149,1.444,2.632,1.444,4.036l3.151-0.183
									c-0.231-2.146-1.189-4.148-2.68-5.616c-0.654-0.646-1.412-1.197-2.25-1.604
									C472.955,419.089,472.931,419.432,472.939,419.775z"/>
							</g>
						</g>
						<g>
							<path style="fill:#486363;" d="M463.852,287.576h-11.296v-4.344h2.689v-8.54c-0.489,0.128-1.158,0.191-2.009,0.191
								c-0.273,0-0.499-0.013-0.68-0.04v-4.183c0.109,0.009,0.222,0.015,0.34,0.015c1.185,0,2.286-0.231,3.299-0.693
								c1.032-0.47,1.77-1.027,2.213-1.67h2.838v14.921h2.607V287.576z"/>
						</g>
						<polygon style="fill:#801400;" points="430.664,370.594 430.664,373.313 447.332,376.489 447.877,372.877 						"/>
						<polygon style="fill:#801400;" points="483.927,370.532 466.702,372.817 467.237,376.248 483.952,372.247 						"/>
						<path style="fill:none;stroke:#486363;stroke-width:0.75;stroke-miterlimit:10;" d="M441.328,307.624
							c7.727,6.163,17.532,9.672,27.415,9.808"/>
						<path style="fill:none;stroke:#486363;stroke-width:0.75;stroke-miterlimit:10;" d="M455.043,308.441
							c2.916,3.168,6.612,5.613,10.668,7.057"/>
					</g>
					<g>
						<path style="fill:#FFFFFF;" d="M454.043,232.639c0,2.075,1.682,3.757,3.757,3.757c2.075,0,3.757-1.682,3.757-3.757H454.043z"
							/>
						<g>
							<path style="fill:#1B141C;" d="M452.89,222.031c0,1.17-0.507,2.118-1.132,2.118c-0.625,0-1.132-0.948-1.132-2.118
								c0-1.17,0.507-2.118,1.132-2.118C452.383,219.913,452.89,220.861,452.89,222.031z"/>
							<path style="fill:#1B141C;" d="M464.203,222.031c0,1.17-0.507,2.118-1.132,2.118c-0.625,0-1.132-0.948-1.132-2.118
								c0-1.17,0.507-2.118,1.132-2.118C463.696,219.913,464.203,220.861,464.203,222.031z"/>
						</g>
						
							<path style="fill:none;stroke:#1B141C;stroke-width:0.75;stroke-linecap:round;stroke-linejoin:round;stroke-miterlimit:10;" d="
							M457.405,221.888c-0.42,1.686-0.84,3.373-1.26,5.059c-0.154,0.62-0.302,1.307-0.006,1.873
							c0.403,0.771,1.419,0.949,2.289,0.951"/>
					</g>
				</g>
				<g>
					<g>
						<path style="fill:#1B141C;" d="M640.192,291.999c-1.113-3.754-1.752-7.816-0.611-11.562c0.911-2.991,2.887-5.551,3.969-8.485
							c2.61-7.079-0.591-15.862-7.459-18.985c1.862-2.088,1.383-5.542-0.415-7.686c-1.797-2.144-4.557-3.223-7.268-3.913
							c-2.712-0.69-5.526-1.085-8.073-2.243c-3.035-1.38-5.58-3.796-8.778-4.741c-4.061-1.199-8.794,0.412-11.281,3.838
							s-2.55,8.426-0.151,11.915c1.845,2.683,3.942,5.44,5.313,8.393c1.371,2.953,2.125,6.289,1.522,9.489
							c-0.706,3.752-3.172,6.936-4.308,10.58c-2.028,6.5,0.834,14.197,6.616,17.793l7.061-15.962
							c1.403,14.355,2.7,28.32,1.649,42.706c3.298,3.594,8.721,4.903,13.435,3.648c4.714-1.255,8.638-4.859,10.738-9.262
							c2.099-4.403,2.463-9.521,1.503-14.303C642.884,299.378,641.305,295.754,640.192,291.999z"/>
						<rect x="611.722" y="271.216" style="fill:#FF5754;" width="13.143" height="17.72"/>
						<path style="fill:#DA2727;" d="M611.722,271.216v5.481c2.993,0.124,9.859-0.191,12.654-5.456l-1.924-0.025H611.722z"/>
						<path style="fill:#FF5754;" d="M605.091,258.659c0-8.683,5.808-15.723,12.972-15.723c7.164,0,12.972,7.039,12.972,15.723
							c0,2.715-0.574,5.438-1.753,7.889c-1.06,2.203-2.615,4.192-4.609,5.624c-1.239,0.89-2.691,1.572-4.185,1.89
							c-0.993,0.211-2.064,0.166-3.075,0.18c-1.109,0.015-2.219,0.001-3.327-0.043c-1.289-0.051-2.651-0.115-3.883-0.536
							c-1.09-0.373-2.092-1.034-2.875-1.877c-1.348-1.451-2.091-3.395-2.091-5.372v-5.524
							C605.15,260.159,605.091,259.418,605.091,258.659z"/>
						<g>
							<path style="fill:#FF5754;" d="M628.147,258.55c0.465-0.828,1.589-1.304,2.651-1.226c1.062,0.078,2.027,0.655,2.61,1.426
								c0.582,0.771,0.807,1.716,0.772,2.636c-0.036,0.95-0.35,1.909-1.021,2.662s-1.725,1.274-2.825,1.271
								c-1.1-0.003-2.204-0.587-2.587-1.478L628.147,258.55z"/>
							<g>
								
									<path style="fill:none;stroke:#DA2727;stroke-width:0.5683;stroke-linecap:round;stroke-linejoin:round;stroke-miterlimit:10;" d="
									M630.66,263.659c-0.841-1.563-0.719-3.44,0.32-4.925"/>
								
									<path style="fill:none;stroke:#DA2727;stroke-width:0.5683;stroke-linecap:round;stroke-linejoin:round;stroke-miterlimit:10;" d="
									M630.349,260.878c0.884,0.389,1.57,1.06,1.874,1.832"/>
							</g>
						</g>
						<g>
							<path style="fill:#FF5754;" d="M553.571,373.198l-6.068,44.296c-0.319,2.307,1.111,4.551,3.417,5.19
								c2.512,0.695,5.113-0.778,5.808-3.29l11.807-42.655C563.466,375.985,558.388,374.804,553.571,373.198z"/>
						</g>
						<path style="fill:#3A4882;" d="M564.16,344.81c-1.124,3.827-4.517,6.426-8.673,7.041c-0.005,0.037-0.014,0.073-0.019,0.11
							l-3.814,31.57l14.567,2.911l8.496-24.889l26.735-10.784v-7.538L564.16,344.81z"/>
						<path style="fill:#2F3B6B;" d="M564.16,344.81l-0.968,0.041c-3.927,0.166-7.163,3.118-7.705,7
							C559.643,351.236,563.036,348.637,564.16,344.81z"/>
						
							<line style="fill:none;stroke:#2F3B6B;stroke-width:0.75;stroke-linecap:round;stroke-linejoin:round;stroke-miterlimit:10;" x1="564.769" y1="383.322" x2="573.598" y2="358.306"/>
						<g>
							<path style="fill:#FF5754;" d="M591.106,310.677c-1.955-1.846-3.53-3.738-5.152-5.907c-0.23-0.307-0.435-0.572-0.615-0.802
								l-4.443,5.065c-1.896,2.17-3.769,4.363-5.64,6.558l-13.956,5.679c-1.371,0.562-2.329,1.926-2.293,3.495
								c0.047,2.033,1.733,3.642,3.766,3.595l18.18-0.422c0.932-0.023,1.867-0.376,2.6-1.064l0.995-0.933
								c2.367-2.22,4.729-4.444,7.067-6.693l4.451-4.299C594.363,313.58,592.693,312.175,591.106,310.677z"/>
						</g>
						<g>
							<path style="fill:#FF5754;" d="M581.943,377.734c-1.936,0.009-3.918-0.061-5.922-0.192l7.916,44.71
								c0.403,2.292,2.45,3.99,4.839,3.893c2.605-0.106,4.63-2.303,4.525-4.908l-1.787-44.01
								C588.329,377.496,585.142,377.719,581.943,377.734z"/>
						</g>
						<path style="fill:#FF5754;" d="M604.283,340.501h26.802l5.788-43.512c0.712-5.351-1.245-10.392-4.904-12.031l-13.641-6.113
							l-14.788,6.222c-3.731,1.569-5.747,6.651-5.027,12.062L604.283,340.501z"/>
						<path style="fill:#FF5754;" d="M603.908,358.726h27.549c3.765,0,5.638-5.385,4.176-10.884l-4.552-17.119h-26.797
							l-4.552,17.119C598.27,353.341,600.143,358.726,603.908,358.726z"/>
						<g>
							<path style="fill:#DA2727;" d="M655.569,316.091c0,0,0.001,0,0.002,0.001l0.915,0.415c2.623,1.188,5.788,0.406,7.546-1.989
								C661.211,313.328,658.39,313.737,655.569,316.091z"/>
							<path style="fill:#FF5754;" d="M686.938,281.968c1.005-1.426,0.863-3.411-0.42-4.677c-1.429-1.409-3.729-1.394-5.139,0.034
								l-23.629,23.948c-0.979-0.596-1.952-1.202-2.935-1.789l-7.285-4.329c-0.171-0.102-0.345-0.201-0.517-0.302
								c-1.259,3.439-2.829,6.783-4.091,10.182c-0.549,1.477-1.042,2.97-1.527,4.467l6.467,3.055c2.557,1.201,5.13,2.37,7.706,3.535
								c2.821-2.355,5.642-2.763,8.463-1.573c0.025-0.035,0.057-0.062,0.082-0.097L686.938,281.968z"/>
						</g>
						<path style="fill:#FF5754;" d="M683.956,286.158c0,0,7.998-9.114,10.098-11.063c2.1-1.948,3.491-3.803,3.678-4.529
							c0.187-0.726-2.152-0.43-5.134,2.509c0,0,3.447-3.831,3.98-6.304c0.533-2.473-4.419,2.778-5.784,4.761
							c0,0,3.561-5.207,3.824-7.825c0.263-2.618-4.664,3.643-6.138,6.452c0,0,2.578-5.887,2.303-7.74
							c-0.274-1.853-3.659,4.354-4.69,7.05c-1.031,2.696-2.257,2.933-2.422,2.363c-0.164-0.569-0.514-2.846-0.545-4.033
							c-0.019-0.742-0.98-2.545-1.585-1.607c-0.363,0.563-0.449,2.552-0.464,3.743c-0.041,3.177-0.724,8.548-1.858,10.64
							c-1.134,2.092-1.674,2.882-1.674,2.882L683.956,286.158z"/>
						<g>
							<path style="fill:#1B141C;" d="M559.392,417.712c-0.008,0.623-0.037,1.285-0.075,1.96c-0.022,0.413-0.053,0.826-0.083,1.247
								c-0.045,0.593-0.098,1.194-0.15,1.773c-0.113,1.277-0.24,2.471-0.353,3.44c-0.15,1.367-0.263,2.276-0.263,2.276
								l-29.812-0.022c0,0-0.849-0.969-0.008-2.253c1.224-1.9,3.508-4.507,7.309-5.776c4.169-1.397,6.685-3.237,8.375-5.078
								c0.053-0.06,0.105-0.113,0.15-0.173c0.511-0.556,0.932-1.127,1.315-1.675c0.045-0.06,0.083-0.128,0.12-0.188
								c0.195-0.293,0.368-0.578,0.541-0.856c1.622-2.667,5.573,4.597,5.573,4.597s5.31-3.756,6.798-3.215
								C559.31,413.949,559.437,415.587,559.392,417.712z"/>
							<path style="fill:#D5D5D1;" d="M558.734,426.131c0.091,1.359,0.08,2.278,0.08,2.278l-30.165-0.025
								c0,0-0.844-0.969,0.001-2.253H558.734z"/>
							<path style="fill:#D5D5D1;" d="M548.133,415.542l-0.901,1.157c-0.15,0.195-0.436,0.225-0.624,0.075l-2.126-1.667
								c0.511-0.556,0.932-1.127,1.315-1.675c0.045-0.06,0.083-0.128,0.12-0.188l2.141,1.675
								C548.253,415.069,548.291,415.354,548.133,415.542z"/>
							<path style="fill:#D5D5D1;" d="M554.341,421.744c0,1.484-1.203,2.686-2.687,2.686c-1.484,0-2.686-1.203-2.686-2.686
								s1.203-2.686,2.686-2.686C553.138,419.057,554.341,420.26,554.341,421.744z"/>
						</g>
						<g>
							<path style="fill:#1B141C;" d="M594.426,417.712c-0.007,0.623-0.037,1.285-0.075,1.96c-0.023,0.413-0.053,0.826-0.083,1.247
								c-0.045,0.593-0.098,1.194-0.15,1.773c-0.113,1.277-0.24,2.471-0.353,3.44c-0.15,1.367-0.263,2.276-0.263,2.276
								l-29.812-0.022c0,0-0.849-0.969-0.008-2.253c1.224-1.9,3.508-4.507,7.309-5.776c4.169-1.397,6.685-3.237,8.375-5.078
								c0.053-0.06,0.105-0.113,0.15-0.173c0.511-0.556,0.932-1.127,1.315-1.675c0.045-0.06,0.083-0.128,0.12-0.188
								c0.195-0.293,0.368-0.578,0.541-0.856c1.622-2.667,5.573,4.597,5.573,4.597s5.311-3.756,6.798-3.215
								C594.344,413.949,594.471,415.587,594.426,417.712z"/>
							<path style="fill:#D5D5D1;" d="M593.768,426.131c0.091,1.359,0.08,2.278,0.08,2.278l-30.165-0.025
								c0,0-0.844-0.969,0.001-2.253H593.768z"/>
							<path style="fill:#D5D5D1;" d="M583.167,415.542l-0.901,1.157c-0.15,0.195-0.436,0.225-0.624,0.075l-2.126-1.667
								c0.511-0.556,0.932-1.127,1.315-1.675c0.045-0.06,0.083-0.128,0.12-0.188l2.141,1.675
								C583.287,415.069,583.325,415.354,583.167,415.542z"/>
							<path style="fill:#D5D5D1;" d="M589.375,421.744c0,1.484-1.203,2.686-2.686,2.686s-2.686-1.203-2.686-2.686
								s1.203-2.686,2.686-2.686S589.375,420.26,589.375,421.744z"/>
						</g>
						<path style="fill:#1B141C;" d="M629.968,267.031c-0.219-3.491-1.341-7.115-3.954-9.382c-2.332-2.024-5.522-2.693-8.582-2.815
							c-3.06-0.122-6.135,0.228-9.182-0.081c-1.342-0.136-2.712-0.416-3.835-1.178c-1.123-0.762-1.952-2.098-1.804-3.465
							c2.796-2.622,5.573-5.24,9.119-6.629c3.546-1.389,7.582-1.741,11.141-0.387c2.827,1.076,5.211,3.167,7.012,5.637
							s3.054,5.311,4.069,8.209c0.415,1.186,0.796,2.401,0.87,3.658c0.073,1.257-0.189,2.574-0.948,3.566
							C632.86,265.485,631.547,266.566,629.968,267.031z"/>
						<path style="fill:#2F3B6B;" d="M578.079,347.315c-4.332,1.047-7.244,5.297-6.463,9.832l0.092,0.5
							C575.509,356.362,578.081,351.782,578.079,347.315z"/>
						<path style="fill:#556BC1;" d="M636.146,347.614l-4.195-13.62c-17.515,4.575-28.548-0.107-28.548-0.107l-4.168,11.453
							l-19.881,1.755c-0.438,0.039-0.861,0.12-1.276,0.22c0.003,4.468-2.57,9.048-6.37,10.332l5.831,31.533l14.92-1.581
							l-1.332-21.539l35.313-0.367c4.379-0.045,8.267-2.921,9.484-7.128C636.945,355.033,637.042,351.258,636.146,347.614z"/>
						<polygon style="fill:#2F3B6B;" points="551.124,383.7 566.476,386.96 568.401,382.109 551.368,378.397 						"/>
						<polygon style="fill:#2F3B6B;" points="577.422,390.023 592.976,387.933 593.151,382.718 575.855,384.948 						"/>
						
							<polyline style="fill:none;stroke:#2F3B6B;stroke-width:0.75;stroke-linecap:round;stroke-linejoin:round;stroke-miterlimit:10;" points="
							590.815,384.72 588.313,363.751 627.088,363.751 						"/>
						<polygon style="fill:#DA2727;" points="552.104,383.908 551.74,386.566 564.668,390.712 565.749,386.806 						"/>
						<polygon style="fill:#DA2727;" points="578.212,389.917 591.955,388.07 592.122,392.201 578.617,392.201 						"/>
						<path style="fill:#B7502D;" d="M633.179,337.234c1.78-13.953,2.732-27.925,3.239-41.96c0.182-5.035-2.589-9.441-7.016-11.846
							l-1.383-1.088c-0.81,2.097-2.47,3.823-4.468,4.853c-1.998,1.03-4.314,1.381-6.55,1.147c-1.767-0.185-3.518-0.74-4.961-1.775
							c-1.444-1.035-2.559-2.574-2.909-4.315l-4.933,2.263c-2.314,1.062-4.045,3.161-4.458,5.674
							c-0.26,1.583-0.873,3.103-1.651,4.716c-1.34,2.781-2.868,5.616-2.94,8.702c-0.078,3.384,1.6,6.518,2.942,9.625
							c3.248,7.519,4.569,15.079,3.541,23.572C611.998,339.669,622.744,339.84,633.179,337.234z"/>
						<path style="fill:#801400;" d="M633.398,335.37c-0.06,0.62-0.14,1.24-0.22,1.86c-10.43,2.61-21.18,2.44-31.55-0.43
							c0.08-0.64,0.14-1.28,0.19-1.91C612.207,337.68,622.938,337.87,633.398,335.37z"/>
						<path style="fill:#B7502D;" d="M609.131,282.25l-3.88,1.668c-3.963,1.703-7.508,4.249-10.388,7.461l-11.94,14.385l10.713,13
							l7.393-5.73l4.885-19.624L609.131,282.25z"/>
						<polygon style="fill:#B7502D;" points="628.019,282.34 651.706,296.734 645.612,311.916 634.063,307.494 628.809,288.556 
													"/>
						<polygon style="fill:#801400;" points="645.719,312.5 652.264,297.128 648.964,294.111 641.79,311.76 						"/>
						<polygon style="fill:#801400;" points="593.37,319.421 582.267,305.84 584.38,302.326 596.924,317.593 						"/>
						<path style="fill:#801400;" d="M628.017,282.34c-0.81,2.1-2.47,3.82-4.47,4.85s-4.31,1.38-6.55,1.15
							c-1.76-0.19-3.51-0.74-4.96-1.78c-1.44-1.03-2.56-2.57-2.91-4.31l-2.877,1.238c0.59,2.15,2.047,4.092,3.857,5.402
							c1.98,1.41,4.37,2.17,6.78,2.42c3.06,0.32,6.22-0.16,8.95-1.57c2.24-1.15,4.365-3.145,5.595-5.326L628.017,282.34z"/>
						<path style="fill:none;stroke:#801400;stroke-width:0.75;stroke-miterlimit:10;" d="M598.709,314.579
							c-0.946-1.796-1.895-3.603-2.524-5.533c-0.629-1.93-0.929-4.006-0.545-5.999c0.354-1.839,1.275-3.531,2.417-5.015
							s2.507-2.78,3.865-4.07"/>
						<path style="fill:none;stroke:#801400;stroke-width:0.75;stroke-miterlimit:10;" d="M635.408,308.66
							c-0.212-1.913-0.424-3.826-0.635-5.74"/>
						<polygon style="fill:#DA2727;" points="651.979,297.798 646.058,311.704 647.864,312.557 654.816,299.484 						"/>
						<polygon style="fill:#DA2727;" points="582.923,306.721 592.516,318.377 589.18,321.574 581.36,308.503 						"/>
						<circle style="fill:#801400;" cx="615.786" cy="310.663" r="7.777"/>
					</g>
					<g>
						<g>
							<path style="fill:#1B141C;" d="M608.725,260.085c0,1.17-0.507,2.118-1.132,2.118c-0.625,0-1.132-0.948-1.132-2.118
								c0-1.17,0.507-2.118,1.132-2.118C608.218,257.967,608.725,258.915,608.725,260.085z"/>
							<path style="fill:#1B141C;" d="M618.308,260.085c0,1.17-0.507,2.118-1.132,2.118s-1.132-0.948-1.132-2.118
								c0-1.17,0.507-2.118,1.132-2.118S618.308,258.915,618.308,260.085z"/>
						</g>
						
							<path style="fill:none;stroke:#1B141C;stroke-width:0.75;stroke-linecap:round;stroke-linejoin:round;stroke-miterlimit:10;" d="
							M611.963,260.822c-0.22,0.734-0.634,1.391-0.967,2.081c-0.333,0.69-0.591,1.457-0.466,2.212
							c0.126,0.755,0.742,1.473,1.508,1.485"/>
						
							<path style="fill:none;stroke:#1B141C;stroke-width:0.75;stroke-linecap:round;stroke-linejoin:round;stroke-miterlimit:10;" d="
							M609.938,269.277c1.478,0.324,3.086-0.005,4.318-0.884"/>
					</g>
				</g>
				<g>
					<g>
						<path style="fill:#A8A8A8;" d="M608.204,329.678h-33.793v2.276h35.862v-0.207
							C610.274,330.605,609.347,329.678,608.204,329.678z"/>
						<path style="fill:#A8A8A8;" d="M583.048,330.74l-8.866-28.14c-0.173-0.551-0.684-0.925-1.261-0.925h-38.906
							c-0.368,0-0.688,0.152-0.923,0.386l-0.002-0.007l-1.266,1.343h0.931l8.614,27.343H583.048z"/>
						<path style="fill:#CCCCCC;" d="M580.425,331.955H541.01c-0.471,0-0.888-0.306-1.029-0.755l-8.378-26.59
							c-0.268-0.852,0.368-1.719,1.261-1.719h38.906c0.577,0,1.088,0.374,1.261,0.925l8.423,26.736
							C581.674,331.247,581.154,331.955,580.425,331.955z"/>
					</g>
					<g>
						<rect x="622.087" y="331.955" style="fill:#486363;" width="69.566" height="5.577"/>
						<rect x="499.673" y="331.955" style="fill:#78A4A5;" width="124.717" height="5.577"/>
						<rect x="499.673" y="331.955" style="fill:#78A4A5;" width="4.719" height="96.454"/>
						<rect x="619.552" y="331.955" style="fill:#78A4A5;" width="4.719" height="96.454"/>
						<rect x="686.935" y="331.955" style="fill:#486363;" width="4.719" height="96.454"/>
					</g>
				</g>
				<g>
					<path style="fill:#A8A8A8;" d="M281.632,329.678h-33.793v2.276h35.862v-0.207C283.701,330.605,282.775,329.678,281.632,329.678
						z"/>
					<path style="fill:#A8A8A8;" d="M256.475,330.74l-8.866-28.14c-0.173-0.551-0.684-0.925-1.261-0.925h-38.906
						c-0.368,0-0.688,0.152-0.923,0.386l-0.002-0.007l-1.266,1.343h0.931l8.614,27.343H256.475z"/>
					<path style="fill:#CCCCCC;" d="M253.853,331.955h-39.415c-0.471,0-0.888-0.306-1.029-0.755l-8.377-26.59
						c-0.268-0.852,0.368-1.719,1.261-1.719h38.906c0.577,0,1.088,0.374,1.261,0.925l8.423,26.736
						C255.101,331.247,254.582,331.955,253.853,331.955z"/>
				</g>
				<g>
					<rect x="295.515" y="331.955" style="fill:#486363;" width="69.566" height="5.577"/>
					<rect x="173.101" y="331.955" style="fill:#78A4A5;" width="124.716" height="5.577"/>
					<rect x="173.101" y="331.955" style="fill:#78A4A5;" width="4.719" height="96.454"/>
					<rect x="292.979" y="331.955" style="fill:#78A4A5;" width="4.719" height="96.454"/>
					<rect x="360.362" y="331.955" style="fill:#486363;" width="4.719" height="96.454"/>
				</g>
			</g>
		</g>
	</g>
</g>
</svg>
